<svg width="832" height="386" viewBox="0 0 832 386" fill="none" xmlns="http://www.w3.org/2000/svg">
<rect width="831" height="386" rx="16" fill="white"/>
<mask id="mask0_186_2849" style="mask-type:alpha" maskUnits="userSpaceOnUse" x="0" y="168" width="832" height="218">
<rect y="168.166" width="831.004" height="217.015" rx="16" fill="white"/>
</mask>
<g mask="url(#mask0_186_2849)">
<path d="M12.0258 245.303H-13.7808C-14.8853 245.303 -15.7808 246.199 -15.7808 247.303V321.672C-15.7808 322.777 -14.8853 323.672 -13.7807 323.672H847.527C848.631 323.672 849.527 322.777 849.527 321.672V247.303C849.527 246.199 848.631 245.303 847.527 245.303H711.593C711.113 245.303 710.65 245.131 710.287 244.818L678.841 217.69C678.121 217.069 677.065 217.04 676.313 217.621L653.159 235.478C652.449 236.025 651.463 236.033 650.744 235.499L626.517 217.482C625.828 216.969 624.888 216.954 624.183 217.444L597.776 235.773C597.211 236.165 596.484 236.239 595.852 235.97L578.076 228.398C576.962 227.924 575.686 228.54 575.364 229.707L549.895 322.058C549.398 323.861 546.918 324.055 546.146 322.351L525.212 276.146C524.888 275.431 524.176 274.971 523.391 274.971H503.38C502.493 274.971 501.712 274.387 501.461 273.537L477.542 192.37C477.047 190.691 474.787 190.413 473.9 191.921L448.872 234.482C448.269 235.508 446.909 235.783 445.955 235.073L422.67 217.757C421.817 217.122 420.615 217.267 419.936 218.086L398.001 244.579C397.621 245.038 397.056 245.303 396.46 245.303H311.185C310.462 245.303 309.796 244.914 309.442 244.284L294.001 216.86C293.913 216.703 293.804 216.559 293.677 216.432L267.218 189.801C266.288 188.866 264.724 189.07 264.066 190.213L254.266 207.218C254.076 207.548 253.795 207.817 253.457 207.993L217.386 226.771C216.563 227.199 215.553 227.005 214.947 226.302L193.677 201.601C192.644 200.401 190.693 200.82 190.244 202.337L166.035 284.036C165.442 286.037 162.565 285.906 162.156 283.859L140.057 173.239C139.699 171.446 137.322 171.034 136.381 172.601L115.58 207.253C115.395 207.561 115.13 207.814 114.814 207.984L87.9568 222.447C87.8208 222.521 87.6936 222.609 87.578 222.712L63.262 244.278C62.5812 244.882 61.5787 244.95 60.8225 244.444L36.7133 228.307C35.9956 227.827 35.0507 227.862 34.37 228.393L13.2567 244.88C12.9052 245.154 12.4719 245.303 12.0258 245.303Z" fill="url(#paint0_linear_186_2849)"/>
<path d="M-15.7808 245.303H12.0258C12.4719 245.303 12.9052 245.154 13.2567 244.88L34.37 228.393C35.0507 227.862 35.9956 227.827 36.7133 228.307L60.8225 244.444C61.5787 244.95 62.5812 244.882 63.262 244.278L87.578 222.712C87.6936 222.609 87.8207 222.521 87.9568 222.447L114.814 207.984C115.13 207.814 115.395 207.561 115.58 207.253L136.381 172.601C137.322 171.034 139.699 171.446 140.057 173.239L162.156 283.859C162.565 285.906 165.442 286.037 166.035 284.036L190.244 202.337C190.693 200.82 192.644 200.401 193.677 201.601L214.947 226.302C215.553 227.005 216.563 227.199 217.386 226.771L253.457 207.993C253.795 207.817 254.076 207.548 254.266 207.218L264.066 190.213C264.724 189.07 266.288 188.866 267.218 189.801L293.677 216.432C293.804 216.559 293.913 216.703 294.001 216.86L309.442 244.284C309.796 244.914 310.462 245.303 311.185 245.303H396.46C397.056 245.303 397.621 245.038 398.001 244.579L419.936 218.086C420.615 217.267 421.817 217.122 422.67 217.757L445.955 235.073C446.909 235.783 448.269 235.508 448.872 234.482L473.9 191.921C474.787 190.413 477.047 190.691 477.542 192.37L501.461 273.537C501.712 274.387 502.493 274.971 503.379 274.971H523.391C524.176 274.971 524.888 275.431 525.212 276.146L546.146 322.351C546.918 324.055 549.398 323.861 549.895 322.058L575.364 229.707C575.686 228.54 576.962 227.924 578.075 228.398L595.852 235.97C596.484 236.239 597.211 236.165 597.776 235.773L624.183 217.444C624.888 216.954 625.828 216.969 626.517 217.482L650.744 235.499C651.463 236.033 652.449 236.025 653.159 235.478L676.313 217.621C677.065 217.04 678.121 217.069 678.841 217.69L710.287 244.818C710.65 245.131 711.113 245.303 711.593 245.303H849.527" stroke="#32F2CC" stroke-width="3"/>
<path d="M49.0009 279.337H-8.72363C-10.3805 279.337 -11.7236 280.68 -11.7236 282.337V399.692C-11.7236 401.349 -10.3805 402.692 -8.72364 402.692H834.94C836.597 402.692 837.94 401.349 837.94 399.692V282.337C837.94 280.68 836.597 279.337 834.94 279.337H815.703C815.483 279.337 815.264 279.313 815.05 279.265L768.303 268.836C768.089 268.788 767.87 268.764 767.65 268.764H710.999C710.625 268.764 710.255 268.833 709.908 268.969L683.879 279.132C683.531 279.267 683.161 279.337 682.788 279.337H647.874C647.459 279.337 647.049 279.423 646.669 279.589L626.126 288.595C625.913 288.688 625.712 288.806 625.527 288.945L605.833 303.754C605.609 303.923 605.41 304.121 605.241 304.345L593.685 319.658C593.294 320.176 592.747 320.553 592.124 320.733L573.385 326.152C572.981 326.269 572.606 326.47 572.285 326.74L551.128 344.572C549.96 345.557 548.239 345.506 547.13 344.455L498.3 298.134L473.935 279.684C473.632 279.455 473.288 279.285 472.921 279.184L435.111 268.764L418.087 262.117C417.423 261.857 416.687 261.843 416.013 262.077L368.033 278.729C366.959 279.102 365.767 278.835 364.954 278.042L350.203 263.643C349.086 262.553 347.32 262.502 346.141 263.524L328.762 278.603C328.216 279.076 327.518 279.337 326.796 279.337H290.958C290.067 279.337 289.222 278.941 288.652 278.256L275.071 261.941C274.946 261.791 274.806 261.653 274.654 261.529L257.701 247.801C256.141 246.538 253.803 247.134 253.039 248.991L248.089 261.018C247.9 261.475 247.602 261.879 247.219 262.193L227.193 278.655C226.656 279.096 225.983 279.337 225.288 279.337H204.915C204.193 279.337 203.495 279.598 202.949 280.071L159.33 317.916C157.848 319.202 155.552 318.743 154.678 316.986L125.306 257.934C124.465 256.242 122.287 255.74 120.789 256.894L69.4634 296.438C68.2215 297.395 66.4522 297.234 65.4031 296.069L51.2303 280.329C50.6614 279.698 49.8511 279.337 49.0009 279.337Z" fill="url(#paint1_linear_186_2849)" stroke="#5A55D2" stroke-width="3" stroke-linejoin="round"/>
</g>
<path d="M267 95V385" stroke="url(#paint2_linear_186_2849)" stroke-width="2" stroke-linecap="round" stroke-linejoin="round"/>
<circle opacity="0.2" cx="267.384" cy="187.952" r="36" fill="url(#paint3_radial_186_2849)"/>
<g filter="url(#filter0_d_186_2849)">
<circle cx="267.384" cy="187.952" r="8" fill="#00DEA3"/>
</g>
<path d="M252.033 324.177L253.857 321.717V320.733H248.817V321.777H252.549L250.605 324.405L251.049 325.089H251.337C252.345 325.089 253.101 325.641 253.101 326.649C253.101 327.645 252.345 328.197 251.337 328.197C250.425 328.197 249.765 327.813 249.513 327.033L248.577 327.585C249.009 328.713 250.101 329.289 251.337 329.289C252.849 329.289 254.217 328.353 254.217 326.649C254.217 325.257 253.245 324.405 252.033 324.177ZM255.757 324.549C256.201 324.549 256.537 324.201 256.537 323.769C256.537 323.337 256.201 322.989 255.757 322.989C255.325 322.989 254.977 323.337 254.977 323.769C254.977 324.201 255.325 324.549 255.757 324.549ZM255.757 329.265C256.201 329.265 256.537 328.917 256.537 328.485C256.537 328.053 256.201 327.705 255.757 327.705C255.325 327.705 254.977 328.053 254.977 328.485C254.977 328.917 255.325 329.265 255.757 329.265ZM260.223 324.009H258.999L259.143 321.777H262.731V320.733H258.135L257.823 325.089H260.199C261.195 325.089 261.951 325.641 261.951 326.649C261.951 327.645 261.195 328.197 260.175 328.197C259.263 328.197 258.579 327.777 258.351 326.949L257.403 327.489C257.811 328.689 258.939 329.289 260.175 329.289C261.687 329.289 263.055 328.353 263.055 326.649C263.055 324.933 261.723 324.009 260.223 324.009ZM269.016 323.397C269.016 321.729 267.816 320.577 266.124 320.577C264.432 320.577 263.232 321.729 263.232 323.397C263.232 325.065 264.432 326.217 266.124 326.217C266.268 326.217 266.4 326.205 266.532 326.193L264.54 329.133H265.8L268.512 325.089H268.5C268.836 324.621 269.016 324.057 269.016 323.397ZM264.336 323.397C264.336 322.341 265.068 321.645 266.124 321.645C267.18 321.645 267.912 322.329 267.912 323.397C267.912 324.465 267.18 325.161 266.124 325.161C265.068 325.161 264.336 324.465 264.336 323.397ZM275.064 329.133H276.252L273.12 320.733H271.86L268.728 329.133H269.916L270.6 327.249H274.38L275.064 329.133ZM270.984 326.205L272.484 322.065L273.996 326.205H270.984ZM284.863 320.733H283.603L280.939 325.173L278.263 320.733H277.003V329.133H278.119V322.581L280.867 327.141H281.011L283.759 322.569V329.133H284.863V320.733Z" fill="#00523C"/>
<g filter="url(#filter1_bd_186_2849)">
<rect x="247" y="89" width="90.0924" height="31.9321" rx="15.966" fill="url(#paint4_linear_186_2849)" shape-rendering="crispEdges"/>
<circle cx="267" cy="104.966" r="4" fill="#00EAAC"/>
<path d="M287.24 107.474C287.24 105.442 285.704 104.802 284.136 104.226V100.546C284.888 100.69 285.448 101.138 285.768 101.938L287.016 101.234C286.456 99.9541 285.384 99.2501 284.136 99.0901V97.6661H283.128V99.0741C281.48 99.2341 280.104 100.338 280.104 102.13C280.104 104.114 281.544 104.754 283.128 105.33V109.202C281.944 109.074 281.192 108.482 280.84 107.522L279.56 108.258C280.104 109.666 281.384 110.53 283.128 110.658V112.066H284.136V110.642C285.928 110.434 287.24 109.25 287.24 107.474ZM281.576 102.13C281.576 101.25 282.2 100.658 283.128 100.53V103.842C282.104 103.41 281.576 102.978 281.576 102.13ZM284.136 109.17V105.698C285.128 106.114 285.752 106.546 285.752 107.49C285.752 108.354 285.176 109.01 284.136 109.17ZM293.109 103.858L295.541 100.578V99.2661H288.821V100.658H293.797L291.205 104.162L291.797 105.074H292.181C293.525 105.074 294.533 105.81 294.533 107.154C294.533 108.482 293.525 109.218 292.181 109.218C290.965 109.218 290.085 108.706 289.749 107.666L288.501 108.402C289.077 109.906 290.533 110.674 292.181 110.674C294.197 110.674 296.021 109.426 296.021 107.154C296.021 105.298 294.725 104.162 293.109 103.858ZM297.159 99.2661V100.674H302.567L298.519 110.466H300.071L304.151 100.594V99.2661H297.159ZM308.635 103.138C308.458 103.138 308.282 103.154 308.106 103.17L310.747 99.2661H309.05L305.45 104.658C305.018 105.266 304.778 106.034 304.778 106.898C304.778 109.122 306.378 110.674 308.635 110.674C310.874 110.674 312.491 109.122 312.491 106.898C312.491 104.674 310.874 103.138 308.635 103.138ZM308.635 109.25C307.226 109.25 306.25 108.322 306.25 106.898C306.25 105.474 307.226 104.562 308.635 104.562C310.026 104.562 311.018 105.49 311.018 106.898C311.018 108.322 310.026 109.25 308.635 109.25Z" fill="#232927"/>
</g>
<path d="M25.2715 63.7103V64.9423H30.0035L26.4615 73.5103H27.8195L31.3895 64.8723V63.7103H25.2715ZM31.1913 73.6643C31.7093 73.6643 32.1013 73.2583 32.1013 72.7543C32.1013 72.2503 31.7093 71.8443 31.1913 71.8443C30.6873 71.8443 30.2813 72.2503 30.2813 72.7543C30.2813 73.2583 30.6873 73.6643 31.1913 73.6643ZM33.1256 73.5103H39.4536V72.2503H35.0156L37.5216 69.7583C38.4876 68.7923 39.2716 67.7423 39.2716 66.5243C39.2716 64.5923 37.7456 63.5283 36.2196 63.5283C34.9456 63.5283 33.7556 64.1583 33.1256 65.4603L34.2176 66.1043C34.6376 65.2223 35.3376 64.7883 36.2336 64.7883C37.1436 64.7883 37.9696 65.3903 37.9696 66.5383C37.9696 67.3643 37.3536 68.1483 36.5836 68.9183L33.1256 72.4463V73.5103ZM42.4281 63.7103L39.8521 64.6063L40.1741 65.7263L42.2601 65.1103V73.5103H43.5481V63.7103H42.4281ZM52.1923 70.4303H51.0023V67.6583H49.7003V70.4303H46.1023L49.6163 63.7103H48.2163L44.7023 70.4303V71.6483H49.7003V73.5103H51.0023V71.6483H52.1923V70.4303ZM54.6513 63.7103L52.0753 64.6063L52.3973 65.7263L54.4833 65.1103V73.5103H55.7713V63.7103H54.6513ZM59.3335 72.0683H57.9335L57.3735 75.4703H58.4235L59.3335 72.0683ZM66.0062 66.8183C66.0062 64.8723 64.6062 63.5283 62.6322 63.5283C60.6582 63.5283 59.2582 64.8723 59.2582 66.8183C59.2582 68.7643 60.6582 70.1083 62.6322 70.1083C62.8002 70.1083 62.9542 70.0943 63.1082 70.0803L60.7842 73.5103H62.2542L65.4182 68.7923H65.4042C65.7962 68.2463 66.0062 67.5883 66.0062 66.8183ZM60.5462 66.8183C60.5462 65.5863 61.4002 64.7743 62.6322 64.7743C63.8642 64.7743 64.7182 65.5723 64.7182 66.8183C64.7182 68.0643 63.8642 68.8763 62.6322 68.8763C61.4002 68.8763 60.5462 68.0643 60.5462 66.8183ZM73.2594 66.8183C73.2594 64.8723 71.8594 63.5283 69.8854 63.5283C67.9114 63.5283 66.5114 64.8723 66.5114 66.8183C66.5114 68.7643 67.9114 70.1083 69.8854 70.1083C70.0534 70.1083 70.2074 70.0943 70.3614 70.0803L68.0374 73.5103H69.5074L72.6714 68.7923H72.6574C73.0494 68.2463 73.2594 67.5883 73.2594 66.8183ZM67.7994 66.8183C67.7994 65.5863 68.6534 64.7743 69.8854 64.7743C71.1174 64.7743 71.9714 65.5723 71.9714 66.8183C71.9714 68.0643 71.1174 68.8763 69.8854 68.8763C68.6534 68.8763 67.7994 68.0643 67.7994 66.8183ZM73.4879 63.7103V64.9423H78.2199L74.6779 73.5103H76.0359L79.6059 64.8723V63.7103H73.4879ZM79.4077 73.6643C79.9257 73.6643 80.3177 73.2583 80.3177 72.7543C80.3177 72.2503 79.9257 71.8443 79.4077 71.8443C78.9037 71.8443 78.4977 72.2503 78.4977 72.7543C78.4977 73.2583 78.9037 73.6643 79.4077 73.6643ZM84.618 67.5323H83.19L83.358 64.9283H87.544V63.7103H82.182L81.818 68.7923H84.59C85.752 68.7923 86.634 69.4363 86.634 70.6123C86.634 71.7743 85.752 72.4183 84.562 72.4183C83.498 72.4183 82.7 71.9283 82.434 70.9623L81.328 71.5923C81.804 72.9923 83.12 73.6923 84.562 73.6923C86.326 73.6923 87.922 72.6003 87.922 70.6123C87.922 68.6103 86.368 67.5323 84.618 67.5323ZM93.7315 74.9103H94.9495C93.9695 72.9503 93.4095 70.8503 93.4095 68.6103C93.4095 66.3703 93.9695 64.2703 94.9495 62.3103H93.7315C92.7515 64.2703 92.1915 66.3703 92.1915 68.6103C92.1915 70.8503 92.7515 72.9503 93.7315 74.9103ZM95.5274 73.5103H101.855V72.2503H97.4174L99.9234 69.7583C100.889 68.7923 101.673 67.7423 101.673 66.5243C101.673 64.5923 100.147 63.5283 98.6214 63.5283C97.3474 63.5283 96.1574 64.1583 95.5274 65.4603L96.6194 66.1043C97.0394 65.2223 97.7394 64.7883 98.6354 64.7883C99.5454 64.7883 100.371 65.3903 100.371 66.5383C100.371 67.3643 99.7554 68.1483 98.9854 68.9183L95.5274 72.4463V73.5103ZM105.797 67.5323H104.369L104.537 64.9283H108.723V63.7103H103.361L102.997 68.7923H105.769C106.931 68.7923 107.813 69.4363 107.813 70.6123C107.813 71.7743 106.931 72.4183 105.741 72.4183C104.677 72.4183 103.879 71.9283 103.613 70.9623L102.507 71.5923C102.983 72.9923 104.299 73.6923 105.741 73.6923C107.505 73.6923 109.101 72.6003 109.101 70.6123C109.101 68.6103 107.547 67.5323 105.797 67.5323ZM112.047 67.8683C113.349 67.8683 114.259 66.9023 114.259 65.6983C114.259 64.4943 113.321 63.5283 112.047 63.5283C110.773 63.5283 109.835 64.5083 109.835 65.6983C109.835 66.9023 110.773 67.8683 112.047 67.8683ZM112.047 66.8463C111.389 66.8463 110.927 66.3423 110.927 65.6983C110.927 65.0683 111.389 64.5643 112.047 64.5643C112.719 64.5643 113.167 65.0683 113.167 65.6983C113.167 66.3283 112.719 66.8463 112.047 66.8463ZM110.493 72.1243L111.165 72.5163L117.689 65.2223L117.003 64.8443L110.493 72.1243ZM116.275 73.6783C117.549 73.6783 118.487 72.7123 118.487 71.5083C118.487 70.3043 117.549 69.3383 116.275 69.3383C115.001 69.3383 114.063 70.3043 114.063 71.5083C114.063 72.7123 115.001 73.6783 116.275 73.6783ZM116.275 72.6423C115.603 72.6423 115.155 72.1383 115.155 71.5083C115.155 70.8783 115.603 70.3743 116.275 70.3743C116.933 70.3743 117.395 70.8783 117.395 71.5083C117.395 72.1383 116.933 72.6423 116.275 72.6423ZM120.538 74.9103C121.518 72.9503 122.078 70.8503 122.078 68.6103C122.078 66.3703 121.518 64.2703 120.538 62.3103H119.32C120.3 64.2703 120.86 66.3703 120.86 68.6103C120.86 70.8503 120.3 72.9503 119.32 74.9103H120.538Z" fill="#00DEA3"/>
<path d="M41.52 33.2061H39L33.672 42.0861L28.32 33.2061H25.8V50.0061H28.032V36.9021L33.528 46.0221H33.816L39.312 36.8781V50.0061H41.52V33.2061ZM55.2165 38.0061V40.0701C54.2565 38.6061 52.7205 37.6941 50.6805 37.6941C47.3445 37.6941 44.6085 40.4541 44.6085 44.0061C44.6085 47.5581 47.3445 50.3181 50.6805 50.3181C52.7205 50.3181 54.2565 49.4061 55.2165 47.9421V50.0061H57.3045V38.0061H55.2165ZM50.9445 48.3021C48.5445 48.3021 46.6965 46.4541 46.6965 44.0061C46.6965 41.5581 48.5445 39.7101 50.9445 39.7101C53.3685 39.7101 55.2165 41.5581 55.2165 44.0061C55.2165 46.4541 53.3685 48.3021 50.9445 48.3021ZM62.94 40.0221V38.0061H60.852V50.0061H62.94V43.6461C62.94 40.8141 64.884 39.9021 66.684 39.9741V37.7901C65.172 37.7901 63.708 38.3421 62.94 40.0221ZM79.263 50.0061L73.335 43.8141L79.071 38.0061H76.383L71.199 43.3101V33.2061H69.111V50.0061H71.199V44.3181L76.671 50.0061H79.263ZM81.9512 44.9661H92.0072C92.0552 44.6541 92.0792 44.3421 92.0792 44.0301C92.0792 40.6701 89.7272 37.6941 86.1032 37.6941C82.3592 37.6941 79.8152 40.4541 79.8152 44.0061C79.8152 47.6061 82.3832 50.3181 86.2472 50.3181C88.6472 50.3181 90.4712 49.2381 91.5272 47.6061L89.7512 46.5981C89.1512 47.5821 87.9512 48.3501 86.2952 48.3501C84.0632 48.3501 82.3592 47.1261 81.9512 44.9661ZM86.1032 39.6621C87.9032 39.6621 89.6072 40.7661 89.9672 43.1421H81.9512C82.2872 41.0541 83.8472 39.6621 86.1032 39.6621ZM101.04 40.0221V38.0061H97.8478V34.6461L95.7598 35.2701V38.0061H93.3838V40.0221H95.7598V46.5261C95.7598 49.5261 97.4398 50.4861 101.04 50.0061V48.1341C98.9038 48.2301 97.8478 48.3501 97.8478 46.5261V40.0221H101.04ZM118.366 50.3181C123.238 50.3181 127.078 46.4301 127.078 41.6061C127.078 36.7581 123.238 32.8941 118.366 32.8941C113.494 32.8941 109.678 36.7581 109.678 41.6061C109.678 46.4301 113.494 50.3181 118.366 50.3181ZM118.366 48.1341C114.694 48.1341 111.886 45.2781 111.886 41.6061C111.886 37.9101 114.694 35.0541 118.366 35.0541C122.038 35.0541 124.846 37.9101 124.846 41.6061C124.846 45.2781 122.038 48.1341 118.366 48.1341ZM138.329 38.0061L134.561 47.7741L130.793 38.0061H128.537L133.337 50.0061H135.785L140.585 38.0061H138.329ZM143.731 44.9661H153.787C153.835 44.6541 153.859 44.3421 153.859 44.0301C153.859 40.6701 151.507 37.6941 147.883 37.6941C144.139 37.6941 141.595 40.4541 141.595 44.0061C141.595 47.6061 144.163 50.3181 148.027 50.3181C150.427 50.3181 152.251 49.2381 153.307 47.6061L151.531 46.5981C150.931 47.5821 149.731 48.3501 148.075 48.3501C145.843 48.3501 144.139 47.1261 143.731 44.9661ZM147.883 39.6621C149.683 39.6621 151.387 40.7661 151.747 43.1421H143.731C144.067 41.0541 145.627 39.6621 147.883 39.6621ZM158.731 40.0221V38.0061H156.643V50.0061H158.731V43.6461C158.731 40.8141 160.675 39.9021 162.475 39.9741V37.7901C160.963 37.7901 159.499 38.3421 158.731 40.0221ZM173.302 38.0061L169.534 47.7741L165.766 38.0061H163.51L168.31 50.0061H170.758L175.558 38.0061H173.302ZM178.764 35.8221C179.532 35.8221 180.156 35.1981 180.156 34.4301C180.156 33.6621 179.532 33.0141 178.764 33.0141C177.972 33.0141 177.348 33.6621 177.348 34.4301C177.348 35.1981 177.972 35.8221 178.764 35.8221ZM177.708 50.0061H179.796V38.0061H177.708V50.0061ZM184.829 44.9661H194.885C194.933 44.6541 194.957 44.3421 194.957 44.0301C194.957 40.6701 192.605 37.6941 188.981 37.6941C185.237 37.6941 182.693 40.4541 182.693 44.0061C182.693 47.6061 185.261 50.3181 189.125 50.3181C191.525 50.3181 193.349 49.2381 194.405 47.6061L192.629 46.5981C192.029 47.5821 190.829 48.3501 189.173 48.3501C186.941 48.3501 185.237 47.1261 184.829 44.9661ZM188.981 39.6621C190.781 39.6621 192.485 40.7661 192.845 43.1421H184.829C185.165 41.0541 186.725 39.6621 188.981 39.6621ZM211.409 38.0061L208.769 47.1501L205.937 38.0061H203.921L201.089 47.1261L198.449 38.0061H196.265L199.985 50.0061H202.121L204.929 41.1261L207.737 50.0061H209.873L213.593 38.0061H211.409Z" fill="#00261C"/>
<g filter="url(#filter2_bd_186_2849)">
<rect x="457" y="36.9219" width="48" height="32" rx="12" fill="#00DEA3" shape-rendering="crispEdges"/>
<path d="M477.957 56.9219H479.145L476.013 48.5219H474.753L471.621 56.9219H472.809L473.493 55.0379H477.273L477.957 56.9219ZM473.877 53.9939L475.377 49.8539L476.889 53.9939H473.877ZM481.012 55.8659V48.5219H479.896V56.9219H484.636V55.8659H481.012ZM486.631 55.8659V48.5219H485.515V56.9219H490.255V55.8659H486.631Z" fill="white"/>
</g>
<g filter="url(#filter3_bd_186_2849)">
<path d="M543.529 48.5219L541.321 49.2899L541.597 50.2499L543.385 49.7219V56.9219H544.489V48.5219H543.529ZM553.951 48.5219H552.691L550.027 52.9619L547.351 48.5219H546.091V56.9219H547.207V50.3699L549.955 54.9299H550.099L552.847 50.3579V56.9219H553.951V48.5219Z" fill="#232927"/>
<rect x="524.5" y="37.4219" width="47" height="31" rx="11.5" stroke="#AEB6CF" shape-rendering="crispEdges"/>
</g>
<g filter="url(#filter4_bd_186_2849)">
<path d="M610.291 51.4259C610.159 51.4259 610.027 51.4379 609.895 51.4499L611.875 48.5219H610.603L607.903 52.5659C607.579 53.0219 607.399 53.5979 607.399 54.2459C607.399 55.9139 608.599 57.0779 610.291 57.0779C611.971 57.0779 613.183 55.9139 613.183 54.2459C613.183 52.5779 611.971 51.4259 610.291 51.4259ZM610.291 56.0099C609.235 56.0099 608.503 55.3139 608.503 54.2459C608.503 53.1779 609.235 52.4939 610.291 52.4939C611.335 52.4939 612.079 53.1899 612.079 54.2459C612.079 55.3139 611.335 56.0099 610.291 56.0099ZM622.04 48.5219H620.78L618.116 52.9619L615.44 48.5219H614.18V56.9219H615.296V50.3699L618.044 54.9299H618.188L620.936 50.3579V56.9219H622.04V48.5219Z" fill="#232927"/>
<rect x="591.5" y="37.4219" width="47" height="31" rx="11.5" stroke="#AEB6CF" shape-rendering="crispEdges"/>
</g>
<g filter="url(#filter5_bd_186_2849)">
<path d="M678.736 48.5219L676.528 49.2899L676.804 50.2499L678.592 49.7219V56.9219H679.696V48.5219H678.736ZM687.55 48.5219H686.302L684.022 52.4579L681.742 48.5219H680.494L683.458 53.5139V56.9219H684.574V53.5259L687.55 48.5219Z" fill="#232927"/>
<rect x="658.5" y="37.4219" width="47" height="31" rx="11.5" stroke="#AEB6CF" shape-rendering="crispEdges"/>
</g>
<g filter="url(#filter6_bd_186_2849)">
<path d="M753.224 48.5219H751.976L749.696 52.4579L747.416 48.5219H746.168L749.132 53.5139V56.9219H750.248V53.5259L753.224 48.5219ZM759.35 48.5219H753.29V49.5779H755.762V56.9219H756.866V49.5779H759.35V48.5219ZM763.491 48.5219H760.215V56.9219H763.491C765.807 56.9219 767.475 55.0499 767.475 52.7219C767.475 50.3939 765.807 48.5219 763.491 48.5219ZM763.491 55.8659H761.331V49.5779H763.491C765.219 49.5779 766.407 50.9459 766.407 52.7219C766.407 54.4979 765.219 55.8659 763.491 55.8659Z" fill="#232927"/>
<rect x="725.5" y="37.4219" width="63" height="31" rx="11.5" stroke="#AEB6CF" shape-rendering="crispEdges"/>
</g>
<g clip-path="url(#clip0_186_2849)">
<g filter="url(#filter7_b_186_2849)">
<rect x="727.948" y="339" width="77" height="28" rx="14" fill="black" fill-opacity="0.01"/>
</g>
<path d="M760.724 354.196C762.81 354.196 764.28 353.076 764.28 351.242C764.28 349.24 762.628 348.722 761.074 348.232C759.59 347.784 759.212 347.462 759.212 346.86C759.212 346.3 759.688 345.88 760.5 345.88C761.494 345.88 762.026 346.398 762.376 347.14L764 346.202C763.342 344.83 762.11 344.004 760.5 344.004C758.82 344.004 757.28 345.068 757.28 346.916C757.28 348.778 758.736 349.408 760.234 349.842C761.69 350.262 762.348 350.542 762.348 351.27C762.348 351.816 761.942 352.306 760.78 352.306C759.562 352.306 758.876 351.718 758.526 350.808L756.874 351.774C757.406 353.23 758.722 354.196 760.724 354.196ZM766.894 351.242H772.172C772.214 351.004 772.242 350.766 772.242 350.5C772.242 348.442 770.772 346.804 768.7 346.804C766.502 346.804 765.004 348.414 765.004 350.5C765.004 352.586 766.488 354.196 768.84 354.196C770.184 354.196 771.234 353.65 771.892 352.698L770.436 351.858C770.128 352.264 769.568 352.558 768.868 352.558C767.916 352.558 767.146 352.166 766.894 351.242ZM766.866 349.842C767.076 348.946 767.734 348.428 768.7 348.428C769.456 348.428 770.212 348.834 770.436 349.842H766.866ZM773.223 354H775.029V343.78H773.223V354ZM776.402 354H778.208V343.78H776.402V354Z" fill="#6F6C99"/>
<circle cx="746.948" cy="353" r="4" fill="#00DEA3"/>
</g>
<g clip-path="url(#clip1_186_2849)">
<g filter="url(#filter8_b_186_2849)">
<rect x="646" y="339" width="74" height="28" rx="14" fill="black" fill-opacity="0.01"/>
</g>
<path d="M680.364 348.918C680.938 348.456 681.288 347.798 681.288 346.958C681.288 345.32 679.958 344.2 678.306 344.2H674.442V354H678.6C680.294 354 681.652 352.838 681.652 351.158C681.652 350.136 681.148 349.366 680.364 348.918ZM678.306 346.006C678.922 346.006 679.356 346.468 679.356 347.084C679.356 347.7 678.908 348.162 678.306 348.162H676.374V346.006H678.306ZM678.6 352.194H676.374V349.884H678.6C679.258 349.884 679.734 350.374 679.734 351.032C679.734 351.704 679.258 352.194 678.6 352.194ZM687.325 347V350.78C687.325 351.998 686.667 352.516 685.785 352.516C684.973 352.516 684.399 352.026 684.399 351.074V347H682.593V351.298C682.593 353.16 683.755 354.196 685.239 354.196C686.177 354.196 686.905 353.846 687.325 353.216V354H689.131V347H687.325ZM695.069 347L693.515 351.704L691.695 347H689.721L692.591 353.776C692.255 354.714 691.751 355.134 690.757 355.12V356.8C692.535 356.898 693.725 356.016 694.453 354L697.001 347H695.069Z" fill="#6F6C99"/>
<circle cx="665" cy="353" r="4" fill="#5A55D2"/>
</g>
<defs>
<filter id="filter0_d_186_2849" x="251.384" y="175.952" width="32" height="32" filterUnits="userSpaceOnUse" color-interpolation-filters="sRGB">
<feFlood flood-opacity="0" result="BackgroundImageFix"/>
<feColorMatrix in="SourceAlpha" type="matrix" values="0 0 0 0 0 0 0 0 0 0 0 0 0 0 0 0 0 0 127 0" result="hardAlpha"/>
<feOffset dy="4"/>
<feGaussianBlur stdDeviation="4"/>
<feComposite in2="hardAlpha" operator="out"/>
<feColorMatrix type="matrix" values="0 0 0 0 0 0 0 0 0 0.870588 0 0 0 0 0.639216 0 0 0 0.32 0"/>
<feBlend mode="normal" in2="BackgroundImageFix" result="effect1_dropShadow_186_2849"/>
<feBlend mode="normal" in="SourceGraphic" in2="effect1_dropShadow_186_2849" result="shape"/>
</filter>
<filter id="filter1_bd_186_2849" x="231" y="74" width="122.092" height="68.9321" filterUnits="userSpaceOnUse" color-interpolation-filters="sRGB">
<feFlood flood-opacity="0" result="BackgroundImageFix"/>
<feGaussianBlur in="BackgroundImageFix" stdDeviation="7.5"/>
<feComposite in2="SourceAlpha" operator="in" result="effect1_backgroundBlur_186_2849"/>
<feColorMatrix in="SourceAlpha" type="matrix" values="0 0 0 0 0 0 0 0 0 0 0 0 0 0 0 0 0 0 127 0" result="hardAlpha"/>
<feOffset dy="6"/>
<feGaussianBlur stdDeviation="8"/>
<feComposite in2="hardAlpha" operator="out"/>
<feColorMatrix type="matrix" values="0 0 0 0 0.105882 0 0 0 0 0.752941 0 0 0 0 0.929412 0 0 0 0.06 0"/>
<feBlend mode="normal" in2="effect1_backgroundBlur_186_2849" result="effect2_dropShadow_186_2849"/>
<feBlend mode="normal" in="SourceGraphic" in2="effect2_dropShadow_186_2849" result="shape"/>
</filter>
<filter id="filter2_bd_186_2849" x="441" y="21.9219" width="80" height="69" filterUnits="userSpaceOnUse" color-interpolation-filters="sRGB">
<feFlood flood-opacity="0" result="BackgroundImageFix"/>
<feGaussianBlur in="BackgroundImageFix" stdDeviation="7.5"/>
<feComposite in2="SourceAlpha" operator="in" result="effect1_backgroundBlur_186_2849"/>
<feColorMatrix in="SourceAlpha" type="matrix" values="0 0 0 0 0 0 0 0 0 0 0 0 0 0 0 0 0 0 127 0" result="hardAlpha"/>
<feOffset dy="6"/>
<feGaussianBlur stdDeviation="8"/>
<feComposite in2="hardAlpha" operator="out"/>
<feColorMatrix type="matrix" values="0 0 0 0 0 0 0 0 0 0.870588 0 0 0 0 0.639216 0 0 0 0.06 0"/>
<feBlend mode="normal" in2="effect1_backgroundBlur_186_2849" result="effect2_dropShadow_186_2849"/>
<feBlend mode="normal" in="SourceGraphic" in2="effect2_dropShadow_186_2849" result="shape"/>
</filter>
<filter id="filter3_bd_186_2849" x="489" y="16.9219" width="118" height="102" filterUnits="userSpaceOnUse" color-interpolation-filters="sRGB">
<feFlood flood-opacity="0" result="BackgroundImageFix"/>
<feGaussianBlur in="BackgroundImageFix" stdDeviation="7.5"/>
<feComposite in2="SourceAlpha" operator="in" result="effect1_backgroundBlur_186_2849"/>
<feColorMatrix in="SourceAlpha" type="matrix" values="0 0 0 0 0 0 0 0 0 0 0 0 0 0 0 0 0 0 127 0" result="hardAlpha"/>
<feOffset dy="15"/>
<feGaussianBlur stdDeviation="17.5"/>
<feComposite in2="hardAlpha" operator="out"/>
<feColorMatrix type="matrix" values="0 0 0 0 0.94902 0 0 0 0 0.223529 0 0 0 0 0.521569 0 0 0 0.15 0"/>
<feBlend mode="normal" in2="effect1_backgroundBlur_186_2849" result="effect2_dropShadow_186_2849"/>
<feBlend mode="normal" in="SourceGraphic" in2="effect2_dropShadow_186_2849" result="shape"/>
</filter>
<filter id="filter4_bd_186_2849" x="556" y="16.9219" width="118" height="102" filterUnits="userSpaceOnUse" color-interpolation-filters="sRGB">
<feFlood flood-opacity="0" result="BackgroundImageFix"/>
<feGaussianBlur in="BackgroundImageFix" stdDeviation="7.5"/>
<feComposite in2="SourceAlpha" operator="in" result="effect1_backgroundBlur_186_2849"/>
<feColorMatrix in="SourceAlpha" type="matrix" values="0 0 0 0 0 0 0 0 0 0 0 0 0 0 0 0 0 0 127 0" result="hardAlpha"/>
<feOffset dy="15"/>
<feGaussianBlur stdDeviation="17.5"/>
<feComposite in2="hardAlpha" operator="out"/>
<feColorMatrix type="matrix" values="0 0 0 0 0.94902 0 0 0 0 0.223529 0 0 0 0 0.521569 0 0 0 0.15 0"/>
<feBlend mode="normal" in2="effect1_backgroundBlur_186_2849" result="effect2_dropShadow_186_2849"/>
<feBlend mode="normal" in="SourceGraphic" in2="effect2_dropShadow_186_2849" result="shape"/>
</filter>
<filter id="filter5_bd_186_2849" x="623" y="16.9219" width="118" height="102" filterUnits="userSpaceOnUse" color-interpolation-filters="sRGB">
<feFlood flood-opacity="0" result="BackgroundImageFix"/>
<feGaussianBlur in="BackgroundImageFix" stdDeviation="7.5"/>
<feComposite in2="SourceAlpha" operator="in" result="effect1_backgroundBlur_186_2849"/>
<feColorMatrix in="SourceAlpha" type="matrix" values="0 0 0 0 0 0 0 0 0 0 0 0 0 0 0 0 0 0 127 0" result="hardAlpha"/>
<feOffset dy="15"/>
<feGaussianBlur stdDeviation="17.5"/>
<feComposite in2="hardAlpha" operator="out"/>
<feColorMatrix type="matrix" values="0 0 0 0 0.94902 0 0 0 0 0.223529 0 0 0 0 0.521569 0 0 0 0.15 0"/>
<feBlend mode="normal" in2="effect1_backgroundBlur_186_2849" result="effect2_dropShadow_186_2849"/>
<feBlend mode="normal" in="SourceGraphic" in2="effect2_dropShadow_186_2849" result="shape"/>
</filter>
<filter id="filter6_bd_186_2849" x="690" y="16.9219" width="134" height="102" filterUnits="userSpaceOnUse" color-interpolation-filters="sRGB">
<feFlood flood-opacity="0" result="BackgroundImageFix"/>
<feGaussianBlur in="BackgroundImageFix" stdDeviation="7.5"/>
<feComposite in2="SourceAlpha" operator="in" result="effect1_backgroundBlur_186_2849"/>
<feColorMatrix in="SourceAlpha" type="matrix" values="0 0 0 0 0 0 0 0 0 0 0 0 0 0 0 0 0 0 127 0" result="hardAlpha"/>
<feOffset dy="15"/>
<feGaussianBlur stdDeviation="17.5"/>
<feComposite in2="hardAlpha" operator="out"/>
<feColorMatrix type="matrix" values="0 0 0 0 0.94902 0 0 0 0 0.223529 0 0 0 0 0.521569 0 0 0 0.15 0"/>
<feBlend mode="normal" in2="effect1_backgroundBlur_186_2849" result="effect2_dropShadow_186_2849"/>
<feBlend mode="normal" in="SourceGraphic" in2="effect2_dropShadow_186_2849" result="shape"/>
</filter>
<filter id="filter7_b_186_2849" x="709.394" y="320.445" width="114.109" height="65.1094" filterUnits="userSpaceOnUse" color-interpolation-filters="sRGB">
<feFlood flood-opacity="0" result="BackgroundImageFix"/>
<feGaussianBlur in="BackgroundImageFix" stdDeviation="9.27735"/>
<feComposite in2="SourceAlpha" operator="in" result="effect1_backgroundBlur_186_2849"/>
<feBlend mode="normal" in="SourceGraphic" in2="effect1_backgroundBlur_186_2849" result="shape"/>
</filter>
<filter id="filter8_b_186_2849" x="627.445" y="320.445" width="111.109" height="65.1094" filterUnits="userSpaceOnUse" color-interpolation-filters="sRGB">
<feFlood flood-opacity="0" result="BackgroundImageFix"/>
<feGaussianBlur in="BackgroundImageFix" stdDeviation="9.27735"/>
<feComposite in2="SourceAlpha" operator="in" result="effect1_backgroundBlur_186_2849"/>
<feBlend mode="normal" in="SourceGraphic" in2="effect1_backgroundBlur_186_2849" result="shape"/>
</filter>
<linearGradient id="paint0_linear_186_2849" x1="432.178" y1="43.6755" x2="432.178" y2="300.191" gradientUnits="userSpaceOnUse">
<stop offset="0.171875" stop-color="#18BFEF"/>
<stop offset="0.880208" stop-color="#D3FF76" stop-opacity="0"/>
</linearGradient>
<linearGradient id="paint1_linear_186_2849" x1="426.5" y1="197.5" x2="428" y2="360.5" gradientUnits="userSpaceOnUse">
<stop offset="0.113029" stop-color="#5A55D2" stop-opacity="0.24"/>
<stop offset="1" stop-color="#5A55D2" stop-opacity="0"/>
</linearGradient>
<linearGradient id="paint2_linear_186_2849" x1="267" y1="385" x2="267" y2="95" gradientUnits="userSpaceOnUse">
<stop stop-color="#00DEA3" stop-opacity="0"/>
<stop offset="0.457573" stop-color="#00DEA3"/>
<stop offset="1" stop-color="#00DEA3" stop-opacity="0"/>
</linearGradient>
<radialGradient id="paint3_radial_186_2849" cx="0" cy="0" r="1" gradientUnits="userSpaceOnUse" gradientTransform="translate(267.384 187.952) rotate(28.5925) scale(50.1704)">
<stop stop-color="#00DEA3"/>
<stop offset="1" stop-color="#00DEA3" stop-opacity="0"/>
</radialGradient>
<linearGradient id="paint4_linear_186_2849" x1="245.469" y1="88.309" x2="273.358" y2="151.57" gradientUnits="userSpaceOnUse">
<stop stop-color="white"/>
<stop offset="1" stop-color="white" stop-opacity="0.13"/>
</linearGradient>
<clipPath id="clip0_186_2849">
<rect width="77" height="28" fill="white" transform="translate(727.948 339)"/>
</clipPath>
<clipPath id="clip1_186_2849">
<rect width="74" height="28" fill="white" transform="translate(646 339)"/>
</clipPath>
</defs>
</svg>
