<svg width="1011" height="638" viewBox="0 0 1011 638" fill="none" xmlns="http://www.w3.org/2000/svg">
<g clip-path="url(#clip0_181_2568)">
<rect width="1011" height="638" rx="38" fill="white"/>
<g clip-path="url(#clip1_181_2568)">
<rect width="1011" height="638" rx="38" fill="url(#paint0_linear_181_2568)"/>
<g filter="url(#filter0_f_181_2568)">
<circle cx="719.5" cy="252.5" r="252.5" fill="#35C3F3"/>
</g>
<g opacity="0.3" filter="url(#filter1_f_181_2568)">
<circle cx="173.5" cy="66.5" r="252.5" fill="#35C3F3"/>
</g>
<g filter="url(#filter2_f_181_2568)">
<circle cx="1006.5" cy="563.5" r="252.5" fill="#ABE1FF"/>
</g>
<g filter="url(#filter3_f_181_2568)">
<circle cx="371" cy="699" r="275" fill="#FF6C37"/>
</g>
<line y1="3" x2="1011" y2="3" stroke="white" stroke-opacity="0.2" stroke-width="2"/>
<line y1="17" x2="1011" y2="17" stroke="white" stroke-opacity="0.2" stroke-width="2"/>
<line y1="31" x2="1011" y2="31" stroke="white" stroke-opacity="0.2" stroke-width="2"/>
<line y1="45" x2="1011" y2="45" stroke="white" stroke-opacity="0.2" stroke-width="2"/>
<line y1="59" x2="1011" y2="59" stroke="white" stroke-opacity="0.2" stroke-width="2"/>
<line y1="73" x2="1011" y2="73" stroke="white" stroke-opacity="0.2" stroke-width="2"/>
<line y1="87" x2="1011" y2="87" stroke="white" stroke-opacity="0.2" stroke-width="2"/>
<line y1="101" x2="1011" y2="101" stroke="white" stroke-opacity="0.2" stroke-width="2"/>
<line y1="115" x2="1011" y2="115" stroke="white" stroke-opacity="0.2" stroke-width="2"/>
<line y1="129" x2="1011" y2="129" stroke="white" stroke-opacity="0.2" stroke-width="2"/>
<line y1="143" x2="1011" y2="143" stroke="white" stroke-opacity="0.2" stroke-width="2"/>
<line y1="157" x2="1011" y2="157" stroke="white" stroke-opacity="0.2" stroke-width="2"/>
<line y1="171" x2="1011" y2="171" stroke="white" stroke-opacity="0.2" stroke-width="2"/>
<line y1="185" x2="1011" y2="185" stroke="white" stroke-opacity="0.2" stroke-width="2"/>
<line y1="199" x2="1011" y2="199" stroke="white" stroke-opacity="0.2" stroke-width="2"/>
<line y1="213" x2="1011" y2="213" stroke="white" stroke-opacity="0.2" stroke-width="2"/>
<line y1="227" x2="1011" y2="227" stroke="white" stroke-opacity="0.2" stroke-width="2"/>
<line y1="241" x2="1011" y2="241" stroke="white" stroke-opacity="0.2" stroke-width="2"/>
<line y1="255" x2="1011" y2="255" stroke="white" stroke-opacity="0.2" stroke-width="2"/>
<line y1="269" x2="1011" y2="269" stroke="white" stroke-opacity="0.2" stroke-width="2"/>
<line y1="283" x2="1011" y2="283" stroke="white" stroke-opacity="0.2" stroke-width="2"/>
<line y1="297" x2="1011" y2="297" stroke="white" stroke-opacity="0.2" stroke-width="2"/>
<line y1="311" x2="1011" y2="311" stroke="white" stroke-opacity="0.2" stroke-width="2"/>
<line y1="325" x2="1011" y2="325" stroke="white" stroke-opacity="0.2" stroke-width="2"/>
<line y1="339" x2="1011" y2="339" stroke="white" stroke-opacity="0.2" stroke-width="2"/>
<line y1="353" x2="1011" y2="353" stroke="white" stroke-opacity="0.2" stroke-width="2"/>
<line y1="367" x2="1011" y2="367" stroke="white" stroke-opacity="0.2" stroke-width="2"/>
<line y1="381" x2="1011" y2="381" stroke="white" stroke-opacity="0.2" stroke-width="2"/>
<line y1="395" x2="1011" y2="395" stroke="white" stroke-opacity="0.2" stroke-width="2"/>
<line y1="409" x2="1011" y2="409" stroke="white" stroke-opacity="0.2" stroke-width="2"/>
<line y1="423" x2="1011" y2="423" stroke="white" stroke-opacity="0.2" stroke-width="2"/>
<line y1="437" x2="1011" y2="437" stroke="white" stroke-opacity="0.2" stroke-width="2"/>
<line y1="451" x2="1011" y2="451" stroke="white" stroke-opacity="0.2" stroke-width="2"/>
<line y1="465" x2="1011" y2="465" stroke="white" stroke-opacity="0.2" stroke-width="2"/>
<line y1="479" x2="1011" y2="479" stroke="white" stroke-opacity="0.2" stroke-width="2"/>
<line y1="493" x2="1011" y2="493" stroke="white" stroke-opacity="0.2" stroke-width="2"/>
<line y1="507" x2="1011" y2="507" stroke="white" stroke-opacity="0.2" stroke-width="2"/>
<line y1="521" x2="1011" y2="521" stroke="white" stroke-opacity="0.2" stroke-width="2"/>
<line y1="535" x2="1011" y2="535" stroke="white" stroke-opacity="0.2" stroke-width="2"/>
<line y1="549" x2="1011" y2="549" stroke="white" stroke-opacity="0.2" stroke-width="2"/>
<line y1="563" x2="1011" y2="563" stroke="white" stroke-opacity="0.2" stroke-width="2"/>
<line y1="577" x2="1011" y2="577" stroke="white" stroke-opacity="0.2" stroke-width="2"/>
<line y1="591" x2="1011" y2="591" stroke="white" stroke-opacity="0.2" stroke-width="2"/>
<line y1="605" x2="1011" y2="605" stroke="white" stroke-opacity="0.2" stroke-width="2"/>
<line y1="619" x2="1011" y2="619" stroke="white" stroke-opacity="0.2" stroke-width="2"/>
<line y1="633" x2="1011" y2="633" stroke="white" stroke-opacity="0.2" stroke-width="2"/>
</g>
<circle cx="94" cy="416.5" r="14" fill="white"/>
<circle cx="132" cy="416.5" r="14" fill="white"/>
<circle cx="170" cy="416.5" r="14" fill="white"/>
<circle cx="208" cy="416.5" r="14" fill="white"/>
<circle cx="284" cy="416.5" r="14" fill="white"/>
<circle cx="322" cy="416.5" r="14" fill="white"/>
<circle cx="360" cy="416.5" r="14" fill="white"/>
<circle cx="398" cy="416.5" r="14" fill="white"/>
<circle cx="474" cy="416.5" r="14" fill="white"/>
<circle cx="512" cy="416.5" r="14" fill="white"/>
<circle cx="550" cy="416.5" r="14" fill="white"/>
<circle cx="588" cy="416.5" r="14" fill="white"/>
<path d="M653.354 415.3C653.354 409.533 654.32 405.033 656.254 401.8C658.22 398.533 661.587 396.9 666.354 396.9C671.12 396.9 674.47 398.533 676.404 401.8C678.37 405.033 679.354 409.533 679.354 415.3C679.354 421.133 678.37 425.7 676.404 429C674.47 432.267 671.12 433.9 666.354 433.9C661.587 433.9 658.22 432.267 656.254 429C654.32 425.7 653.354 421.133 653.354 415.3ZM673.754 415.3C673.754 412.6 673.57 410.317 673.204 408.45C672.87 406.583 672.17 405.067 671.104 403.9C670.037 402.7 668.454 402.1 666.354 402.1C664.254 402.1 662.67 402.7 661.604 403.9C660.537 405.067 659.82 406.583 659.454 408.45C659.12 410.317 658.954 412.6 658.954 415.3C658.954 418.1 659.12 420.45 659.454 422.35C659.787 424.25 660.487 425.783 661.554 426.95C662.654 428.117 664.254 428.7 666.354 428.7C668.454 428.7 670.037 428.117 671.104 426.95C672.204 425.783 672.92 424.25 673.254 422.35C673.587 420.45 673.754 418.1 673.754 415.3ZM690.385 415.3C690.385 409.533 691.351 405.033 693.285 401.8C695.251 398.533 698.618 396.9 703.385 396.9C708.151 396.9 711.501 398.533 713.435 401.8C715.401 405.033 716.385 409.533 716.385 415.3C716.385 421.133 715.401 425.7 713.435 429C711.501 432.267 708.151 433.9 703.385 433.9C698.618 433.9 695.251 432.267 693.285 429C691.351 425.7 690.385 421.133 690.385 415.3ZM710.785 415.3C710.785 412.6 710.601 410.317 710.235 408.45C709.901 406.583 709.201 405.067 708.135 403.9C707.068 402.7 705.485 402.1 703.385 402.1C701.285 402.1 699.701 402.7 698.635 403.9C697.568 405.067 696.851 406.583 696.485 408.45C696.151 410.317 695.985 412.6 695.985 415.3C695.985 418.1 696.151 420.45 696.485 422.35C696.818 424.25 697.518 425.783 698.585 426.95C699.685 428.117 701.285 428.7 703.385 428.7C705.485 428.7 707.068 428.117 708.135 426.95C709.235 425.783 709.951 424.25 710.285 422.35C710.618 420.45 710.785 418.1 710.785 415.3ZM726.716 426.4V422.1L743.516 398H750.416V421.45H755.066V426.4H750.416V434H744.816V426.4H726.716ZM745.066 403.8L733.266 421.45H745.066V403.8ZM767.939 426.25C771.139 423.483 773.656 421.217 775.489 419.45C777.356 417.65 778.906 415.783 780.139 413.85C781.372 411.917 781.989 409.983 781.989 408.05C781.989 406.05 781.506 404.483 780.539 403.35C779.606 402.217 778.122 401.65 776.089 401.65C774.122 401.65 772.589 402.283 771.489 403.55C770.422 404.783 769.856 406.45 769.789 408.55H764.289C764.389 404.75 765.522 401.85 767.689 399.85C769.889 397.817 772.672 396.8 776.039 396.8C779.672 396.8 782.506 397.8 784.539 399.8C786.606 401.8 787.639 404.467 787.639 407.8C787.639 410.2 787.022 412.517 785.789 414.75C784.589 416.95 783.139 418.933 781.439 420.7C779.772 422.433 777.639 424.45 775.039 426.75L772.789 428.75H788.639V433.5H764.339V429.35L767.939 426.25Z" fill="white"/>
<path d="M92.16 542.28C90.2933 542.28 88.6133 541.96 87.12 541.32C85.6267 540.653 84.4533 539.72 83.6 538.52C82.7467 537.32 82.32 535.92 82.32 534.32H87.2C87.3067 535.52 87.7733 536.507 88.6 537.28C89.4533 538.053 90.64 538.44 92.16 538.44C93.7333 538.44 94.96 538.067 95.84 537.32C96.72 536.547 97.16 535.56 97.16 534.36C97.16 533.427 96.88 532.667 96.32 532.08C95.7867 531.493 95.1067 531.04 94.28 530.72C93.48 530.4 92.36 530.053 90.92 529.68C89.1067 529.2 87.6267 528.72 86.48 528.24C85.36 527.733 84.4 526.96 83.6 525.92C82.8 524.88 82.4 523.493 82.4 521.76C82.4 520.16 82.8 518.76 83.6 517.56C84.4 516.36 85.52 515.44 86.96 514.8C88.4 514.16 90.0667 513.84 91.96 513.84C94.6533 513.84 96.8533 514.52 98.56 515.88C100.293 517.213 101.253 519.053 101.44 521.4H96.4C96.32 520.387 95.84 519.52 94.96 518.8C94.08 518.08 92.92 517.72 91.48 517.72C90.1733 517.72 89.1067 518.053 88.28 518.72C87.4533 519.387 87.04 520.347 87.04 521.6C87.04 522.453 87.2933 523.16 87.8 523.72C88.3333 524.253 89 524.68 89.8 525C90.6 525.32 91.6933 525.667 93.08 526.04C94.92 526.547 96.4133 527.053 97.56 527.56C98.7333 528.067 99.72 528.853 100.52 529.92C101.347 530.96 101.76 532.36 101.76 534.12C101.76 535.533 101.373 536.867 100.6 538.12C99.8533 539.373 98.7467 540.387 97.28 541.16C95.84 541.907 94.1333 542.28 92.16 542.28ZM113.301 523.2C114.074 522.187 115.127 521.333 116.461 520.64C117.794 519.947 119.301 519.6 120.981 519.6C122.901 519.6 124.647 520.08 126.221 521.04C127.821 521.973 129.074 523.293 129.981 525C130.887 526.707 131.341 528.667 131.341 530.88C131.341 533.093 130.887 535.08 129.981 536.84C129.074 538.573 127.821 539.933 126.221 540.92C124.647 541.88 122.901 542.36 120.981 542.36C119.301 542.36 117.807 542.027 116.501 541.36C115.194 540.667 114.127 539.813 113.301 538.8V552.48H108.741V519.96H113.301V523.2ZM126.701 530.88C126.701 529.36 126.381 528.053 125.741 526.96C125.127 525.84 124.301 525 123.261 524.44C122.247 523.853 121.154 523.56 119.981 523.56C118.834 523.56 117.741 523.853 116.701 524.44C115.687 525.027 114.861 525.88 114.221 527C113.607 528.12 113.301 529.44 113.301 530.96C113.301 532.48 113.607 533.813 114.221 534.96C114.861 536.08 115.687 536.933 116.701 537.52C117.741 538.107 118.834 538.4 119.981 538.4C121.154 538.4 122.247 538.107 123.261 537.52C124.301 536.907 125.127 536.027 125.741 534.88C126.381 533.733 126.701 532.4 126.701 530.88ZM135.93 530.88C135.93 528.667 136.383 526.707 137.29 525C138.223 523.293 139.477 521.973 141.05 521.04C142.65 520.08 144.41 519.6 146.33 519.6C148.063 519.6 149.57 519.947 150.85 520.64C152.157 521.307 153.197 522.147 153.97 523.16V519.96H158.57V542H153.97V538.72C153.197 539.76 152.143 540.627 150.81 541.32C149.477 542.013 147.957 542.36 146.25 542.36C144.357 542.36 142.623 541.88 141.05 540.92C139.477 539.933 138.223 538.573 137.29 536.84C136.383 535.08 135.93 533.093 135.93 530.88ZM153.97 530.96C153.97 529.44 153.65 528.12 153.01 527C152.397 525.88 151.583 525.027 150.57 524.44C149.557 523.853 148.463 523.56 147.29 523.56C146.117 523.56 145.023 523.853 144.01 524.44C142.997 525 142.17 525.84 141.53 526.96C140.917 528.053 140.61 529.36 140.61 530.88C140.61 532.4 140.917 533.733 141.53 534.88C142.17 536.027 142.997 536.907 144.01 537.52C145.05 538.107 146.143 538.4 147.29 538.4C148.463 538.4 149.557 538.107 150.57 537.52C151.583 536.933 152.397 536.08 153.01 534.96C153.65 533.813 153.97 532.48 153.97 530.96ZM170.199 538.28H180.199V542H164.919V538.28L174.959 523.68H164.919V519.96H180.199V523.68L170.199 538.28ZM188.908 517.04C188.081 517.04 187.388 516.76 186.828 516.2C186.268 515.64 185.988 514.947 185.988 514.12C185.988 513.293 186.268 512.6 186.828 512.04C187.388 511.48 188.081 511.2 188.908 511.2C189.708 511.2 190.388 511.48 190.948 512.04C191.508 512.6 191.788 513.293 191.788 514.12C191.788 514.947 191.508 515.64 190.948 516.2C190.388 516.76 189.708 517.04 188.908 517.04ZM191.148 519.96V542H186.588V519.96H191.148ZM208.294 542.36C206.214 542.36 204.334 541.893 202.654 540.96C200.974 540 199.654 538.667 198.694 536.96C197.734 535.227 197.254 533.227 197.254 530.96C197.254 528.72 197.748 526.733 198.734 525C199.721 523.267 201.068 521.933 202.774 521C204.481 520.067 206.388 519.6 208.494 519.6C210.601 519.6 212.508 520.067 214.214 521C215.921 521.933 217.268 523.267 218.254 525C219.241 526.733 219.734 528.72 219.734 530.96C219.734 533.2 219.228 535.187 218.214 536.92C217.201 538.653 215.814 540 214.054 540.96C212.321 541.893 210.401 542.36 208.294 542.36ZM208.294 538.4C209.468 538.4 210.561 538.12 211.574 537.56C212.614 537 213.454 536.16 214.094 535.04C214.734 533.92 215.054 532.56 215.054 530.96C215.054 529.36 214.748 528.013 214.134 526.92C213.521 525.8 212.708 524.96 211.694 524.4C210.681 523.84 209.588 523.56 208.414 523.56C207.241 523.56 206.148 523.84 205.134 524.4C204.148 524.96 203.361 525.8 202.774 526.92C202.188 528.013 201.894 529.36 201.894 530.96C201.894 533.333 202.494 535.173 203.694 536.48C204.921 537.76 206.454 538.4 208.294 538.4ZM252.713 527.72C254.206 527.987 255.473 528.773 256.513 530.08C257.553 531.387 258.073 532.867 258.073 534.52C258.073 535.933 257.699 537.213 256.953 538.36C256.233 539.48 255.179 540.373 253.793 541.04C252.406 541.68 250.793 542 248.953 542H237.833V514.2H248.433C250.326 514.2 251.953 514.52 253.313 515.16C254.673 515.8 255.699 516.667 256.393 517.76C257.086 518.827 257.433 520.027 257.433 521.36C257.433 522.96 257.006 524.293 256.153 525.36C255.299 526.427 254.153 527.213 252.713 527.72ZM242.393 525.88H248.033C249.526 525.88 250.686 525.547 251.513 524.88C252.366 524.187 252.793 523.2 252.793 521.92C252.793 520.667 252.366 519.693 251.513 519C250.686 518.28 249.526 517.92 248.033 517.92H242.393V525.88ZM248.553 538.28C250.099 538.28 251.313 537.907 252.193 537.16C253.073 536.413 253.513 535.373 253.513 534.04C253.513 532.68 253.046 531.6 252.113 530.8C251.179 530 249.939 529.6 248.393 529.6H242.393V538.28H248.553ZM266.948 517.04C266.121 517.04 265.428 516.76 264.868 516.2C264.308 515.64 264.028 514.947 264.028 514.12C264.028 513.293 264.308 512.6 264.868 512.04C265.428 511.48 266.121 511.2 266.948 511.2C267.748 511.2 268.428 511.48 268.988 512.04C269.548 512.6 269.828 513.293 269.828 514.12C269.828 514.947 269.548 515.64 268.988 516.2C268.428 516.76 267.748 517.04 266.948 517.04ZM269.188 519.96V542H264.628V519.96H269.188ZM275.255 530.88C275.255 528.667 275.708 526.707 276.615 525C277.548 523.293 278.802 521.973 280.375 521.04C281.975 520.08 283.735 519.6 285.655 519.6C287.388 519.6 288.895 519.947 290.175 520.64C291.482 521.307 292.522 522.147 293.295 523.16V519.96H297.895V542H293.295V538.72C292.522 539.76 291.468 540.627 290.135 541.32C288.802 542.013 287.282 542.36 285.575 542.36C283.682 542.36 281.948 541.88 280.375 540.92C278.802 539.933 277.548 538.573 276.615 536.84C275.708 535.08 275.255 533.093 275.255 530.88ZM293.295 530.96C293.295 529.44 292.975 528.12 292.335 527C291.722 525.88 290.908 525.027 289.895 524.44C288.882 523.853 287.788 523.56 286.615 523.56C285.442 523.56 284.348 523.853 283.335 524.44C282.322 525 281.495 525.84 280.855 526.96C280.242 528.053 279.935 529.36 279.935 530.88C279.935 532.4 280.242 533.733 280.855 534.88C281.495 536.027 282.322 536.907 283.335 537.52C284.375 538.107 285.468 538.4 286.615 538.4C287.788 538.4 288.882 538.107 289.895 537.52C290.908 536.933 291.722 536.08 292.335 534.96C292.975 533.813 293.295 532.48 293.295 530.96ZM316.604 519.6C318.338 519.6 319.884 519.96 321.244 520.68C322.631 521.4 323.711 522.467 324.484 523.88C325.258 525.293 325.644 527 325.644 529V542H321.124V529.68C321.124 527.707 320.631 526.2 319.644 525.16C318.658 524.093 317.311 523.56 315.604 523.56C313.898 523.56 312.538 524.093 311.524 525.16C310.538 526.2 310.044 527.707 310.044 529.68V542H305.484V519.96H310.044V522.48C310.791 521.573 311.738 520.867 312.884 520.36C314.058 519.853 315.298 519.6 316.604 519.6ZM331.541 530.96C331.541 528.693 331.994 526.707 332.901 525C333.834 523.267 335.114 521.933 336.741 521C338.368 520.067 340.234 519.6 342.341 519.6C345.008 519.6 347.208 520.24 348.941 521.52C350.701 522.773 351.888 524.573 352.501 526.92H347.581C347.181 525.827 346.541 524.973 345.661 524.36C344.781 523.747 343.674 523.44 342.341 523.44C340.474 523.44 338.981 524.107 337.861 525.44C336.768 526.747 336.221 528.587 336.221 530.96C336.221 533.333 336.768 535.187 337.861 536.52C338.981 537.853 340.474 538.52 342.341 538.52C344.981 538.52 346.728 537.36 347.581 535.04H352.501C351.861 537.28 350.661 539.067 348.901 540.4C347.141 541.707 344.954 542.36 342.341 542.36C340.234 542.36 338.368 541.893 336.741 540.96C335.114 540 333.834 538.667 332.901 536.96C331.994 535.227 331.541 533.227 331.541 530.96ZM368.205 542.36C366.125 542.36 364.245 541.893 362.565 540.96C360.885 540 359.565 538.667 358.605 536.96C357.645 535.227 357.165 533.227 357.165 530.96C357.165 528.72 357.659 526.733 358.645 525C359.632 523.267 360.979 521.933 362.685 521C364.392 520.067 366.299 519.6 368.405 519.6C370.512 519.6 372.419 520.067 374.125 521C375.832 521.933 377.179 523.267 378.165 525C379.152 526.733 379.645 528.72 379.645 530.96C379.645 533.2 379.139 535.187 378.125 536.92C377.112 538.653 375.725 540 373.965 540.96C372.232 541.893 370.312 542.36 368.205 542.36ZM368.205 538.4C369.379 538.4 370.472 538.12 371.485 537.56C372.525 537 373.365 536.16 374.005 535.04C374.645 533.92 374.965 532.56 374.965 530.96C374.965 529.36 374.659 528.013 374.045 526.92C373.432 525.8 372.619 524.96 371.605 524.4C370.592 523.84 369.499 523.56 368.325 523.56C367.152 523.56 366.059 523.84 365.045 524.4C364.059 524.96 363.272 525.8 362.685 526.92C362.099 528.013 361.805 529.36 361.805 530.96C361.805 533.333 362.405 535.173 363.605 536.48C364.832 537.76 366.365 538.4 368.205 538.4Z" fill="white"/>
<path d="M806.687 527.04C806.687 522.427 807.461 518.827 809.007 516.24C810.581 513.627 813.274 512.32 817.087 512.32C820.901 512.32 823.581 513.627 825.127 516.24C826.701 518.827 827.488 522.427 827.488 527.04C827.488 531.707 826.701 535.36 825.127 538C823.581 540.613 820.901 541.92 817.087 541.92C813.274 541.92 810.581 540.613 809.007 538C807.461 535.36 806.687 531.707 806.687 527.04ZM823.007 527.04C823.007 524.88 822.861 523.053 822.567 521.56C822.301 520.067 821.741 518.853 820.887 517.92C820.034 516.96 818.767 516.48 817.087 516.48C815.407 516.48 814.141 516.96 813.287 517.92C812.434 518.853 811.861 520.067 811.567 521.56C811.301 523.053 811.167 524.88 811.167 527.04C811.167 529.28 811.301 531.16 811.567 532.68C811.834 534.2 812.394 535.427 813.247 536.36C814.127 537.293 815.407 537.76 817.087 537.76C818.767 537.76 820.034 537.293 820.887 536.36C821.767 535.427 822.341 534.2 822.607 532.68C822.874 531.16 823.007 529.28 823.007 527.04ZM852.713 516.76H839.312V524.72C839.872 523.973 840.699 523.347 841.792 522.84C842.912 522.333 844.099 522.08 845.352 522.08C847.592 522.08 849.406 522.56 850.792 523.52C852.206 524.48 853.206 525.693 853.793 527.16C854.406 528.627 854.713 530.173 854.713 531.8C854.713 533.773 854.326 535.533 853.552 537.08C852.806 538.6 851.672 539.8 850.152 540.68C848.659 541.56 846.819 542 844.632 542C841.726 542 839.392 541.28 837.632 539.84C835.872 538.4 834.819 536.493 834.472 534.12H838.912C839.206 535.373 839.859 536.373 840.872 537.12C841.886 537.84 843.152 538.2 844.672 538.2C846.566 538.2 847.979 537.627 848.913 536.48C849.872 535.333 850.352 533.813 850.352 531.92C850.352 530 849.872 528.533 848.913 527.52C847.952 526.48 846.539 525.96 844.672 525.96C843.366 525.96 842.259 526.293 841.352 526.96C840.472 527.6 839.832 528.48 839.432 529.6H835.112V512.76H852.713V516.76ZM876.459 504.24L865.579 549H861.099L871.939 504.24H876.459ZM885.726 535.8C888.286 533.587 890.3 531.773 891.766 530.36C893.26 528.92 894.5 527.427 895.486 525.88C896.473 524.333 896.966 522.787 896.966 521.24C896.966 519.64 896.58 518.387 895.806 517.48C895.06 516.573 893.873 516.12 892.246 516.12C890.673 516.12 889.446 516.627 888.566 517.64C887.713 518.627 887.26 519.96 887.206 521.64H882.806C882.886 518.6 883.793 516.28 885.526 514.68C887.286 513.053 889.513 512.24 892.206 512.24C895.113 512.24 897.38 513.04 899.006 514.64C900.66 516.24 901.486 518.373 901.486 521.04C901.486 522.96 900.993 524.813 900.006 526.6C899.046 528.36 897.886 529.947 896.526 531.36C895.193 532.747 893.486 534.36 891.406 536.2L889.606 537.8H902.286V541.6H882.846V538.28L885.726 535.8ZM912.812 526.76C910.039 525.373 908.652 523.187 908.652 520.2C908.652 518.76 909.012 517.44 909.732 516.24C910.452 515.04 911.532 514.093 912.972 513.4C914.412 512.68 916.172 512.32 918.252 512.32C920.306 512.32 922.052 512.68 923.492 513.4C924.959 514.093 926.052 515.04 926.772 516.24C927.492 517.44 927.852 518.76 927.852 520.2C927.852 521.693 927.466 523.013 926.692 524.16C925.946 525.28 924.946 526.147 923.692 526.76C925.212 527.32 926.412 528.24 927.292 529.52C928.172 530.773 928.612 532.253 928.612 533.96C928.612 535.693 928.172 537.227 927.292 538.56C926.412 539.893 925.186 540.92 923.612 541.64C922.039 542.36 920.252 542.72 918.252 542.72C916.252 542.72 914.466 542.36 912.892 541.64C911.346 540.92 910.132 539.893 909.252 538.56C908.372 537.227 907.932 535.693 907.932 533.96C907.932 532.227 908.372 530.733 909.252 529.48C910.132 528.227 911.319 527.32 912.812 526.76ZM923.492 520.76C923.492 519.267 923.026 518.12 922.092 517.32C921.159 516.52 919.879 516.12 918.252 516.12C916.652 516.12 915.386 516.52 914.452 517.32C913.519 518.12 913.052 519.28 913.052 520.8C913.052 522.133 913.532 523.227 914.492 524.08C915.479 524.907 916.732 525.32 918.252 525.32C919.772 525.32 921.026 524.893 922.012 524.04C922.999 523.187 923.492 522.093 923.492 520.76ZM918.252 528.76C916.492 528.76 915.052 529.2 913.932 530.08C912.839 530.933 912.292 532.173 912.292 533.8C912.292 535.32 912.826 536.56 913.892 537.52C914.959 538.453 916.412 538.92 918.252 538.92C920.066 538.92 921.492 538.44 922.532 537.48C923.599 536.52 924.132 535.293 924.132 533.8C924.132 532.2 923.586 530.96 922.492 530.08C921.426 529.2 920.012 528.76 918.252 528.76Z" fill="white"/>
<g clip-path="url(#clip2_181_2568)">
<path d="M119.573 114.546C119.727 112.37 119.149 110.685 117.84 109.491C116.549 108.297 114.508 107.7 111.716 107.7C109.867 107.7 108.288 107.941 106.979 108.422C105.669 108.885 104.639 109.539 103.888 110.387C103.137 111.215 102.665 112.178 102.473 113.275C102.299 114.142 102.348 114.912 102.617 115.586C102.887 116.26 103.358 116.857 104.032 117.377C104.726 117.897 105.583 118.349 106.603 118.735C107.643 119.12 108.808 119.457 110.098 119.745L114.951 120.901C117.763 121.536 120.199 122.384 122.259 123.443C124.339 124.483 126.024 125.744 127.314 127.227C128.604 128.69 129.49 130.375 129.971 132.282C130.453 134.188 130.491 136.326 130.087 138.694C129.471 142.43 127.998 145.636 125.668 148.313C123.357 150.99 120.333 153.04 116.598 154.466C112.881 155.89 108.558 156.603 103.628 156.603C98.6983 156.603 94.51 155.862 91.063 154.379C87.6353 152.877 85.1511 150.614 83.6106 147.591C82.07 144.568 81.656 140.755 82.3685 136.152H96.0312C95.8194 138.059 96.0601 139.647 96.7534 140.918C97.4659 142.189 98.5635 143.152 100.046 143.807C101.529 144.462 103.32 144.789 105.419 144.789C107.345 144.789 109.03 144.529 110.474 144.009C111.937 143.489 113.102 142.767 113.969 141.843C114.855 140.918 115.394 139.859 115.587 138.665C115.779 137.568 115.596 136.614 115.038 135.806C114.499 134.997 113.574 134.294 112.265 133.697C110.975 133.1 109.28 132.561 107.181 132.08L101.259 130.635C96.3682 129.441 92.6613 127.535 90.1387 124.916C87.6353 122.297 86.7495 118.744 87.4812 114.257C88.0974 110.579 89.6187 107.363 92.0451 104.61C94.4907 101.856 97.5814 99.7184 101.317 98.1971C105.072 96.6565 109.203 95.8863 113.709 95.8863C118.292 95.8863 122.143 96.6662 125.263 98.226C128.402 99.7665 130.665 101.943 132.051 104.754C133.457 107.546 133.861 110.81 133.264 114.546H119.573ZM163.84 136.701L168.057 111.484H182.153L174.758 155.852H161.298L162.656 147.591H162.193C160.826 150.306 158.814 152.463 156.156 154.061C153.499 155.64 150.505 156.43 147.173 156.43C144.15 156.43 141.608 155.736 139.547 154.35C137.487 152.963 136.023 151.028 135.157 148.544C134.31 146.041 134.155 143.114 134.695 139.763L139.432 111.484H153.557L149.311 136.99C148.945 139.397 149.262 141.294 150.264 142.68C151.284 144.067 152.883 144.76 155.059 144.76C156.465 144.76 157.784 144.452 159.016 143.836C160.249 143.2 161.288 142.286 162.136 141.092C163.002 139.878 163.57 138.415 163.84 136.701ZM178.622 172.49L188.848 111.484H202.828L201.586 119.081H202.019C202.79 117.733 203.81 116.433 205.081 115.182C206.372 113.93 207.922 112.909 209.732 112.12C211.542 111.311 213.612 110.907 215.942 110.907C219.023 110.907 221.767 111.715 224.174 113.333C226.582 114.951 228.334 117.444 229.431 120.814C230.529 124.184 230.645 128.478 229.778 133.697C228.95 138.723 227.448 142.931 225.272 146.32C223.115 149.709 220.554 152.251 217.589 153.946C214.623 155.64 211.513 156.487 208.259 156.487C206.025 156.487 204.138 156.122 202.597 155.39C201.076 154.658 199.872 153.695 198.986 152.501C198.101 151.307 197.485 150.027 197.138 148.66H196.734L192.805 172.49H178.622ZM198.986 133.668C198.601 136.056 198.582 138.136 198.929 139.907C199.275 141.679 199.978 143.056 201.037 144.038C202.116 145.001 203.512 145.482 205.226 145.482C206.959 145.482 208.499 145.001 209.847 144.038C211.215 143.056 212.36 141.679 213.285 139.907C214.209 138.136 214.883 136.056 215.307 133.668C215.673 131.28 215.682 129.21 215.336 127.458C215.008 125.705 214.325 124.348 213.285 123.385C212.245 122.422 210.849 121.941 209.096 121.941C207.382 121.941 205.823 122.413 204.417 123.356C203.031 124.3 201.875 125.648 200.951 127.4C200.026 129.152 199.372 131.242 198.986 133.668ZM231.057 155.852L238.452 111.484H252.172L250.814 119.572H251.277C252.567 116.645 254.252 114.469 256.332 113.044C258.411 111.6 260.664 110.878 263.091 110.878C263.745 110.878 264.4 110.926 265.055 111.022C265.729 111.099 266.364 111.215 266.961 111.369L264.881 123.674C264.227 123.423 263.37 123.241 262.311 123.125C261.252 122.99 260.289 122.923 259.422 122.923C257.747 122.923 256.187 123.298 254.743 124.049C253.318 124.781 252.105 125.811 251.103 127.14C250.121 128.449 249.476 129.99 249.168 131.762L245.182 155.852H231.057ZM281.173 156.69C276.532 156.69 272.681 155.775 269.619 153.946C266.577 152.097 264.439 149.468 263.207 146.06C261.974 142.632 261.753 138.559 262.542 133.841C263.313 129.258 264.882 125.253 267.251 121.825C269.638 118.378 272.643 115.702 276.263 113.795C279.883 111.869 283.917 110.907 288.367 110.907C291.525 110.907 294.325 111.398 296.771 112.38C299.217 113.362 301.239 114.825 302.837 116.77C304.435 118.696 305.523 121.065 306.101 123.876C306.678 126.687 306.66 129.913 306.044 133.553L305.495 137.076H266.962L268.262 128.873H293.68C293.912 127.371 293.786 126.033 293.306 124.858C292.824 123.684 292.043 122.769 290.965 122.114C289.906 121.44 288.607 121.103 287.065 121.103C285.505 121.103 284.043 121.469 282.675 122.201C281.327 122.913 280.182 123.876 279.238 125.089C278.295 126.302 277.678 127.67 277.389 129.191L275.859 137.596C275.55 139.464 275.637 141.063 276.118 142.392C276.6 143.72 277.428 144.741 278.603 145.453C279.777 146.147 281.289 146.493 283.138 146.493C284.371 146.493 285.526 146.329 286.603 146.002C287.681 145.656 288.645 145.145 289.493 144.471C290.359 143.778 291.061 142.94 291.602 141.958L304.484 142.334C303.443 145.241 301.837 147.774 299.661 149.931C297.485 152.068 294.827 153.734 291.687 154.928C288.568 156.102 285.064 156.69 281.173 156.69ZM307.207 155.852L314.601 111.484H328.032L326.704 119.63H327.195C328.543 116.934 330.45 114.806 332.915 113.246C335.379 111.686 338.133 110.907 341.175 110.907C344.237 110.907 346.731 111.696 348.656 113.275C350.602 114.854 351.652 116.973 351.806 119.63H352.268C353.539 116.992 355.503 114.883 358.161 113.304C360.837 111.706 363.822 110.907 367.115 110.907C371.275 110.907 374.441 112.255 376.617 114.951C378.813 117.627 379.517 121.305 378.726 125.985L373.758 155.852H359.662L364.168 129.22C364.477 127.005 364.15 125.32 363.186 124.165C362.242 122.99 360.866 122.403 359.056 122.403C357.112 122.403 355.483 123.029 354.173 124.28C352.884 125.532 352.085 127.227 351.776 129.364L347.3 155.852H333.694L338.23 129.075C338.519 127.015 338.2 125.388 337.277 124.194C336.372 123 334.995 122.403 333.147 122.403C331.933 122.403 330.806 122.701 329.767 123.298C328.726 123.876 327.849 124.704 327.138 125.783C326.444 126.861 325.993 128.132 325.779 129.595L321.332 155.852H307.207ZM400.609 156.69C395.966 156.69 392.115 155.775 389.054 153.946C386.01 152.097 383.873 149.468 382.641 146.06C381.408 142.632 381.187 138.559 381.978 133.841C382.746 129.258 384.316 125.253 386.685 121.825C389.073 118.378 392.076 115.702 395.698 113.795C399.317 111.869 403.352 110.907 407.799 110.907C410.957 110.907 413.759 111.398 416.206 112.38C418.652 113.362 420.673 114.825 422.272 116.77C423.87 118.696 424.958 121.065 425.536 123.876C426.113 126.687 426.095 129.913 425.479 133.553L424.93 137.076H386.396L387.696 128.873H413.115C413.347 127.371 413.221 126.033 412.739 124.858C412.259 123.684 411.478 122.769 410.4 122.114C409.341 121.44 408.041 121.103 406.5 121.103C404.94 121.103 403.476 121.469 402.109 122.201C400.761 122.913 399.616 123.876 398.673 125.089C397.729 126.302 397.113 127.67 396.824 129.191L395.293 137.596C394.984 139.464 395.071 141.063 395.553 142.392C396.033 143.72 396.863 144.741 398.036 145.453C399.212 146.147 400.723 146.493 402.571 146.493C403.803 146.493 404.96 146.329 406.038 146.002C407.116 145.656 408.08 145.145 408.926 144.471C409.794 143.778 410.496 142.94 411.035 141.958L423.919 142.334C422.878 145.241 421.269 147.774 419.093 149.931C416.918 152.068 414.262 153.734 411.122 154.928C408.003 156.102 404.497 156.69 400.609 156.69ZM434.93 156.69C432.832 156.69 431.118 155.958 429.79 154.494C428.462 153.031 427.882 151.259 428.057 149.18C428.248 147.138 429.153 145.396 430.772 143.951C432.389 142.507 434.237 141.785 436.317 141.785C438.302 141.785 439.967 142.507 441.316 143.951C442.682 145.396 443.27 147.138 443.077 149.18C442.961 150.566 442.489 151.827 441.661 152.963C440.852 154.1 439.852 155.005 438.658 155.679C437.464 156.353 436.222 156.69 434.93 156.69Z" fill="white"/>
</g>
<g clip-path="url(#clip3_181_2568)">
<path d="M808.166 164.134H793.18L802.554 106.053H817.539L808.166 164.134Z" fill="white"/>
<path d="M862.493 107.473C859.537 106.298 854.849 105 849.052 105C834.252 105 823.83 112.909 823.767 124.215C823.644 132.558 831.228 137.191 836.901 139.973C842.699 142.815 844.67 144.67 844.67 147.204C844.611 151.095 839.985 152.888 835.67 152.888C829.687 152.888 826.481 151.964 821.609 149.799L819.635 148.871L817.538 161.909C821.053 163.514 827.529 164.938 834.252 165C849.977 165 860.214 157.214 860.335 145.165C860.395 138.553 856.39 133.486 847.756 129.347C842.514 126.689 839.304 124.897 839.304 122.178C839.366 119.706 842.019 117.174 847.936 117.174C852.808 117.05 856.388 118.224 859.1 119.398L860.455 120.015L862.493 107.473V107.473Z" fill="white"/>
<path d="M882.411 143.558C883.645 140.221 888.394 127.307 888.394 127.307C888.332 127.431 889.626 123.909 890.366 121.747L891.414 126.751C891.414 126.751 894.251 140.654 894.868 143.558C892.526 143.558 885.371 143.558 882.411 143.558ZM900.91 106.053H889.318C885.743 106.053 883.028 107.102 881.485 110.872L859.225 164.134H874.95C874.95 164.134 877.538 156.965 878.095 155.421C879.82 155.421 895.117 155.421 897.336 155.421C897.766 157.46 899.124 164.134 899.124 164.134H913L900.91 106.053V106.053Z" fill="white"/>
<path d="M780.663 106.053L765.987 145.659L764.383 137.626C761.669 128.358 753.16 118.288 743.663 113.281L757.106 164.073H772.954L796.51 106.053H780.663V106.053Z" fill="white"/>
<path d="M752.358 106.053H728.247L728 107.226C746.808 112.046 759.265 123.664 764.383 137.629L759.141 110.935C758.278 107.226 755.626 106.175 752.358 106.053Z" fill="white"/>
</g>
</g>
<defs>
<filter id="filter0_f_181_2568" x="273" y="-194" width="893" height="893" filterUnits="userSpaceOnUse" color-interpolation-filters="sRGB">
<feFlood flood-opacity="0" result="BackgroundImageFix"/>
<feBlend mode="normal" in="SourceGraphic" in2="BackgroundImageFix" result="shape"/>
<feGaussianBlur stdDeviation="97" result="effect1_foregroundBlur_181_2568"/>
</filter>
<filter id="filter1_f_181_2568" x="-273" y="-380" width="893" height="893" filterUnits="userSpaceOnUse" color-interpolation-filters="sRGB">
<feFlood flood-opacity="0" result="BackgroundImageFix"/>
<feBlend mode="normal" in="SourceGraphic" in2="BackgroundImageFix" result="shape"/>
<feGaussianBlur stdDeviation="97" result="effect1_foregroundBlur_181_2568"/>
</filter>
<filter id="filter2_f_181_2568" x="560" y="117" width="893" height="893" filterUnits="userSpaceOnUse" color-interpolation-filters="sRGB">
<feFlood flood-opacity="0" result="BackgroundImageFix"/>
<feBlend mode="normal" in="SourceGraphic" in2="BackgroundImageFix" result="shape"/>
<feGaussianBlur stdDeviation="97" result="effect1_foregroundBlur_181_2568"/>
</filter>
<filter id="filter3_f_181_2568" x="-98" y="230" width="938" height="938" filterUnits="userSpaceOnUse" color-interpolation-filters="sRGB">
<feFlood flood-opacity="0" result="BackgroundImageFix"/>
<feBlend mode="normal" in="SourceGraphic" in2="BackgroundImageFix" result="shape"/>
<feGaussianBlur stdDeviation="97" result="effect1_foregroundBlur_181_2568"/>
</filter>
<linearGradient id="paint0_linear_181_2568" x1="814.417" y1="53.1666" x2="467.851" y2="762.527" gradientUnits="userSpaceOnUse">
<stop stop-color="#35C3F3"/>
<stop offset="0.223958" stop-color="#33D7E2"/>
<stop offset="0.517469" stop-color="#31F2CC"/>
<stop offset="0.765625" stop-color="#89F97D"/>
<stop offset="1" stop-color="#DDFF33"/>
</linearGradient>
<clipPath id="clip0_181_2568">
<rect width="1011" height="638" rx="38" fill="white"/>
</clipPath>
<clipPath id="clip1_181_2568">
<rect width="1011" height="638" rx="38" fill="white"/>
</clipPath>
<clipPath id="clip2_181_2568">
<rect width="387" height="110" fill="white" transform="translate(80 80)"/>
</clipPath>
<clipPath id="clip3_181_2568">
<rect width="185" height="60" fill="white" transform="translate(728 105)"/>
</clipPath>
</defs>
</svg>
