<svg width="480" height="417" viewBox="0 0 480 417" fill="none" xmlns="http://www.w3.org/2000/svg">
<g clip-path="url(#clip0_186_3645)">
<rect width="480" height="417" rx="12" fill="white"/>
<rect width="480" height="97" fill="white"/>
<rect width="480" height="76" fill="white"/>
<g filter="url(#filter0_d_186_3645)">
<rect x="24" y="24" width="48" height="48" rx="10" fill="white"/>
<path d="M52 54L54 56L58 52M48 51H44C42.1362 51 41.2044 51 40.4693 51.3045C39.4892 51.7105 38.7105 52.4892 38.3045 53.4693C38 54.2044 38 55.1362 38 57M51.5 39.2908C52.9659 39.8841 54 41.3213 54 43C54 44.6787 52.9659 46.1159 51.5 46.7092M49.5 43C49.5 45.2091 47.7091 47 45.5 47C43.2909 47 41.5 45.2091 41.5 43C41.5 40.7909 43.2909 39 45.5 39C47.7091 39 49.5 40.7909 49.5 43Z" stroke="#344054" stroke-width="2" stroke-linecap="round" stroke-linejoin="round"/>
<rect x="24.5" y="24.5" width="47" height="47" rx="9.5" stroke="#E4E7EC"/>
</g>
<path d="M89.2912 45V31.9091H94.2003C95.206 31.9091 96.0497 32.0966 96.7315 32.4716C97.4176 32.8466 97.9354 33.3622 98.2848 34.0185C98.6385 34.6705 98.8153 35.4119 98.8153 36.2429C98.8153 37.0824 98.6385 37.8281 98.2848 38.4801C97.9311 39.1321 97.4091 39.6456 96.7188 40.0206C96.0284 40.3913 95.1783 40.5767 94.1683 40.5767H90.9148V38.6271H93.8487C94.4368 38.6271 94.9183 38.5249 95.2933 38.3203C95.6683 38.1158 95.9453 37.8345 96.1243 37.4766C96.3075 37.1186 96.3991 36.7074 96.3991 36.2429C96.3991 35.7784 96.3075 35.3693 96.1243 35.0156C95.9453 34.6619 95.6662 34.3871 95.2869 34.1911C94.9119 33.9908 94.4283 33.8906 93.8359 33.8906H91.6626V45H89.2912ZM107.031 40.8707V35.1818H109.345V45H107.101V43.255H106.999C106.777 43.8047 106.413 44.2543 105.906 44.6037C105.403 44.9531 104.783 45.1278 104.046 45.1278C103.402 45.1278 102.833 44.9851 102.339 44.6996C101.849 44.4098 101.465 43.9901 101.188 43.4403C100.911 42.8864 100.773 42.2173 100.773 41.4332V35.1818H103.087V41.0753C103.087 41.6974 103.257 42.1918 103.598 42.5582C103.939 42.9247 104.387 43.108 104.941 43.108C105.281 43.108 105.612 43.0249 105.931 42.8587C106.251 42.6925 106.513 42.4453 106.718 42.1172C106.926 41.7848 107.031 41.3693 107.031 40.8707ZM111.724 45V35.1818H113.968V36.8182H114.07C114.249 36.2514 114.556 35.8146 114.99 35.5078C115.429 35.1967 115.93 35.0412 116.493 35.0412C116.62 35.0412 116.763 35.0476 116.921 35.0604C117.083 35.0689 117.217 35.0838 117.324 35.1051V37.2337C117.225 37.1996 117.07 37.1697 116.857 37.1442C116.648 37.1143 116.446 37.0994 116.25 37.0994C115.828 37.0994 115.449 37.1911 115.112 37.3743C114.779 37.5533 114.517 37.8026 114.326 38.1222C114.134 38.4418 114.038 38.8104 114.038 39.228V45H111.724ZM122.739 45.1918C121.759 45.1918 120.917 44.9766 120.214 44.5462C119.515 44.1158 118.976 43.5213 118.597 42.7628C118.222 42 118.035 41.1222 118.035 40.1293C118.035 39.1321 118.226 38.2521 118.61 37.4893C118.993 36.7223 119.535 36.1257 120.233 35.6996C120.937 35.2692 121.768 35.054 122.726 35.054C123.523 35.054 124.229 35.201 124.842 35.495C125.46 35.7848 125.952 36.196 126.319 36.7287C126.685 37.2571 126.894 37.875 126.945 38.5824H124.733C124.644 38.1094 124.431 37.7152 124.094 37.3999C123.762 37.0803 123.317 36.9205 122.758 36.9205C122.285 36.9205 121.87 37.0483 121.512 37.304C121.154 37.5554 120.875 37.9176 120.675 38.3906C120.479 38.8636 120.381 39.4304 120.381 40.0909C120.381 40.7599 120.479 41.3352 120.675 41.8168C120.871 42.294 121.145 42.6626 121.499 42.9226C121.857 43.1783 122.277 43.3061 122.758 43.3061C123.099 43.3061 123.404 43.2422 123.672 43.1143C123.945 42.9822 124.173 42.7926 124.356 42.5455C124.54 42.2983 124.665 41.9979 124.733 41.6442H126.945C126.89 42.3388 126.685 42.9545 126.331 43.4915C125.978 44.0241 125.496 44.4418 124.887 44.7443C124.278 45.0426 123.562 45.1918 122.739 45.1918ZM131.159 39.2472V45H128.845V31.9091H131.108V36.8501H131.223C131.453 36.2962 131.809 35.8594 132.29 35.5398C132.776 35.2159 133.394 35.054 134.144 35.054C134.826 35.054 135.42 35.1967 135.928 35.4822C136.435 35.7678 136.827 36.1854 137.104 36.7351C137.385 37.2848 137.526 37.956 137.526 38.7486V45H135.212V39.1065C135.212 38.446 135.041 37.9325 134.7 37.5661C134.364 37.1953 133.891 37.0099 133.281 37.0099C132.872 37.0099 132.506 37.0994 132.182 37.2784C131.862 37.4531 131.611 37.7067 131.428 38.0391C131.249 38.3714 131.159 38.7741 131.159 39.2472ZM142.71 45.1982C142.087 45.1982 141.527 45.0874 141.028 44.8658C140.534 44.6399 140.142 44.3075 139.852 43.8686C139.567 43.4297 139.424 42.8885 139.424 42.245C139.424 41.6911 139.526 41.233 139.731 40.8707C139.935 40.5085 140.214 40.2188 140.568 40.0014C140.922 39.7841 141.32 39.62 141.763 39.5092C142.211 39.3942 142.673 39.3111 143.151 39.2599C143.726 39.2003 144.192 39.147 144.55 39.1001C144.908 39.049 145.168 38.9723 145.33 38.87C145.496 38.7635 145.58 38.5994 145.58 38.3778V38.3395C145.58 37.858 145.437 37.4851 145.151 37.2209C144.866 36.9567 144.455 36.8246 143.918 36.8246C143.351 36.8246 142.901 36.9482 142.569 37.1953C142.241 37.4425 142.019 37.7344 141.904 38.071L139.744 37.7642C139.914 37.1676 140.195 36.669 140.587 36.2685C140.979 35.8636 141.459 35.5611 142.026 35.3608C142.592 35.1562 143.219 35.054 143.905 35.054C144.378 35.054 144.849 35.1094 145.317 35.2202C145.786 35.331 146.214 35.5142 146.602 35.7699C146.99 36.0213 147.301 36.3643 147.536 36.799C147.774 37.2337 147.893 37.777 147.893 38.429V45H145.669V43.6513H145.592C145.452 43.924 145.254 44.1797 144.998 44.4183C144.746 44.6527 144.429 44.8423 144.045 44.9872C143.666 45.1278 143.221 45.1982 142.71 45.1982ZM143.31 43.4979C143.775 43.4979 144.178 43.4062 144.518 43.223C144.859 43.0355 145.121 42.7884 145.305 42.4815C145.492 42.1747 145.586 41.8402 145.586 41.478V40.321C145.513 40.3807 145.39 40.4361 145.215 40.4872C145.045 40.5384 144.853 40.5831 144.64 40.6214C144.427 40.6598 144.216 40.6939 144.007 40.7237C143.798 40.7536 143.617 40.7791 143.464 40.8004C143.119 40.8473 142.81 40.924 142.537 41.0305C142.264 41.1371 142.049 41.2862 141.891 41.478C141.734 41.6655 141.655 41.9084 141.655 42.2067C141.655 42.6328 141.81 42.9545 142.121 43.1719C142.433 43.3892 142.829 43.4979 143.31 43.4979ZM157.98 37.777L155.871 38.0071C155.811 37.794 155.707 37.5938 155.558 37.4062C155.413 37.2188 155.217 37.0675 154.969 36.9524C154.722 36.8374 154.42 36.7798 154.062 36.7798C153.58 36.7798 153.175 36.8842 152.847 37.093C152.523 37.3018 152.364 37.5724 152.368 37.9048C152.364 38.1903 152.468 38.4226 152.681 38.6016C152.898 38.7805 153.256 38.9276 153.755 39.0426L155.43 39.4006C156.359 39.6009 157.049 39.9183 157.501 40.353C157.957 40.7876 158.187 41.3565 158.191 42.0597C158.187 42.6776 158.006 43.223 157.648 43.696C157.294 44.1648 156.802 44.5312 156.171 44.7955C155.54 45.0597 154.816 45.1918 153.998 45.1918C152.796 45.1918 151.829 44.9403 151.096 44.4375C150.363 43.9304 149.926 43.2251 149.786 42.3217L152.042 42.1044C152.144 42.5476 152.362 42.8821 152.694 43.108C153.026 43.3338 153.459 43.4467 153.991 43.4467C154.541 43.4467 154.982 43.3338 155.315 43.108C155.651 42.8821 155.82 42.603 155.82 42.2706C155.82 41.9893 155.711 41.7571 155.494 41.5739C155.281 41.3906 154.948 41.25 154.496 41.152L152.822 40.8004C151.88 40.6044 151.183 40.2741 150.732 39.8097C150.28 39.3409 150.056 38.7486 150.06 38.0327C150.056 37.4276 150.22 36.9034 150.553 36.4602C150.889 36.0128 151.356 35.6676 151.952 35.4247C152.553 35.1776 153.246 35.054 154.03 35.054C155.18 35.054 156.086 35.299 156.746 35.7891C157.411 36.2791 157.822 36.9418 157.98 37.777ZM164.446 45.1918C163.461 45.1918 162.611 44.9872 161.895 44.5781C161.184 44.1648 160.636 43.581 160.252 42.8267C159.869 42.0682 159.677 41.1754 159.677 40.1484C159.677 39.1385 159.869 38.2521 160.252 37.4893C160.64 36.7223 161.181 36.1257 161.876 35.6996C162.571 35.2692 163.387 35.054 164.324 35.054C164.929 35.054 165.5 35.152 166.037 35.348C166.578 35.5398 167.056 35.8381 167.469 36.2429C167.887 36.6477 168.215 37.1634 168.453 37.7898C168.692 38.4119 168.811 39.1534 168.811 40.0142V40.7237H160.764V39.1641H166.593C166.589 38.7209 166.493 38.3267 166.306 37.9815C166.118 37.6321 165.856 37.3572 165.52 37.157C165.187 36.9567 164.799 36.8565 164.356 36.8565C163.883 36.8565 163.468 36.9716 163.11 37.2017C162.752 37.4276 162.473 37.7259 162.272 38.0966C162.076 38.4631 161.976 38.8658 161.972 39.3047V40.6662C161.972 41.2372 162.076 41.7273 162.285 42.1364C162.494 42.5412 162.786 42.8523 163.161 43.0696C163.536 43.2827 163.975 43.3892 164.478 43.3892C164.814 43.3892 165.119 43.3423 165.392 43.2486C165.664 43.1506 165.901 43.0078 166.101 42.8203C166.301 42.6328 166.453 42.4006 166.555 42.1236L168.716 42.3665C168.579 42.9375 168.319 43.4361 167.936 43.8622C167.556 44.2841 167.071 44.6122 166.478 44.8466C165.886 45.0767 165.208 45.1918 164.446 45.1918ZM182.994 37.777L180.884 38.0071C180.825 37.794 180.72 37.5938 180.571 37.4062C180.426 37.2188 180.23 37.0675 179.983 36.9524C179.736 36.8374 179.433 36.7798 179.075 36.7798C178.594 36.7798 178.189 36.8842 177.861 37.093C177.537 37.3018 177.377 37.5724 177.382 37.9048C177.377 38.1903 177.482 38.4226 177.695 38.6016C177.912 38.7805 178.27 38.9276 178.769 39.0426L180.443 39.4006C181.372 39.6009 182.063 39.9183 182.514 40.353C182.97 40.7876 183.2 41.3565 183.205 42.0597C183.2 42.6776 183.019 43.223 182.661 43.696C182.308 44.1648 181.816 44.5312 181.185 44.7955C180.554 45.0597 179.83 45.1918 179.012 45.1918C177.81 45.1918 176.843 44.9403 176.11 44.4375C175.377 43.9304 174.94 43.2251 174.799 42.3217L177.056 42.1044C177.158 42.5476 177.375 42.8821 177.708 43.108C178.04 43.3338 178.472 43.4467 179.005 43.4467C179.555 43.4467 179.996 43.3338 180.328 43.108C180.665 42.8821 180.833 42.603 180.833 42.2706C180.833 41.9893 180.725 41.7571 180.507 41.5739C180.294 41.3906 179.962 41.25 179.51 41.152L177.835 40.8004C176.894 40.6044 176.197 40.2741 175.745 39.8097C175.294 39.3409 175.07 38.7486 175.074 38.0327C175.07 37.4276 175.234 36.9034 175.566 36.4602C175.903 36.0128 176.369 35.6676 176.966 35.4247C177.567 35.1776 178.259 35.054 179.044 35.054C180.194 35.054 181.1 35.299 181.76 35.7891C182.425 36.2791 182.836 36.9418 182.994 37.777ZM189.459 45.1918C188.475 45.1918 187.625 44.9872 186.909 44.5781C186.197 44.1648 185.65 43.581 185.266 42.8267C184.883 42.0682 184.691 41.1754 184.691 40.1484C184.691 39.1385 184.883 38.2521 185.266 37.4893C185.654 36.7223 186.195 36.1257 186.89 35.6996C187.584 35.2692 188.4 35.054 189.338 35.054C189.943 35.054 190.514 35.152 191.051 35.348C191.592 35.5398 192.069 35.8381 192.483 36.2429C192.9 36.6477 193.229 37.1634 193.467 37.7898C193.706 38.4119 193.825 39.1534 193.825 40.0142V40.7237H185.778V39.1641H191.607C191.603 38.7209 191.507 38.3267 191.319 37.9815C191.132 37.6321 190.87 37.3572 190.533 37.157C190.201 36.9567 189.813 36.8565 189.37 36.8565C188.897 36.8565 188.481 36.9716 188.123 37.2017C187.765 37.4276 187.486 37.7259 187.286 38.0966C187.09 38.4631 186.99 38.8658 186.986 39.3047V40.6662C186.986 41.2372 187.09 41.7273 187.299 42.1364C187.508 42.5412 187.8 42.8523 188.175 43.0696C188.55 43.2827 188.988 43.3892 189.491 43.3892C189.828 43.3892 190.133 43.3423 190.405 43.2486C190.678 43.1506 190.915 43.0078 191.115 42.8203C191.315 42.6328 191.466 42.4006 191.569 42.1236L193.729 42.3665C193.593 42.9375 193.333 43.4361 192.949 43.8622C192.57 44.2841 192.084 44.6122 191.492 44.8466C190.9 45.0767 190.222 45.1918 189.459 45.1918ZM198.608 45.1982C197.986 45.1982 197.425 45.0874 196.927 44.8658C196.433 44.6399 196.04 44.3075 195.751 43.8686C195.465 43.4297 195.322 42.8885 195.322 42.245C195.322 41.6911 195.425 41.233 195.629 40.8707C195.834 40.5085 196.113 40.2188 196.467 40.0014C196.82 39.7841 197.219 39.62 197.662 39.5092C198.109 39.3942 198.572 39.3111 199.049 39.2599C199.624 39.2003 200.091 39.147 200.449 39.1001C200.807 39.049 201.067 38.9723 201.229 38.87C201.395 38.7635 201.478 38.5994 201.478 38.3778V38.3395C201.478 37.858 201.335 37.4851 201.05 37.2209C200.764 36.9567 200.353 36.8246 199.816 36.8246C199.249 36.8246 198.8 36.9482 198.467 37.1953C198.139 37.4425 197.918 37.7344 197.803 38.071L195.642 37.7642C195.813 37.1676 196.094 36.669 196.486 36.2685C196.878 35.8636 197.357 35.5611 197.924 35.3608C198.491 35.1562 199.117 35.054 199.803 35.054C200.276 35.054 200.747 35.1094 201.216 35.2202C201.685 35.331 202.113 35.5142 202.501 35.7699C202.888 36.0213 203.2 36.3643 203.434 36.799C203.673 37.2337 203.792 37.777 203.792 38.429V45H201.567V43.6513H201.491C201.35 43.924 201.152 44.1797 200.896 44.4183C200.645 44.6527 200.327 44.8423 199.944 44.9872C199.565 45.1278 199.119 45.1982 198.608 45.1982ZM199.209 43.4979C199.673 43.4979 200.076 43.4062 200.417 43.223C200.758 43.0355 201.02 42.7884 201.203 42.4815C201.391 42.1747 201.484 41.8402 201.484 41.478V40.321C201.412 40.3807 201.288 40.4361 201.114 40.4872C200.943 40.5384 200.751 40.5831 200.538 40.6214C200.325 40.6598 200.114 40.6939 199.906 40.7237C199.697 40.7536 199.516 40.7791 199.362 40.8004C199.017 40.8473 198.708 40.924 198.435 41.0305C198.163 41.1371 197.947 41.2862 197.79 41.478C197.632 41.6655 197.553 41.9084 197.553 42.2067C197.553 42.6328 197.709 42.9545 198.02 43.1719C198.331 43.3892 198.727 43.4979 199.209 43.4979ZM211.021 35.1818V36.9716H205.377V35.1818H211.021ZM206.771 32.8295H209.085V42.0469C209.085 42.358 209.131 42.5966 209.225 42.7628C209.323 42.9247 209.451 43.0355 209.609 43.0952C209.766 43.1548 209.941 43.1847 210.133 43.1847C210.278 43.1847 210.41 43.174 210.529 43.1527C210.653 43.1314 210.746 43.1122 210.81 43.0952L211.2 44.9041C211.077 44.9467 210.9 44.9936 210.67 45.0447C210.444 45.0959 210.167 45.1257 209.839 45.1342C209.259 45.1513 208.737 45.0639 208.273 44.8722C207.808 44.6761 207.44 44.3736 207.167 43.9645C206.898 43.5554 206.766 43.044 206.771 42.4304V32.8295ZM220.576 37.777L218.466 38.0071C218.407 37.794 218.302 37.5938 218.153 37.4062C218.008 37.2188 217.812 37.0675 217.565 36.9524C217.318 36.8374 217.015 36.7798 216.657 36.7798C216.176 36.7798 215.771 36.8842 215.443 37.093C215.119 37.3018 214.959 37.5724 214.964 37.9048C214.959 38.1903 215.064 38.4226 215.277 38.6016C215.494 38.7805 215.852 38.9276 216.351 39.0426L218.025 39.4006C218.954 39.6009 219.645 39.9183 220.096 40.353C220.552 40.7876 220.782 41.3565 220.787 42.0597C220.782 42.6776 220.601 43.223 220.243 43.696C219.89 44.1648 219.398 44.5312 218.767 44.7955C218.136 45.0597 217.412 45.1918 216.594 45.1918C215.392 45.1918 214.425 44.9403 213.692 44.4375C212.959 43.9304 212.522 43.2251 212.381 42.3217L214.638 42.1044C214.74 42.5476 214.957 42.8821 215.29 43.108C215.622 43.3338 216.055 43.4467 216.587 43.4467C217.137 43.4467 217.578 43.3338 217.91 43.108C218.247 42.8821 218.415 42.603 218.415 42.2706C218.415 41.9893 218.307 41.7571 218.089 41.5739C217.876 41.3906 217.544 41.25 217.092 41.152L215.417 40.8004C214.476 40.6044 213.779 40.2741 213.327 39.8097C212.876 39.3409 212.652 38.7486 212.656 38.0327C212.652 37.4276 212.816 36.9034 213.148 36.4602C213.485 36.0128 213.952 35.6676 214.548 35.4247C215.149 35.1776 215.841 35.054 216.626 35.054C217.776 35.054 218.682 35.299 219.342 35.7891C220.007 36.2791 220.418 36.9418 220.576 37.777Z" fill="#14222E"/>
<path d="M94.8011 63.3636C94.7415 62.8598 94.4995 62.4688 94.0753 62.1903C93.651 61.9119 93.1307 61.7727 92.5142 61.7727C92.0634 61.7727 91.669 61.8456 91.331 61.9915C90.9962 62.1373 90.7344 62.3378 90.5455 62.593C90.3598 62.8482 90.267 63.1383 90.267 63.4631C90.267 63.7348 90.3317 63.9685 90.4609 64.1641C90.5935 64.3563 90.7625 64.517 90.968 64.6463C91.1735 64.7723 91.389 64.8767 91.6143 64.9595C91.8397 65.0391 92.0469 65.1037 92.2358 65.1534L93.2699 65.4318C93.535 65.5014 93.83 65.5975 94.1548 65.7202C94.483 65.8428 94.7962 66.0102 95.0945 66.2223C95.3961 66.4311 95.6446 66.6996 95.8402 67.0277C96.0357 67.3558 96.1335 67.7585 96.1335 68.2358C96.1335 68.786 95.9893 69.2831 95.701 69.7273C95.416 70.1714 94.9983 70.5244 94.4482 70.7862C93.9013 71.0481 93.2367 71.179 92.4545 71.179C91.7254 71.179 91.094 71.0613 90.5604 70.826C90.0301 70.5907 89.6125 70.2625 89.3075 69.8416C89.0059 69.4207 88.8352 68.9318 88.7955 68.375H90.0682C90.1013 68.7595 90.2306 69.0777 90.456 69.3295C90.6847 69.5781 90.973 69.7637 91.321 69.8864C91.6723 70.0057 92.0502 70.0653 92.4545 70.0653C92.9252 70.0653 93.3478 69.9891 93.7223 69.8366C94.0968 69.6809 94.3935 69.4654 94.6122 69.1903C94.831 68.9119 94.9403 68.5871 94.9403 68.2159C94.9403 67.8778 94.8459 67.6027 94.657 67.3906C94.468 67.1785 94.2195 67.0062 93.9112 66.8736C93.603 66.741 93.2699 66.625 92.9119 66.5256L91.6591 66.1676C90.8636 65.9389 90.2339 65.6125 89.7699 65.1882C89.3059 64.764 89.0739 64.2088 89.0739 63.5227C89.0739 62.9527 89.228 62.4555 89.5362 62.0312C89.8478 61.6037 90.2654 61.2723 90.7891 61.0369C91.3161 60.7983 91.9044 60.679 92.554 60.679C93.2102 60.679 93.7936 60.7966 94.304 61.032C94.8144 61.264 95.2188 61.5821 95.517 61.9865C95.8187 62.3909 95.9777 62.8499 95.9943 63.3636H94.8011ZM101.203 71.1591C100.468 71.1591 99.8328 70.9967 99.2992 70.6719C98.7689 70.3438 98.3596 69.8864 98.0712 69.2997C97.7862 68.7098 97.6436 68.0237 97.6436 67.2415C97.6436 66.4593 97.7862 65.7699 98.0712 65.1733C98.3596 64.5734 98.7606 64.1061 99.2743 63.7713C99.7914 63.4332 100.395 63.2642 101.084 63.2642C101.482 63.2642 101.874 63.3305 102.262 63.4631C102.65 63.5956 103.003 63.8111 103.321 64.1094C103.639 64.4044 103.893 64.7955 104.082 65.2827C104.271 65.7699 104.365 66.3698 104.365 67.0824V67.5795H98.4789V66.5653H103.172C103.172 66.1345 103.086 65.75 102.914 65.4119C102.744 65.0739 102.503 64.8071 102.188 64.6115C101.876 64.416 101.508 64.3182 101.084 64.3182C100.617 64.3182 100.212 64.4342 99.8709 64.6662C99.5328 64.8949 99.2727 65.1932 99.0904 65.5611C98.9081 65.929 98.8169 66.3234 98.8169 66.7443V67.4205C98.8169 67.9972 98.9164 68.486 99.1152 68.8871C99.3174 69.2848 99.5975 69.5881 99.9554 69.7969C100.313 70.0024 100.729 70.1051 101.203 70.1051C101.512 70.1051 101.79 70.062 102.039 69.9759C102.29 69.8864 102.508 69.7538 102.69 69.5781C102.872 69.3991 103.013 69.1771 103.112 68.9119L104.246 69.2301C104.127 69.6146 103.926 69.9527 103.644 70.2443C103.363 70.5327 103.015 70.758 102.6 70.9205C102.186 71.0795 101.72 71.1591 101.203 71.1591ZM107.323 60.8182V71H106.15V60.8182H107.323ZM112.674 71.1591C111.938 71.1591 111.304 70.9967 110.77 70.6719C110.24 70.3438 109.83 69.8864 109.542 69.2997C109.257 68.7098 109.114 68.0237 109.114 67.2415C109.114 66.4593 109.257 65.7699 109.542 65.1733C109.83 64.5734 110.231 64.1061 110.745 63.7713C111.262 63.4332 111.865 63.2642 112.555 63.2642C112.952 63.2642 113.345 63.3305 113.733 63.4631C114.121 63.5956 114.474 63.8111 114.792 64.1094C115.11 64.4044 115.364 64.7955 115.553 65.2827C115.741 65.7699 115.836 66.3698 115.836 67.0824V67.5795H109.95V66.5653H114.643C114.643 66.1345 114.557 65.75 114.384 65.4119C114.215 65.0739 113.973 64.8071 113.658 64.6115C113.347 64.416 112.979 64.3182 112.555 64.3182C112.087 64.3182 111.683 64.4342 111.342 64.6662C111.004 64.8949 110.743 65.1932 110.561 65.5611C110.379 65.929 110.288 66.3234 110.288 66.7443V67.4205C110.288 67.9972 110.387 68.486 110.586 68.8871C110.788 69.2848 111.068 69.5881 111.426 69.7969C111.784 70.0024 112.2 70.1051 112.674 70.1051C112.982 70.1051 113.261 70.062 113.509 69.9759C113.761 69.8864 113.978 69.7538 114.161 69.5781C114.343 69.3991 114.484 69.1771 114.583 68.9119L115.717 69.2301C115.597 69.6146 115.397 69.9527 115.115 70.2443C114.833 70.5327 114.485 70.758 114.071 70.9205C113.657 71.0795 113.191 71.1591 112.674 71.1591ZM120.723 71.1591C120.007 71.1591 119.391 70.9901 118.874 70.652C118.357 70.3139 117.959 69.8482 117.68 69.255C117.402 68.6617 117.263 67.9839 117.263 67.2216C117.263 66.446 117.405 65.7616 117.69 65.1683C117.979 64.5717 118.38 64.1061 118.893 63.7713C119.411 63.4332 120.014 63.2642 120.703 63.2642C121.24 63.2642 121.724 63.3636 122.155 63.5625C122.586 63.7614 122.939 64.0398 123.214 64.3977C123.489 64.7557 123.66 65.1733 123.726 65.6506H122.553C122.463 65.3026 122.264 64.9943 121.956 64.7259C121.651 64.4541 121.24 64.3182 120.723 64.3182C120.266 64.3182 119.865 64.4375 119.52 64.6761C119.179 64.9115 118.912 65.2446 118.719 65.6754C118.531 66.103 118.436 66.6051 118.436 67.1818C118.436 67.7718 118.529 68.2855 118.714 68.723C118.903 69.1605 119.169 69.5002 119.51 69.7422C119.855 69.9841 120.259 70.1051 120.723 70.1051C121.028 70.1051 121.305 70.0521 121.553 69.946C121.802 69.84 122.012 69.6875 122.185 69.4886C122.357 69.2898 122.48 69.0511 122.553 68.7727H123.726C123.66 69.2235 123.496 69.6295 123.234 69.9908C122.975 70.3487 122.632 70.6338 122.205 70.8459C121.78 71.0547 121.286 71.1591 120.723 71.1591ZM128.762 63.3636V64.358H124.805V63.3636H128.762ZM125.958 61.5341H127.131V68.8125C127.131 69.1439 127.179 69.3925 127.276 69.5582C127.375 69.7206 127.501 69.83 127.653 69.8864C127.809 69.9394 127.973 69.9659 128.146 69.9659C128.275 69.9659 128.381 69.9593 128.464 69.946C128.547 69.9295 128.613 69.9162 128.663 69.9062L128.901 70.9602C128.822 70.9901 128.711 71.0199 128.568 71.0497C128.426 71.0829 128.245 71.0994 128.026 71.0994C127.695 71.0994 127.37 71.0282 127.052 70.8857C126.737 70.7431 126.475 70.526 126.266 70.2344C126.061 69.9427 125.958 69.5748 125.958 69.1307V61.5341ZM135.638 66.4062V71H134.464V60.8182H135.638V64.5568H135.737C135.916 64.1624 136.185 63.8492 136.543 63.6172C136.904 63.3819 137.384 63.2642 137.984 63.2642C138.505 63.2642 138.96 63.3686 139.352 63.5774C139.743 63.7829 140.046 64.0994 140.261 64.527C140.48 64.9512 140.589 65.4915 140.589 66.1477V71H139.416V66.2273C139.416 65.6207 139.259 65.1518 138.944 64.8203C138.632 64.4856 138.2 64.3182 137.646 64.3182C137.262 64.3182 136.917 64.3994 136.612 64.5618C136.311 64.7242 136.072 64.9612 135.896 65.2727C135.724 65.5843 135.638 65.9621 135.638 66.4062ZM145.838 71.1591C145.149 71.1591 144.544 70.995 144.024 70.6669C143.507 70.3388 143.102 69.8797 142.811 69.2898C142.522 68.6998 142.378 68.0104 142.378 67.2216C142.378 66.4261 142.522 65.7318 142.811 65.1385C143.102 64.5452 143.507 64.0845 144.024 63.7564C144.544 63.4283 145.149 63.2642 145.838 63.2642C146.528 63.2642 147.131 63.4283 147.648 63.7564C148.168 64.0845 148.573 64.5452 148.861 65.1385C149.153 65.7318 149.298 66.4261 149.298 67.2216C149.298 68.0104 149.153 68.6998 148.861 69.2898C148.573 69.8797 148.168 70.3388 147.648 70.6669C147.131 70.995 146.528 71.1591 145.838 71.1591ZM145.838 70.1051C146.362 70.1051 146.793 69.9709 147.131 69.7024C147.469 69.4339 147.719 69.081 147.882 68.6435C148.044 68.206 148.125 67.732 148.125 67.2216C148.125 66.7112 148.044 66.2356 147.882 65.7947C147.719 65.3539 147.469 64.9976 147.131 64.7259C146.793 64.4541 146.362 64.3182 145.838 64.3182C145.315 64.3182 144.884 64.4541 144.546 64.7259C144.208 64.9976 143.957 65.3539 143.795 65.7947C143.633 66.2356 143.551 66.7112 143.551 67.2216C143.551 67.732 143.633 68.206 143.795 68.6435C143.957 69.081 144.208 69.4339 144.546 69.7024C144.884 69.9709 145.315 70.1051 145.838 70.1051ZM152.56 71L150.233 63.3636H151.466L153.117 69.2102H153.196L154.827 63.3636H156.08L157.691 69.1903H157.77L159.421 63.3636H160.654L158.327 71H157.173L155.503 65.1335H155.384L153.713 71H152.56ZM166.142 71V63.3636H167.276V64.5568H167.375C167.534 64.1491 167.791 63.8326 168.146 63.6072C168.5 63.3786 168.926 63.2642 169.423 63.2642C169.927 63.2642 170.347 63.3786 170.681 63.6072C171.019 63.8326 171.283 64.1491 171.472 64.5568H171.551C171.747 64.1624 172.04 63.8492 172.431 63.6172C172.822 63.3819 173.291 63.2642 173.838 63.2642C174.521 63.2642 175.079 63.478 175.514 63.9055C175.948 64.3298 176.165 64.991 176.165 65.8892V71H174.992V65.8892C174.992 65.3258 174.838 64.9231 174.529 64.6811C174.221 64.4392 173.858 64.3182 173.441 64.3182C172.904 64.3182 172.488 64.4806 172.193 64.8054C171.898 65.1269 171.75 65.5346 171.75 66.0284V71H170.557V65.7699C170.557 65.3357 170.416 64.986 170.134 64.7209C169.853 64.4524 169.49 64.3182 169.046 64.3182C168.741 64.3182 168.456 64.3994 168.191 64.5618C167.929 64.7242 167.717 64.9496 167.554 65.2379C167.395 65.523 167.316 65.8527 167.316 66.2273V71H166.142ZM180.557 71.179C180.073 71.179 179.634 71.0878 179.24 70.9055C178.845 70.7199 178.532 70.4531 178.3 70.1051C178.068 69.7538 177.952 69.3295 177.952 68.8324C177.952 68.3949 178.038 68.0402 178.211 67.7685C178.383 67.4934 178.613 67.2779 178.902 67.1222C179.19 66.9664 179.508 66.8504 179.856 66.7741C180.208 66.6946 180.561 66.6316 180.915 66.5852C181.379 66.5256 181.756 66.4808 182.044 66.451C182.336 66.4179 182.548 66.3632 182.68 66.2869C182.816 66.2107 182.884 66.0781 182.884 65.8892V65.8494C182.884 65.3589 182.75 64.9777 182.481 64.706C182.216 64.4342 181.814 64.2983 181.273 64.2983C180.713 64.2983 180.274 64.4209 179.956 64.6662C179.638 64.9115 179.414 65.1733 179.285 65.4517L178.171 65.054C178.37 64.59 178.635 64.2287 178.966 63.9702C179.301 63.7083 179.666 63.526 180.06 63.4233C180.458 63.3172 180.849 63.2642 181.233 63.2642C181.479 63.2642 181.76 63.294 182.079 63.3537C182.4 63.41 182.71 63.5277 183.008 63.7067C183.31 63.8857 183.56 64.1558 183.759 64.517C183.958 64.8783 184.057 65.3622 184.057 65.9688V71H182.884V69.9659H182.824C182.745 70.1316 182.612 70.3089 182.427 70.4979C182.241 70.6868 181.994 70.8475 181.686 70.9801C181.378 71.1127 181.001 71.179 180.557 71.179ZM180.736 70.125C181.2 70.125 181.591 70.0339 181.91 69.8516C182.231 69.6693 182.473 69.4339 182.635 69.1456C182.801 68.8572 182.884 68.554 182.884 68.2358V67.1619C182.834 67.2216 182.725 67.2763 182.556 67.326C182.39 67.3724 182.198 67.4138 181.979 67.4503C181.764 67.4834 181.553 67.5133 181.348 67.5398C181.146 67.563 180.982 67.5829 180.856 67.5994C180.551 67.6392 180.266 67.7038 180.001 67.7933C179.739 67.8795 179.527 68.0104 179.364 68.1861C179.205 68.3584 179.126 68.5937 179.126 68.892C179.126 69.2997 179.276 69.608 179.578 69.8168C179.883 70.0223 180.269 70.125 180.736 70.125ZM187.372 66.4062V71H186.199V63.3636H187.332V64.5568H187.432C187.611 64.169 187.883 63.8575 188.247 63.6222C188.612 63.3835 189.082 63.2642 189.659 63.2642C190.176 63.2642 190.629 63.3703 191.016 63.5824C191.404 63.7912 191.706 64.1094 191.921 64.5369C192.137 64.9612 192.244 65.4981 192.244 66.1477V71H191.071V66.2273C191.071 65.6274 190.915 65.16 190.604 64.8253C190.292 64.4872 189.865 64.3182 189.321 64.3182C188.946 64.3182 188.612 64.3994 188.317 64.5618C188.025 64.7242 187.795 64.9612 187.626 65.2727C187.457 65.5843 187.372 65.9621 187.372 66.4062ZM194.871 73.8636C194.672 73.8636 194.494 73.8471 194.339 73.8139C194.183 73.7841 194.075 73.7543 194.015 73.7244L194.314 72.6903C194.599 72.7633 194.851 72.7898 195.069 72.7699C195.288 72.75 195.482 72.6522 195.651 72.4766C195.823 72.3042 195.981 72.0241 196.123 71.6364L196.342 71.0398L193.518 63.3636H194.791L196.899 69.4489H196.979L199.086 63.3636H200.359L197.118 72.1136C196.972 72.508 196.791 72.8345 196.576 73.093C196.36 73.3549 196.11 73.5488 195.825 73.6747C195.543 73.8007 195.225 73.8636 194.871 73.8636ZM211.254 65.0739L210.2 65.3722C210.134 65.1965 210.036 65.0258 209.907 64.8601C209.781 64.6911 209.609 64.5518 209.39 64.4425C209.171 64.3331 208.891 64.2784 208.55 64.2784C208.083 64.2784 207.693 64.3861 207.382 64.6016C207.073 64.8137 206.919 65.0838 206.919 65.4119C206.919 65.7036 207.025 65.9339 207.237 66.103C207.45 66.272 207.781 66.4129 208.232 66.5256L209.365 66.804C210.048 66.9697 210.557 67.2232 210.892 67.5646C211.226 67.9027 211.394 68.3385 211.394 68.8722C211.394 69.3097 211.268 69.7008 211.016 70.0455C210.767 70.3902 210.419 70.6619 209.972 70.8608C209.524 71.0597 209.004 71.1591 208.411 71.1591C207.632 71.1591 206.987 70.9901 206.477 70.652C205.966 70.3139 205.643 69.8201 205.507 69.1705L206.621 68.892C206.727 69.303 206.927 69.6113 207.222 69.8168C207.521 70.0223 207.91 70.125 208.391 70.125C208.938 70.125 209.372 70.009 209.693 69.777C210.018 69.5417 210.181 69.2599 210.181 68.9318C210.181 68.6667 210.088 68.4446 209.902 68.2656C209.717 68.0833 209.432 67.9474 209.047 67.858L207.774 67.5597C207.075 67.3939 206.561 67.1371 206.233 66.7891C205.908 66.4377 205.746 65.9986 205.746 65.4716C205.746 65.0407 205.867 64.6596 206.109 64.3281C206.354 63.9967 206.687 63.7365 207.108 63.5476C207.532 63.3587 208.013 63.2642 208.55 63.2642C209.306 63.2642 209.899 63.4299 210.33 63.7614C210.764 64.0928 211.072 64.5303 211.254 65.0739ZM216.362 71.1591C215.626 71.1591 214.991 70.9967 214.457 70.6719C213.927 70.3438 213.518 69.8864 213.229 69.2997C212.944 68.7098 212.802 68.0237 212.802 67.2415C212.802 66.4593 212.944 65.7699 213.229 65.1733C213.518 64.5734 213.919 64.1061 214.433 63.7713C214.95 63.4332 215.553 63.2642 216.242 63.2642C216.64 63.2642 217.033 63.3305 217.42 63.4631C217.808 63.5956 218.161 63.8111 218.479 64.1094C218.798 64.4044 219.051 64.7955 219.24 65.2827C219.429 65.7699 219.523 66.3698 219.523 67.0824V67.5795H213.637V66.5653H218.33C218.33 66.1345 218.244 65.75 218.072 65.4119C217.903 65.0739 217.661 64.8071 217.346 64.6115C217.034 64.416 216.666 64.3182 216.242 64.3182C215.775 64.3182 215.371 64.4342 215.029 64.6662C214.691 64.8949 214.431 65.1932 214.249 65.5611C214.066 65.929 213.975 66.3234 213.975 66.7443V67.4205C213.975 67.9972 214.075 68.486 214.273 68.8871C214.476 69.2848 214.756 69.5881 215.114 69.7969C215.472 70.0024 215.888 70.1051 216.362 70.1051C216.67 70.1051 216.948 70.062 217.197 69.9759C217.449 69.8864 217.666 69.7538 217.848 69.5781C218.03 69.3991 218.171 69.1771 218.271 68.9119L219.404 69.2301C219.285 69.6146 219.084 69.9527 218.803 70.2443C218.521 70.5327 218.173 70.758 217.759 70.9205C217.344 71.0795 216.879 71.1591 216.362 71.1591ZM223.555 71.179C223.071 71.179 222.632 71.0878 222.238 70.9055C221.844 70.7199 221.53 70.4531 221.298 70.1051C221.066 69.7538 220.95 69.3295 220.95 68.8324C220.95 68.3949 221.036 68.0402 221.209 67.7685C221.381 67.4934 221.612 67.2779 221.9 67.1222C222.188 66.9664 222.506 66.8504 222.854 66.7741C223.206 66.6946 223.559 66.6316 223.913 66.5852C224.377 66.5256 224.754 66.4808 225.042 66.451C225.334 66.4179 225.546 66.3632 225.678 66.2869C225.814 66.2107 225.882 66.0781 225.882 65.8892V65.8494C225.882 65.3589 225.748 64.9777 225.479 64.706C225.214 64.4342 224.812 64.2983 224.271 64.2983C223.711 64.2983 223.272 64.4209 222.954 64.6662C222.636 64.9115 222.412 65.1733 222.283 65.4517L221.169 65.054C221.368 64.59 221.633 64.2287 221.964 63.9702C222.299 63.7083 222.664 63.526 223.058 63.4233C223.456 63.3172 223.847 63.2642 224.232 63.2642C224.477 63.2642 224.759 63.294 225.077 63.3537C225.398 63.41 225.708 63.5277 226.006 63.7067C226.308 63.8857 226.558 64.1558 226.757 64.517C226.956 64.8783 227.055 65.3622 227.055 65.9688V71H225.882V69.9659H225.822C225.743 70.1316 225.61 70.3089 225.425 70.4979C225.239 70.6868 224.992 70.8475 224.684 70.9801C224.376 71.1127 224 71.179 223.555 71.179ZM223.734 70.125C224.198 70.125 224.589 70.0339 224.908 69.8516C225.229 69.6693 225.471 69.4339 225.634 69.1456C225.799 68.8572 225.882 68.554 225.882 68.2358V67.1619C225.832 67.2216 225.723 67.2763 225.554 67.326C225.388 67.3724 225.196 67.4138 224.977 67.4503C224.762 67.4834 224.551 67.5133 224.346 67.5398C224.144 67.563 223.98 67.5829 223.854 67.5994C223.549 67.6392 223.264 67.7038 222.999 67.7933C222.737 67.8795 222.525 68.0104 222.362 68.1861C222.203 68.3584 222.124 68.5937 222.124 68.892C222.124 69.2997 222.274 69.608 222.576 69.8168C222.881 70.0223 223.267 70.125 223.734 70.125ZM232.518 63.3636V64.358H228.561V63.3636H232.518ZM229.714 61.5341H230.887V68.8125C230.887 69.1439 230.935 69.3925 231.031 69.5582C231.131 69.7206 231.257 69.83 231.409 69.8864C231.565 69.9394 231.729 69.9659 231.901 69.9659C232.031 69.9659 232.137 69.9593 232.22 69.946C232.302 69.9295 232.369 69.9162 232.419 69.9062L232.657 70.9602C232.578 70.9901 232.467 71.0199 232.324 71.0497C232.182 71.0829 232.001 71.0994 231.782 71.0994C231.451 71.0994 231.126 71.0282 230.808 70.8857C230.493 70.7431 230.231 70.526 230.022 70.2344C229.817 69.9427 229.714 69.5748 229.714 69.1307V61.5341ZM239.555 65.0739L238.501 65.3722C238.435 65.1965 238.337 65.0258 238.208 64.8601C238.082 64.6911 237.91 64.5518 237.691 64.4425C237.472 64.3331 237.192 64.2784 236.851 64.2784C236.383 64.2784 235.994 64.3861 235.682 64.6016C235.374 64.8137 235.22 65.0838 235.22 65.4119C235.22 65.7036 235.326 65.9339 235.538 66.103C235.75 66.272 236.082 66.4129 236.532 66.5256L237.666 66.804C238.349 66.9697 238.858 67.2232 239.192 67.5646C239.527 67.9027 239.694 68.3385 239.694 68.8722C239.694 69.3097 239.568 69.7008 239.317 70.0455C239.068 70.3902 238.72 70.6619 238.273 70.8608C237.825 71.0597 237.305 71.1591 236.711 71.1591C235.933 71.1591 235.288 70.9901 234.778 70.652C234.267 70.3139 233.944 69.8201 233.808 69.1705L234.922 68.892C235.028 69.303 235.228 69.6113 235.523 69.8168C235.822 70.0223 236.211 70.125 236.692 70.125C237.238 70.125 237.673 70.009 237.994 69.777C238.319 69.5417 238.481 69.2599 238.481 68.9318C238.481 68.6667 238.389 68.4446 238.203 68.2656C238.017 68.0833 237.732 67.9474 237.348 67.858L236.075 67.5597C235.376 67.3939 234.862 67.1371 234.534 66.7891C234.209 66.4377 234.047 65.9986 234.047 65.4716C234.047 65.0407 234.168 64.6596 234.41 64.3281C234.655 63.9967 234.988 63.7365 235.409 63.5476C235.833 63.3587 236.314 63.2642 236.851 63.2642C237.606 63.2642 238.2 63.4299 238.631 63.7614C239.065 64.0928 239.373 64.5303 239.555 65.0739ZM246.154 73.8636C245.955 73.8636 245.778 73.8471 245.622 73.8139C245.466 73.7841 245.358 73.7543 245.299 73.7244L245.597 72.6903C245.882 72.7633 246.134 72.7898 246.353 72.7699C246.571 72.75 246.765 72.6522 246.934 72.4766C247.107 72.3042 247.264 72.0241 247.407 71.6364L247.625 71.0398L244.801 63.3636H246.074L248.182 69.4489H248.262L250.37 63.3636H251.642L248.401 72.1136C248.255 72.508 248.074 72.8345 247.859 73.093C247.644 73.3549 247.393 73.5488 247.108 73.6747C246.827 73.8007 246.508 73.8636 246.154 73.8636ZM256.02 71.1591C255.33 71.1591 254.726 70.995 254.205 70.6669C253.688 70.3388 253.284 69.8797 252.992 69.2898C252.704 68.6998 252.56 68.0104 252.56 67.2216C252.56 66.4261 252.704 65.7318 252.992 65.1385C253.284 64.5452 253.688 64.0845 254.205 63.7564C254.726 63.4283 255.33 63.2642 256.02 63.2642C256.709 63.2642 257.313 63.4283 257.83 63.7564C258.35 64.0845 258.754 64.5452 259.043 65.1385C259.334 65.7318 259.48 66.4261 259.48 67.2216C259.48 68.0104 259.334 68.6998 259.043 69.2898C258.754 69.8797 258.35 70.3388 257.83 70.6669C257.313 70.995 256.709 71.1591 256.02 71.1591ZM256.02 70.1051C256.544 70.1051 256.974 69.9709 257.312 69.7024C257.651 69.4339 257.901 69.081 258.063 68.6435C258.226 68.206 258.307 67.732 258.307 67.2216C258.307 66.7112 258.226 66.2356 258.063 65.7947C257.901 65.3539 257.651 64.9976 257.312 64.7259C256.974 64.4541 256.544 64.3182 256.02 64.3182C255.496 64.3182 255.065 64.4541 254.727 64.7259C254.389 64.9976 254.139 65.3539 253.977 65.7947C253.814 66.2356 253.733 66.7112 253.733 67.2216C253.733 67.732 253.814 68.206 253.977 68.6435C254.139 69.081 254.389 69.4339 254.727 69.7024C255.065 69.9709 255.496 70.1051 256.02 70.1051ZM266.084 67.8778V63.3636H267.257V71H266.084V69.7074H266.004C265.825 70.0952 265.547 70.425 265.169 70.6967C264.791 70.9652 264.314 71.0994 263.737 71.0994C263.26 71.0994 262.836 70.995 262.464 70.7862C262.093 70.5741 261.801 70.2559 261.589 69.8317C261.377 69.4041 261.271 68.8655 261.271 68.2159V63.3636H262.444V68.1364C262.444 68.6932 262.6 69.1373 262.912 69.4688C263.227 69.8002 263.628 69.9659 264.115 69.9659C264.407 69.9659 264.703 69.8913 265.005 69.7422C265.31 69.593 265.565 69.3643 265.77 69.0561C265.979 68.7479 266.084 68.3551 266.084 67.8778ZM274.517 66.4062V71H273.343V63.3636H274.477V64.5568H274.576C274.755 64.169 275.027 63.8575 275.392 63.6222C275.756 63.3835 276.227 63.2642 276.804 63.2642C277.321 63.2642 277.773 63.3703 278.161 63.5824C278.549 63.7912 278.85 64.1094 279.066 64.5369C279.281 64.9612 279.389 65.4981 279.389 66.1477V71H278.216V66.2273C278.216 65.6274 278.06 65.16 277.748 64.8253C277.437 64.4872 277.009 64.3182 276.466 64.3182C276.091 64.3182 275.756 64.3994 275.461 64.5618C275.17 64.7242 274.939 64.9612 274.77 65.2727C274.601 65.5843 274.517 65.9621 274.517 66.4062ZM284.735 71.1591C283.999 71.1591 283.364 70.9967 282.83 70.6719C282.3 70.3438 281.891 69.8864 281.602 69.2997C281.317 68.7098 281.175 68.0237 281.175 67.2415C281.175 66.4593 281.317 65.7699 281.602 65.1733C281.891 64.5734 282.292 64.1061 282.806 63.7713C283.323 63.4332 283.926 63.2642 284.615 63.2642C285.013 63.2642 285.406 63.3305 285.794 63.4631C286.181 63.5956 286.534 63.8111 286.852 64.1094C287.171 64.4044 287.424 64.7955 287.613 65.2827C287.802 65.7699 287.896 66.3698 287.896 67.0824V67.5795H282.01V66.5653H286.703C286.703 66.1345 286.617 65.75 286.445 65.4119C286.276 65.0739 286.034 64.8071 285.719 64.6115C285.407 64.416 285.039 64.3182 284.615 64.3182C284.148 64.3182 283.744 64.4342 283.402 64.6662C283.064 64.8949 282.804 65.1932 282.622 65.5611C282.439 65.929 282.348 66.3234 282.348 66.7443V67.4205C282.348 67.9972 282.448 68.486 282.646 68.8871C282.849 69.2848 283.129 69.5881 283.487 69.7969C283.845 70.0024 284.261 70.1051 284.735 70.1051C285.043 70.1051 285.321 70.062 285.57 69.9759C285.822 69.8864 286.039 69.7538 286.221 69.5781C286.403 69.3991 286.544 69.1771 286.644 68.9119L287.777 69.2301C287.658 69.6146 287.457 69.9527 287.176 70.2443C286.894 70.5327 286.546 70.758 286.132 70.9205C285.717 71.0795 285.252 71.1591 284.735 71.1591ZM292.883 71.1591C292.147 71.1591 291.512 70.9967 290.979 70.6719C290.449 70.3438 290.039 69.8864 289.751 69.2997C289.466 68.7098 289.323 68.0237 289.323 67.2415C289.323 66.4593 289.466 65.7699 289.751 65.1733C290.039 64.5734 290.44 64.1061 290.954 63.7713C291.471 63.4332 292.074 63.2642 292.764 63.2642C293.161 63.2642 293.554 63.3305 293.942 63.4631C294.33 63.5956 294.683 63.8111 295.001 64.1094C295.319 64.4044 295.573 64.7955 295.762 65.2827C295.95 65.7699 296.045 66.3698 296.045 67.0824V67.5795H290.159V66.5653H294.852C294.852 66.1345 294.766 65.75 294.593 65.4119C294.424 65.0739 294.182 64.8071 293.867 64.6115C293.556 64.416 293.188 64.3182 292.764 64.3182C292.296 64.3182 291.892 64.4342 291.551 64.6662C291.213 64.8949 290.952 65.1932 290.77 65.5611C290.588 65.929 290.497 66.3234 290.497 66.7443V67.4205C290.497 67.9972 290.596 68.486 290.795 68.8871C290.997 69.2848 291.277 69.5881 291.635 69.7969C291.993 70.0024 292.409 70.1051 292.883 70.1051C293.191 70.1051 293.47 70.062 293.718 69.9759C293.97 69.8864 294.187 69.7538 294.369 69.5781C294.552 69.3991 294.693 69.1771 294.792 68.9119L295.926 69.2301C295.806 69.6146 295.606 69.9527 295.324 70.2443C295.042 70.5327 294.694 70.758 294.28 70.9205C293.866 71.0795 293.4 71.1591 292.883 71.1591ZM300.713 71.1591C300.077 71.1591 299.515 70.9983 299.028 70.6768C298.541 70.352 298.16 69.8946 297.884 69.3047C297.609 68.7114 297.472 68.0104 297.472 67.2017C297.472 66.3996 297.609 65.7036 297.884 65.1136C298.16 64.5237 298.542 64.0679 299.033 63.7464C299.523 63.425 300.09 63.2642 300.733 63.2642C301.23 63.2642 301.623 63.3471 301.911 63.5128C302.203 63.6752 302.425 63.8608 302.578 64.0696C302.733 64.2751 302.854 64.4441 302.941 64.5767H303.04V60.8182H304.213V71H303.08V69.8267H302.941C302.854 69.9659 302.732 70.1416 302.573 70.3537C302.414 70.5625 302.186 70.7498 301.892 70.9155C301.597 71.0779 301.204 71.1591 300.713 71.1591ZM300.872 70.1051C301.343 70.1051 301.741 69.9825 302.066 69.7372C302.39 69.4886 302.637 69.1456 302.806 68.7081C302.975 68.2673 303.06 67.7585 303.06 67.1818C303.06 66.6117 302.977 66.1129 302.811 65.6854C302.646 65.2545 302.4 64.9197 302.075 64.6811C301.751 64.4392 301.35 64.3182 300.872 64.3182C300.375 64.3182 299.961 64.4458 299.629 64.701C299.301 64.9529 299.054 65.2959 298.889 65.7301C298.726 66.161 298.645 66.6449 298.645 67.1818C298.645 67.7254 298.728 68.2192 298.894 68.6634C299.063 69.1042 299.311 69.4555 299.639 69.7173C299.971 69.9759 300.382 70.1051 300.872 70.1051ZM307.38 71.0795C307.135 71.0795 306.924 70.9917 306.749 70.8161C306.573 70.6404 306.485 70.4299 306.485 70.1847C306.485 69.9394 306.573 69.7289 306.749 69.5533C306.924 69.3776 307.135 69.2898 307.38 69.2898C307.625 69.2898 307.836 69.3776 308.012 69.5533C308.187 69.7289 308.275 69.9394 308.275 70.1847C308.275 70.3471 308.234 70.4962 308.151 70.6321C308.071 70.768 307.963 70.8774 307.828 70.9602C307.695 71.0398 307.546 71.0795 307.38 71.0795Z" fill="#101A23"/>
<path d="M452 28L440 40M440 28L452 40" stroke="#0B1219" stroke-width="2" stroke-linecap="round" stroke-linejoin="round"/>
<path fill-rule="evenodd" clip-rule="evenodd" d="M480 97H0V96H480V97Z" fill="#E4E7EC"/>
<g filter="url(#filter1_d_186_3645)">
<rect x="126.5" y="140" width="44" height="44" rx="8" fill="white"/>
<path d="M142.667 162H154.333" stroke="#344054" stroke-width="1.66667" stroke-linecap="round" stroke-linejoin="round"/>
<rect x="127" y="140.5" width="43" height="43" rx="7.5" stroke="#D0D5DD"/>
</g>
<path d="M218.357 188.716C214.676 188.716 211.403 188.085 208.539 186.824C205.693 185.562 203.443 183.807 201.789 181.557C200.136 179.307 199.258 176.707 199.156 173.759H208.769C208.855 175.173 209.323 176.409 210.176 177.466C211.028 178.506 212.161 179.315 213.576 179.895C214.991 180.474 216.576 180.764 218.332 180.764C220.207 180.764 221.869 180.44 223.318 179.793C224.767 179.128 225.9 178.207 226.718 177.031C227.536 175.855 227.937 174.5 227.92 172.966C227.937 171.381 227.528 169.983 226.693 168.773C225.857 167.562 224.647 166.616 223.062 165.935C221.494 165.253 219.602 164.912 217.386 164.912H212.758V157.599H217.386C219.21 157.599 220.803 157.284 222.167 156.653C223.548 156.023 224.63 155.136 225.414 153.994C226.198 152.835 226.582 151.497 226.565 149.98C226.582 148.497 226.249 147.21 225.568 146.119C224.903 145.011 223.957 144.151 222.73 143.537C221.519 142.923 220.096 142.616 218.46 142.616C216.857 142.616 215.374 142.906 214.011 143.486C212.647 144.065 211.548 144.892 210.713 145.966C209.877 147.023 209.434 148.284 209.383 149.75H200.255C200.323 146.818 201.167 144.244 202.786 142.028C204.423 139.795 206.605 138.057 209.332 136.812C212.059 135.551 215.119 134.92 218.511 134.92C222.005 134.92 225.039 135.577 227.613 136.889C230.204 138.185 232.207 139.932 233.622 142.131C235.036 144.33 235.744 146.759 235.744 149.418C235.761 152.366 234.892 154.838 233.136 156.832C231.397 158.827 229.113 160.131 226.284 160.744V161.153C229.965 161.665 232.786 163.028 234.747 165.244C236.724 167.443 237.704 170.179 237.687 173.452C237.687 176.384 236.852 179.009 235.181 181.327C233.528 183.628 231.244 185.435 228.329 186.747C225.431 188.06 222.107 188.716 218.357 188.716ZM245.023 188V181.148L263.202 163.327C264.941 161.571 266.39 160.011 267.549 158.648C268.708 157.284 269.577 155.963 270.157 154.685C270.736 153.406 271.026 152.043 271.026 150.594C271.026 148.94 270.651 147.526 269.901 146.349C269.151 145.156 268.12 144.236 266.807 143.588C265.495 142.94 264.003 142.616 262.333 142.616C260.611 142.616 259.103 142.974 257.807 143.69C256.512 144.389 255.506 145.386 254.79 146.682C254.091 147.977 253.742 149.52 253.742 151.31H244.716C244.716 147.986 245.475 145.097 246.992 142.642C248.509 140.187 250.597 138.287 253.256 136.94C255.932 135.594 259.001 134.92 262.461 134.92C265.972 134.92 269.057 135.577 271.716 136.889C274.376 138.202 276.438 140 277.904 142.284C279.387 144.568 280.128 147.176 280.128 150.108C280.128 152.068 279.753 153.994 279.003 155.886C278.253 157.778 276.932 159.875 275.04 162.176C273.165 164.477 270.532 167.264 267.14 170.537L258.114 179.716V180.074H280.921V188H245.023Z" fill="#14222E"/>
<g filter="url(#filter2_d_186_3645)">
<rect x="309.5" y="140" width="44" height="44" rx="8" fill="white"/>
<path d="M331.5 156.167V167.833M325.667 162H337.333" stroke="#344054" stroke-width="1.66667" stroke-linecap="round" stroke-linejoin="round"/>
<rect x="310" y="140.5" width="43" height="43" rx="7.5" stroke="#D0D5DD"/>
</g>
<path fill-rule="evenodd" clip-rule="evenodd" d="M456 220H24V219H456V220Z" fill="#E4E7EC"/>
<path d="M25.1477 250V238.364H29.5114C30.4053 238.364 31.1553 238.53 31.7614 238.864C32.3712 239.197 32.8314 239.655 33.142 240.239C33.4564 240.818 33.6136 241.477 33.6136 242.216C33.6136 242.962 33.4564 243.625 33.142 244.205C32.8277 244.784 32.3636 245.241 31.75 245.574C31.1364 245.903 30.3807 246.068 29.483 246.068H26.5909V244.335H29.1989C29.7216 244.335 30.1496 244.244 30.483 244.062C30.8163 243.881 31.0625 243.631 31.2216 243.312C31.3845 242.994 31.4659 242.629 31.4659 242.216C31.4659 241.803 31.3845 241.439 31.2216 241.125C31.0625 240.811 30.8144 240.566 30.4773 240.392C30.1439 240.214 29.714 240.125 29.1875 240.125H27.2557V250H25.1477ZM35.3537 250V241.273H37.348V242.727H37.4389C37.598 242.223 37.8707 241.835 38.2571 241.562C38.6473 241.286 39.0923 241.148 39.5923 241.148C39.706 241.148 39.8329 241.153 39.973 241.165C40.117 241.172 40.2363 241.186 40.331 241.205V243.097C40.2438 243.066 40.1056 243.04 39.9162 243.017C39.7306 242.991 39.5507 242.977 39.3764 242.977C39.0014 242.977 38.6643 243.059 38.3651 243.222C38.0696 243.381 37.8366 243.602 37.6662 243.886C37.4957 244.17 37.4105 244.498 37.4105 244.869V250H35.3537ZM41.6974 250V241.273H43.7543V250H41.6974ZM42.7315 240.034C42.4058 240.034 42.1255 239.926 41.8906 239.71C41.6558 239.491 41.5384 239.227 41.5384 238.92C41.5384 238.61 41.6558 238.347 41.8906 238.131C42.1255 237.911 42.4058 237.801 42.7315 237.801C43.0611 237.801 43.3414 237.911 43.5724 238.131C43.8073 238.347 43.9247 238.61 43.9247 238.92C43.9247 239.227 43.8073 239.491 43.5724 239.71C43.3414 239.926 43.0611 240.034 42.7315 240.034ZM49.6761 250.17C48.8049 250.17 48.0568 249.979 47.4318 249.597C46.8106 249.214 46.3314 248.686 45.9943 248.011C45.661 247.333 45.4943 246.553 45.4943 245.67C45.4943 244.784 45.6648 244.002 46.0057 243.324C46.3466 242.642 46.8277 242.112 47.4489 241.733C48.0739 241.35 48.8125 241.159 49.6648 241.159C50.3731 241.159 51 241.29 51.5455 241.551C52.0947 241.809 52.5322 242.174 52.858 242.648C53.1837 243.117 53.3693 243.667 53.4148 244.295H51.4489C51.3693 243.875 51.1799 243.525 50.8807 243.244C50.5852 242.96 50.1894 242.818 49.6932 242.818C49.2727 242.818 48.9034 242.932 48.5852 243.159C48.267 243.383 48.0189 243.705 47.8409 244.125C47.6667 244.545 47.5795 245.049 47.5795 245.636C47.5795 246.231 47.6667 246.742 47.8409 247.17C48.0152 247.595 48.2595 247.922 48.5739 248.153C48.892 248.381 49.2652 248.494 49.6932 248.494C49.9962 248.494 50.267 248.437 50.5057 248.324C50.7481 248.206 50.9508 248.038 51.1136 247.818C51.2765 247.598 51.3883 247.331 51.4489 247.017H53.4148C53.3655 247.634 53.1837 248.182 52.8693 248.659C52.5549 249.133 52.1269 249.504 51.5852 249.773C51.0436 250.038 50.4072 250.17 49.6761 250.17ZM58.9673 250.17C58.0923 250.17 57.3366 249.989 56.7003 249.625C56.0677 249.258 55.581 248.739 55.2401 248.068C54.8991 247.394 54.7287 246.6 54.7287 245.688C54.7287 244.79 54.8991 244.002 55.2401 243.324C55.5848 242.642 56.0658 242.112 56.6832 241.733C57.3007 241.35 58.026 241.159 58.8594 241.159C59.3973 241.159 59.9048 241.246 60.3821 241.42C60.8632 241.591 61.2874 241.856 61.6548 242.216C62.026 242.576 62.3177 243.034 62.5298 243.591C62.742 244.144 62.848 244.803 62.848 245.568V246.199H55.6946V244.812H60.8764C60.8726 244.419 60.7874 244.068 60.6207 243.761C60.4541 243.451 60.2211 243.206 59.9219 243.028C59.6264 242.85 59.2817 242.761 58.8878 242.761C58.4673 242.761 58.098 242.864 57.7798 243.068C57.4616 243.269 57.2135 243.534 57.0355 243.864C56.8613 244.189 56.7723 244.547 56.7685 244.938V246.148C56.7685 246.655 56.8613 247.091 57.0469 247.455C57.2325 247.814 57.492 248.091 57.8253 248.284C58.1586 248.473 58.5488 248.568 58.9957 248.568C59.295 248.568 59.5658 248.527 59.8082 248.443C60.0507 248.356 60.2609 248.229 60.4389 248.062C60.617 247.896 60.7514 247.689 60.8423 247.443L62.7628 247.659C62.6416 248.167 62.4105 248.61 62.0696 248.989C61.7325 249.364 61.3007 249.655 60.7741 249.864C60.2476 250.068 59.6454 250.17 58.9673 250.17ZM68.5568 253.273V241.273H70.5795V242.716H70.6989C70.8049 242.504 70.9545 242.278 71.1477 242.04C71.3409 241.797 71.6023 241.591 71.9318 241.42C72.2614 241.246 72.6818 241.159 73.1932 241.159C73.8674 241.159 74.4754 241.331 75.017 241.676C75.5625 242.017 75.9943 242.523 76.3125 243.193C76.6345 243.86 76.7955 244.678 76.7955 245.648C76.7955 246.606 76.6383 247.42 76.3239 248.091C76.0095 248.761 75.5814 249.273 75.0398 249.625C74.4981 249.977 73.8845 250.153 73.1989 250.153C72.6989 250.153 72.2841 250.07 71.9545 249.903C71.625 249.737 71.3598 249.536 71.1591 249.301C70.9621 249.062 70.8087 248.837 70.6989 248.625H70.6136V253.273H68.5568ZM70.5739 245.636C70.5739 246.201 70.6534 246.695 70.8125 247.119C70.9754 247.544 71.2083 247.875 71.5114 248.114C71.8182 248.348 72.1894 248.466 72.625 248.466C73.0795 248.466 73.4602 248.345 73.767 248.102C74.0739 247.856 74.3049 247.521 74.4602 247.097C74.6193 246.669 74.6989 246.182 74.6989 245.636C74.6989 245.095 74.6212 244.614 74.4659 244.193C74.3106 243.773 74.0795 243.443 73.7727 243.205C73.4659 242.966 73.0833 242.847 72.625 242.847C72.1856 242.847 71.8125 242.962 71.5057 243.193C71.1989 243.424 70.9659 243.748 70.8068 244.165C70.6515 244.581 70.5739 245.072 70.5739 245.636ZM82.4205 250.17C81.5455 250.17 80.7898 249.989 80.1534 249.625C79.5208 249.258 79.0341 248.739 78.6932 248.068C78.3523 247.394 78.1818 246.6 78.1818 245.688C78.1818 244.79 78.3523 244.002 78.6932 243.324C79.0379 242.642 79.5189 242.112 80.1364 241.733C80.7538 241.35 81.4792 241.159 82.3125 241.159C82.8504 241.159 83.358 241.246 83.8352 241.42C84.3163 241.591 84.7405 241.856 85.108 242.216C85.4792 242.576 85.7708 243.034 85.983 243.591C86.1951 244.144 86.3011 244.803 86.3011 245.568V246.199H79.1477V244.812H84.3295C84.3258 244.419 84.2405 244.068 84.0739 243.761C83.9072 243.451 83.6742 243.206 83.375 243.028C83.0795 242.85 82.7348 242.761 82.3409 242.761C81.9205 242.761 81.5511 242.864 81.233 243.068C80.9148 243.269 80.6667 243.534 80.4886 243.864C80.3144 244.189 80.2254 244.547 80.2216 244.938V246.148C80.2216 246.655 80.3144 247.091 80.5 247.455C80.6856 247.814 80.9451 248.091 81.2784 248.284C81.6117 248.473 82.0019 248.568 82.4489 248.568C82.7481 248.568 83.0189 248.527 83.2614 248.443C83.5038 248.356 83.714 248.229 83.892 248.062C84.0701 247.896 84.2045 247.689 84.2955 247.443L86.2159 247.659C86.0947 248.167 85.8636 248.61 85.5227 248.989C85.1856 249.364 84.7538 249.655 84.2273 249.864C83.7008 250.068 83.0985 250.17 82.4205 250.17ZM88.0412 250V241.273H90.0355V242.727H90.1264C90.2855 242.223 90.5582 241.835 90.9446 241.562C91.3348 241.286 91.7798 241.148 92.2798 241.148C92.3935 241.148 92.5204 241.153 92.6605 241.165C92.8045 241.172 92.9238 241.186 93.0185 241.205V243.097C92.9313 243.066 92.7931 243.04 92.6037 243.017C92.4181 242.991 92.2382 242.977 92.0639 242.977C91.6889 242.977 91.3518 243.059 91.0526 243.222C90.7571 243.381 90.5241 243.602 90.3537 243.886C90.1832 244.17 90.098 244.498 90.098 244.869V250H88.0412ZM105.251 243.58L103.376 243.784C103.323 243.595 103.231 243.417 103.098 243.25C102.969 243.083 102.795 242.949 102.575 242.847C102.356 242.744 102.087 242.693 101.768 242.693C101.34 242.693 100.981 242.786 100.689 242.972C100.401 243.157 100.259 243.398 100.263 243.693C100.259 243.947 100.352 244.153 100.541 244.312C100.734 244.472 101.053 244.602 101.496 244.705L102.984 245.023C103.81 245.201 104.424 245.483 104.825 245.869C105.231 246.256 105.435 246.761 105.439 247.386C105.435 247.936 105.274 248.42 104.956 248.841C104.642 249.258 104.204 249.583 103.643 249.818C103.083 250.053 102.439 250.17 101.712 250.17C100.643 250.17 99.7836 249.947 99.1321 249.5C98.4806 249.049 98.0923 248.422 97.9673 247.619L99.973 247.426C100.064 247.82 100.257 248.117 100.553 248.318C100.848 248.519 101.232 248.619 101.706 248.619C102.195 248.619 102.587 248.519 102.882 248.318C103.181 248.117 103.331 247.869 103.331 247.574C103.331 247.324 103.234 247.117 103.041 246.955C102.852 246.792 102.556 246.667 102.155 246.58L100.666 246.267C99.8291 246.093 99.2098 245.799 98.8082 245.386C98.4067 244.97 98.2079 244.443 98.2116 243.807C98.2079 243.269 98.3537 242.803 98.6491 242.409C98.9484 242.011 99.3632 241.705 99.8935 241.489C100.428 241.269 101.043 241.159 101.74 241.159C102.763 241.159 103.568 241.377 104.155 241.812C104.746 242.248 105.111 242.837 105.251 243.58ZM110.999 250.17C110.124 250.17 109.368 249.989 108.732 249.625C108.099 249.258 107.612 248.739 107.271 248.068C106.93 247.394 106.76 246.6 106.76 245.688C106.76 244.79 106.93 244.002 107.271 243.324C107.616 242.642 108.097 242.112 108.714 241.733C109.332 241.35 110.057 241.159 110.891 241.159C111.429 241.159 111.936 241.246 112.413 241.42C112.894 241.591 113.319 241.856 113.686 242.216C114.057 242.576 114.349 243.034 114.561 243.591C114.773 244.144 114.879 244.803 114.879 245.568V246.199H107.726V244.812H112.908C112.904 244.419 112.819 244.068 112.652 243.761C112.485 243.451 112.252 243.206 111.953 243.028C111.658 242.85 111.313 242.761 110.919 242.761C110.499 242.761 110.129 242.864 109.811 243.068C109.493 243.269 109.245 243.534 109.067 243.864C108.893 244.189 108.804 244.547 108.8 244.938V246.148C108.8 246.655 108.893 247.091 109.078 247.455C109.264 247.814 109.523 248.091 109.857 248.284C110.19 248.473 110.58 248.568 111.027 248.568C111.326 248.568 111.597 248.527 111.839 248.443C112.082 248.356 112.292 248.229 112.47 248.062C112.648 247.896 112.783 247.689 112.874 247.443L114.794 247.659C114.673 248.167 114.442 248.61 114.101 248.989C113.764 249.364 113.332 249.655 112.805 249.864C112.279 250.068 111.677 250.17 110.999 250.17ZM119.131 250.176C118.578 250.176 118.08 250.078 117.636 249.881C117.197 249.68 116.848 249.384 116.591 248.994C116.337 248.604 116.21 248.123 116.21 247.551C116.21 247.059 116.301 246.652 116.483 246.33C116.665 246.008 116.913 245.75 117.227 245.557C117.542 245.364 117.896 245.218 118.29 245.119C118.688 245.017 119.098 244.943 119.523 244.898C120.034 244.845 120.449 244.797 120.767 244.756C121.085 244.71 121.316 244.642 121.46 244.551C121.608 244.456 121.682 244.311 121.682 244.114V244.08C121.682 243.652 121.555 243.32 121.301 243.085C121.047 242.85 120.682 242.733 120.205 242.733C119.701 242.733 119.301 242.843 119.006 243.062C118.714 243.282 118.517 243.542 118.415 243.841L116.494 243.568C116.646 243.038 116.896 242.595 117.244 242.239C117.593 241.879 118.019 241.61 118.523 241.432C119.027 241.25 119.583 241.159 120.193 241.159C120.614 241.159 121.032 241.208 121.449 241.307C121.866 241.405 122.246 241.568 122.591 241.795C122.936 242.019 123.212 242.324 123.42 242.71C123.633 243.097 123.739 243.58 123.739 244.159V250H121.761V248.801H121.693C121.568 249.044 121.392 249.271 121.165 249.483C120.941 249.691 120.659 249.86 120.318 249.989C119.981 250.114 119.585 250.176 119.131 250.176ZM119.665 248.665C120.078 248.665 120.436 248.583 120.739 248.42C121.042 248.254 121.275 248.034 121.438 247.761C121.604 247.489 121.688 247.191 121.688 246.869V245.841C121.623 245.894 121.513 245.943 121.358 245.989C121.206 246.034 121.036 246.074 120.847 246.108C120.657 246.142 120.47 246.172 120.284 246.199C120.098 246.225 119.938 246.248 119.801 246.267C119.494 246.309 119.22 246.377 118.977 246.472C118.735 246.566 118.544 246.699 118.403 246.869C118.263 247.036 118.193 247.252 118.193 247.517C118.193 247.896 118.331 248.182 118.608 248.375C118.884 248.568 119.237 248.665 119.665 248.665ZM130.165 241.273V242.864H125.148V241.273H130.165ZM126.386 239.182H128.443V247.375C128.443 247.652 128.485 247.864 128.568 248.011C128.655 248.155 128.769 248.254 128.909 248.307C129.049 248.36 129.205 248.386 129.375 248.386C129.504 248.386 129.621 248.377 129.727 248.358C129.837 248.339 129.92 248.322 129.977 248.307L130.324 249.915C130.214 249.953 130.057 249.994 129.852 250.04C129.652 250.085 129.405 250.112 129.114 250.119C128.598 250.134 128.134 250.057 127.722 249.886C127.309 249.712 126.981 249.443 126.739 249.08C126.5 248.716 126.383 248.261 126.386 247.716V239.182Z" fill="#14222E"/>
<path d="M432.636 251.455V236.909H433.568V251.455H432.636ZM435.773 241.273C435.705 240.697 435.428 240.25 434.943 239.932C434.458 239.614 433.864 239.455 433.159 239.455C432.644 239.455 432.193 239.538 431.807 239.705C431.424 239.871 431.125 240.1 430.909 240.392C430.697 240.684 430.591 241.015 430.591 241.386C430.591 241.697 430.665 241.964 430.812 242.188C430.964 242.407 431.157 242.591 431.392 242.739C431.627 242.883 431.873 243.002 432.131 243.097C432.388 243.187 432.625 243.261 432.841 243.318L434.023 243.636C434.326 243.716 434.663 243.826 435.034 243.966C435.409 244.106 435.767 244.297 436.108 244.54C436.453 244.778 436.737 245.085 436.96 245.46C437.184 245.835 437.295 246.295 437.295 246.841C437.295 247.47 437.131 248.038 436.801 248.545C436.475 249.053 435.998 249.456 435.369 249.756C434.744 250.055 433.985 250.205 433.091 250.205C432.258 250.205 431.536 250.07 430.926 249.801C430.32 249.532 429.843 249.157 429.494 248.676C429.15 248.195 428.955 247.636 428.909 247H430.364C430.402 247.439 430.549 247.803 430.807 248.091C431.068 248.375 431.398 248.587 431.795 248.727C432.197 248.864 432.629 248.932 433.091 248.932C433.629 248.932 434.112 248.845 434.54 248.67C434.968 248.492 435.307 248.246 435.557 247.932C435.807 247.614 435.932 247.242 435.932 246.818C435.932 246.432 435.824 246.117 435.608 245.875C435.392 245.633 435.108 245.436 434.756 245.284C434.403 245.133 434.023 245 433.614 244.886L432.182 244.477C431.273 244.216 430.553 243.843 430.023 243.358C429.492 242.873 429.227 242.239 429.227 241.455C429.227 240.803 429.403 240.235 429.756 239.75C430.112 239.261 430.589 238.883 431.188 238.614C431.79 238.341 432.462 238.205 433.205 238.205C433.955 238.205 434.621 238.339 435.205 238.608C435.788 238.873 436.25 239.237 436.591 239.699C436.936 240.161 437.117 240.686 437.136 241.273H435.773ZM443.499 238.364V250H442.089V239.841H442.021L439.18 241.727V240.295L442.089 238.364H443.499ZM450.641 250.159C449.785 250.159 449.055 249.926 448.453 249.46C447.851 248.991 447.391 248.311 447.072 247.42C446.754 246.527 446.595 245.447 446.595 244.182C446.595 242.924 446.754 241.85 447.072 240.96C447.394 240.066 447.857 239.384 448.459 238.915C449.065 238.441 449.792 238.205 450.641 238.205C451.489 238.205 452.214 238.441 452.817 238.915C453.423 239.384 453.885 240.066 454.203 240.96C454.525 241.85 454.686 242.924 454.686 244.182C454.686 245.447 454.527 246.527 454.209 247.42C453.891 248.311 453.43 248.991 452.828 249.46C452.226 249.926 451.497 250.159 450.641 250.159ZM450.641 248.909C451.489 248.909 452.148 248.5 452.618 247.682C453.088 246.864 453.322 245.697 453.322 244.182C453.322 243.174 453.214 242.316 452.999 241.608C452.786 240.9 452.48 240.36 452.078 239.989C451.68 239.617 451.201 239.432 450.641 239.432C449.8 239.432 449.143 239.847 448.669 240.676C448.196 241.502 447.959 242.67 447.959 244.182C447.959 245.189 448.065 246.045 448.277 246.75C448.489 247.455 448.794 247.991 449.192 248.358C449.593 248.725 450.076 248.909 450.641 248.909Z" fill="#101A23"/>
<path d="M24.6364 276.131V274.364H33.9205V276.131H30.3239V286H28.233V276.131H24.6364ZM38.1605 286.17C37.3082 286.17 36.5696 285.983 35.9446 285.608C35.3196 285.233 34.8348 284.708 34.4901 284.034C34.1491 283.36 33.9787 282.572 33.9787 281.67C33.9787 280.769 34.1491 279.979 34.4901 279.301C34.8348 278.623 35.3196 278.097 35.9446 277.722C36.5696 277.347 37.3082 277.159 38.1605 277.159C39.0128 277.159 39.7514 277.347 40.3764 277.722C41.0014 278.097 41.4844 278.623 41.8253 279.301C42.17 279.979 42.3423 280.769 42.3423 281.67C42.3423 282.572 42.17 283.36 41.8253 284.034C41.4844 284.708 41.0014 285.233 40.3764 285.608C39.7514 285.983 39.0128 286.17 38.1605 286.17ZM38.1719 284.523C38.634 284.523 39.0204 284.396 39.331 284.142C39.6416 283.884 39.8726 283.54 40.0241 283.108C40.1795 282.676 40.2571 282.195 40.2571 281.665C40.2571 281.131 40.1795 280.648 40.0241 280.216C39.8726 279.78 39.6416 279.434 39.331 279.176C39.0204 278.919 38.634 278.79 38.1719 278.79C37.6984 278.79 37.3045 278.919 36.9901 279.176C36.6795 279.434 36.4465 279.78 36.2912 280.216C36.1397 280.648 36.0639 281.131 36.0639 281.665C36.0639 282.195 36.1397 282.676 36.2912 283.108C36.4465 283.54 36.6795 283.884 36.9901 284.142C37.3045 284.396 37.6984 284.523 38.1719 284.523ZM48.446 277.273V278.864H43.429V277.273H48.446ZM44.6676 275.182H46.7244V283.375C46.7244 283.652 46.7661 283.864 46.8494 284.011C46.9366 284.155 47.0502 284.254 47.1903 284.307C47.3305 284.36 47.4858 284.386 47.6562 284.386C47.785 284.386 47.9025 284.377 48.0085 284.358C48.1184 284.339 48.2017 284.322 48.2585 284.307L48.6051 285.915C48.4953 285.953 48.3381 285.994 48.1335 286.04C47.9328 286.085 47.6866 286.112 47.3949 286.119C46.8797 286.134 46.4157 286.057 46.0028 285.886C45.59 285.712 45.2623 285.443 45.0199 285.08C44.7813 284.716 44.6638 284.261 44.6676 283.716V275.182ZM52.6776 286.176C52.1245 286.176 51.6264 286.078 51.1832 285.881C50.7438 285.68 50.3954 285.384 50.1378 284.994C49.884 284.604 49.7571 284.123 49.7571 283.551C49.7571 283.059 49.848 282.652 50.0298 282.33C50.2116 282.008 50.4598 281.75 50.7741 281.557C51.0885 281.364 51.4427 281.218 51.8366 281.119C52.2344 281.017 52.6454 280.943 53.0696 280.898C53.581 280.845 53.9957 280.797 54.3139 280.756C54.6321 280.71 54.8632 280.642 55.0071 280.551C55.1548 280.456 55.2287 280.311 55.2287 280.114V280.08C55.2287 279.652 55.1018 279.32 54.848 279.085C54.5942 278.85 54.2287 278.733 53.7514 278.733C53.2476 278.733 52.848 278.843 52.5526 279.062C52.2609 279.282 52.0639 279.542 51.9616 279.841L50.0412 279.568C50.1927 279.038 50.4427 278.595 50.7912 278.239C51.1397 277.879 51.5658 277.61 52.0696 277.432C52.5734 277.25 53.1302 277.159 53.7401 277.159C54.1605 277.159 54.5791 277.208 54.9957 277.307C55.4124 277.405 55.7931 277.568 56.1378 277.795C56.4825 278.019 56.759 278.324 56.9673 278.71C57.1795 279.097 57.2855 279.58 57.2855 280.159V286H55.3082V284.801H55.2401C55.1151 285.044 54.9389 285.271 54.7116 285.483C54.4882 285.691 54.206 285.86 53.8651 285.989C53.5279 286.114 53.1321 286.176 52.6776 286.176ZM53.2116 284.665C53.6245 284.665 53.9825 284.583 54.2855 284.42C54.5885 284.254 54.8215 284.034 54.9844 283.761C55.151 283.489 55.2344 283.191 55.2344 282.869V281.841C55.17 281.894 55.0601 281.943 54.9048 281.989C54.7533 282.034 54.5829 282.074 54.3935 282.108C54.2041 282.142 54.0166 282.172 53.831 282.199C53.6454 282.225 53.4844 282.248 53.348 282.267C53.0412 282.309 52.7666 282.377 52.5241 282.472C52.2817 282.566 52.0904 282.699 51.9503 282.869C51.8101 283.036 51.7401 283.252 51.7401 283.517C51.7401 283.896 51.8783 284.182 52.1548 284.375C52.4313 284.568 52.7836 284.665 53.2116 284.665ZM61.4105 274.364V286H59.3537V274.364H61.4105Z" fill="#14222E"/>
<path d="M419.636 287.455V272.909H420.568V287.455H419.636ZM422.773 277.273C422.705 276.697 422.428 276.25 421.943 275.932C421.458 275.614 420.864 275.455 420.159 275.455C419.644 275.455 419.193 275.538 418.807 275.705C418.424 275.871 418.125 276.1 417.909 276.392C417.697 276.684 417.591 277.015 417.591 277.386C417.591 277.697 417.665 277.964 417.812 278.188C417.964 278.407 418.157 278.591 418.392 278.739C418.627 278.883 418.873 279.002 419.131 279.097C419.388 279.187 419.625 279.261 419.841 279.318L421.023 279.636C421.326 279.716 421.663 279.826 422.034 279.966C422.409 280.106 422.767 280.297 423.108 280.54C423.453 280.778 423.737 281.085 423.96 281.46C424.184 281.835 424.295 282.295 424.295 282.841C424.295 283.47 424.131 284.038 423.801 284.545C423.475 285.053 422.998 285.456 422.369 285.756C421.744 286.055 420.985 286.205 420.091 286.205C419.258 286.205 418.536 286.07 417.926 285.801C417.32 285.532 416.843 285.157 416.494 284.676C416.15 284.195 415.955 283.636 415.909 283H417.364C417.402 283.439 417.549 283.803 417.807 284.091C418.068 284.375 418.398 284.587 418.795 284.727C419.197 284.864 419.629 284.932 420.091 284.932C420.629 284.932 421.112 284.845 421.54 284.67C421.968 284.492 422.307 284.246 422.557 283.932C422.807 283.614 422.932 283.242 422.932 282.818C422.932 282.432 422.824 282.117 422.608 281.875C422.392 281.633 422.108 281.436 421.756 281.284C421.403 281.133 421.023 281 420.614 280.886L419.182 280.477C418.273 280.216 417.553 279.843 417.023 279.358C416.492 278.873 416.227 278.239 416.227 277.455C416.227 276.803 416.403 276.235 416.756 275.75C417.112 275.261 417.589 274.883 418.188 274.614C418.79 274.341 419.462 274.205 420.205 274.205C420.955 274.205 421.621 274.339 422.205 274.608C422.788 274.873 423.25 275.237 423.591 275.699C423.936 276.161 424.117 276.686 424.136 277.273H422.773ZM430.339 286.159C429.589 286.159 428.921 286.03 428.334 285.773C427.75 285.515 427.286 285.157 426.942 284.699C426.601 284.237 426.415 283.701 426.385 283.091H427.817C427.847 283.466 427.976 283.79 428.203 284.062C428.43 284.331 428.728 284.54 429.095 284.688C429.463 284.835 429.87 284.909 430.317 284.909C430.817 284.909 431.26 284.822 431.646 284.648C432.033 284.473 432.336 284.231 432.555 283.92C432.775 283.61 432.885 283.25 432.885 282.841C432.885 282.413 432.779 282.036 432.567 281.71C432.355 281.381 432.044 281.123 431.635 280.938C431.226 280.752 430.726 280.659 430.135 280.659H429.203V279.409H430.135C430.597 279.409 431.002 279.326 431.351 279.159C431.703 278.992 431.978 278.758 432.175 278.455C432.375 278.152 432.476 277.795 432.476 277.386C432.476 276.992 432.389 276.65 432.214 276.358C432.04 276.066 431.794 275.839 431.476 275.676C431.161 275.513 430.79 275.432 430.362 275.432C429.961 275.432 429.582 275.506 429.226 275.653C428.874 275.797 428.586 276.008 428.362 276.284C428.139 276.557 428.018 276.886 427.999 277.273H426.635C426.658 276.663 426.841 276.129 427.186 275.67C427.531 275.208 427.982 274.848 428.538 274.591C429.099 274.333 429.714 274.205 430.385 274.205C431.105 274.205 431.722 274.35 432.237 274.642C432.752 274.93 433.148 275.311 433.425 275.784C433.701 276.258 433.839 276.769 433.839 277.318C433.839 277.973 433.667 278.532 433.322 278.994C432.982 279.456 432.518 279.777 431.93 279.955V280.045C432.665 280.167 433.239 280.479 433.652 280.983C434.065 281.483 434.271 282.102 434.271 282.841C434.271 283.473 434.099 284.042 433.754 284.545C433.413 285.045 432.947 285.439 432.357 285.727C431.766 286.015 431.093 286.159 430.339 286.159ZM436.595 286V284.977L440.436 280.773C440.887 280.28 441.258 279.852 441.55 279.489C441.841 279.121 442.057 278.777 442.197 278.455C442.341 278.129 442.413 277.788 442.413 277.432C442.413 277.023 442.315 276.669 442.118 276.369C441.925 276.07 441.66 275.839 441.322 275.676C440.985 275.513 440.607 275.432 440.186 275.432C439.739 275.432 439.349 275.525 439.016 275.71C438.686 275.892 438.43 276.148 438.249 276.477C438.071 276.807 437.982 277.193 437.982 277.636H436.641C436.641 276.955 436.798 276.356 437.112 275.841C437.427 275.326 437.855 274.924 438.396 274.636C438.942 274.348 439.554 274.205 440.232 274.205C440.913 274.205 441.518 274.348 442.044 274.636C442.571 274.924 442.983 275.312 443.283 275.801C443.582 276.29 443.732 276.833 443.732 277.432C443.732 277.86 443.654 278.278 443.499 278.688C443.347 279.093 443.082 279.545 442.703 280.045C442.328 280.542 441.807 281.148 441.141 281.864L438.527 284.659V284.75H443.936V286H436.595ZM450.078 286.159C449.222 286.159 448.493 285.926 447.891 285.46C447.288 284.991 446.828 284.311 446.51 283.42C446.192 282.527 446.033 281.447 446.033 280.182C446.033 278.924 446.192 277.85 446.51 276.96C446.832 276.066 447.294 275.384 447.896 274.915C448.502 274.441 449.23 274.205 450.078 274.205C450.927 274.205 451.652 274.441 452.254 274.915C452.86 275.384 453.322 276.066 453.641 276.96C453.963 277.85 454.124 278.924 454.124 280.182C454.124 281.447 453.964 282.527 453.646 283.42C453.328 284.311 452.868 284.991 452.266 285.46C451.663 285.926 450.934 286.159 450.078 286.159ZM450.078 284.909C450.927 284.909 451.586 284.5 452.055 283.682C452.525 282.864 452.76 281.697 452.76 280.182C452.76 279.174 452.652 278.316 452.436 277.608C452.224 276.9 451.917 276.36 451.516 275.989C451.118 275.617 450.639 275.432 450.078 275.432C449.237 275.432 448.58 275.847 448.107 276.676C447.633 277.502 447.396 278.67 447.396 280.182C447.396 281.189 447.502 282.045 447.714 282.75C447.927 283.455 448.232 283.991 448.629 284.358C449.031 284.725 449.514 284.909 450.078 284.909Z" fill="#101A23"/>
<path fill-rule="evenodd" clip-rule="evenodd" d="M480 325H0V324H480V325Z" fill="#E4E7EC"/>
<g filter="url(#filter3_d_186_3645)">
<rect x="24" y="349" width="210" height="44" rx="8" fill="white"/>
<path d="M113.108 369.29H110.983C110.922 368.941 110.811 368.633 110.648 368.364C110.485 368.091 110.282 367.86 110.04 367.67C109.797 367.481 109.521 367.339 109.21 367.244C108.903 367.146 108.572 367.097 108.216 367.097C107.583 367.097 107.023 367.256 106.534 367.574C106.045 367.888 105.663 368.35 105.386 368.96C105.11 369.566 104.972 370.307 104.972 371.182C104.972 372.072 105.11 372.822 105.386 373.432C105.667 374.038 106.049 374.496 106.534 374.807C107.023 375.114 107.581 375.267 108.21 375.267C108.559 375.267 108.884 375.222 109.188 375.131C109.494 375.036 109.769 374.898 110.011 374.716C110.258 374.534 110.464 374.311 110.631 374.045C110.801 373.78 110.919 373.477 110.983 373.136L113.108 373.148C113.028 373.701 112.856 374.22 112.591 374.705C112.33 375.189 111.987 375.617 111.562 375.989C111.138 376.356 110.642 376.644 110.074 376.852C109.506 377.057 108.875 377.159 108.182 377.159C107.159 377.159 106.246 376.922 105.443 376.449C104.64 375.975 104.008 375.292 103.545 374.398C103.083 373.504 102.852 372.432 102.852 371.182C102.852 369.928 103.085 368.856 103.551 367.966C104.017 367.072 104.652 366.388 105.455 365.915C106.258 365.441 107.167 365.205 108.182 365.205C108.83 365.205 109.432 365.295 109.989 365.477C110.545 365.659 111.042 365.926 111.477 366.278C111.913 366.627 112.271 367.055 112.551 367.562C112.835 368.066 113.021 368.642 113.108 369.29ZM117.459 377.176C116.906 377.176 116.408 377.078 115.964 376.881C115.525 376.68 115.177 376.384 114.919 375.994C114.665 375.604 114.538 375.123 114.538 374.551C114.538 374.059 114.629 373.652 114.811 373.33C114.993 373.008 115.241 372.75 115.555 372.557C115.87 372.364 116.224 372.218 116.618 372.119C117.016 372.017 117.427 371.943 117.851 371.898C118.362 371.845 118.777 371.797 119.095 371.756C119.413 371.71 119.644 371.642 119.788 371.551C119.936 371.456 120.01 371.311 120.01 371.114V371.08C120.01 370.652 119.883 370.32 119.629 370.085C119.375 369.85 119.01 369.733 118.533 369.733C118.029 369.733 117.629 369.843 117.334 370.062C117.042 370.282 116.845 370.542 116.743 370.841L114.822 370.568C114.974 370.038 115.224 369.595 115.572 369.239C115.921 368.879 116.347 368.61 116.851 368.432C117.355 368.25 117.911 368.159 118.521 368.159C118.942 368.159 119.36 368.208 119.777 368.307C120.194 368.405 120.574 368.568 120.919 368.795C121.264 369.019 121.54 369.324 121.749 369.71C121.961 370.097 122.067 370.58 122.067 371.159V377H120.089V375.801H120.021C119.896 376.044 119.72 376.271 119.493 376.483C119.269 376.691 118.987 376.86 118.646 376.989C118.309 377.114 117.913 377.176 117.459 377.176ZM117.993 375.665C118.406 375.665 118.764 375.583 119.067 375.42C119.37 375.254 119.603 375.034 119.766 374.761C119.932 374.489 120.016 374.191 120.016 373.869V372.841C119.951 372.894 119.841 372.943 119.686 372.989C119.535 373.034 119.364 373.074 119.175 373.108C118.985 373.142 118.798 373.172 118.612 373.199C118.427 373.225 118.266 373.248 118.129 373.267C117.822 373.309 117.548 373.377 117.305 373.472C117.063 373.566 116.872 373.699 116.732 373.869C116.591 374.036 116.521 374.252 116.521 374.517C116.521 374.896 116.66 375.182 116.936 375.375C117.213 375.568 117.565 375.665 117.993 375.665ZM126.192 371.886V377H124.135V368.273H126.101V369.756H126.203C126.404 369.267 126.724 368.879 127.163 368.591C127.607 368.303 128.154 368.159 128.805 368.159C129.408 368.159 129.932 368.288 130.379 368.545C130.83 368.803 131.179 369.176 131.425 369.665C131.675 370.153 131.798 370.746 131.794 371.443V377H129.737V371.761C129.737 371.178 129.586 370.722 129.283 370.392C128.983 370.062 128.569 369.898 128.038 369.898C127.679 369.898 127.358 369.977 127.078 370.136C126.802 370.292 126.584 370.517 126.425 370.812C126.269 371.108 126.192 371.466 126.192 371.886ZM137.692 377.17C136.821 377.17 136.072 376.979 135.447 376.597C134.826 376.214 134.347 375.686 134.01 375.011C133.677 374.333 133.51 373.553 133.51 372.67C133.51 371.784 133.68 371.002 134.021 370.324C134.362 369.642 134.843 369.112 135.464 368.733C136.089 368.35 136.828 368.159 137.68 368.159C138.389 368.159 139.016 368.29 139.561 368.551C140.11 368.809 140.548 369.174 140.874 369.648C141.199 370.117 141.385 370.667 141.43 371.295H139.464C139.385 370.875 139.196 370.525 138.896 370.244C138.601 369.96 138.205 369.818 137.709 369.818C137.288 369.818 136.919 369.932 136.601 370.159C136.283 370.383 136.035 370.705 135.857 371.125C135.682 371.545 135.595 372.049 135.595 372.636C135.595 373.231 135.682 373.742 135.857 374.17C136.031 374.595 136.275 374.922 136.589 375.153C136.908 375.381 137.281 375.494 137.709 375.494C138.012 375.494 138.283 375.437 138.521 375.324C138.764 375.206 138.966 375.038 139.129 374.818C139.292 374.598 139.404 374.331 139.464 374.017H141.43C141.381 374.634 141.199 375.182 140.885 375.659C140.571 376.133 140.143 376.504 139.601 376.773C139.059 377.038 138.423 377.17 137.692 377.17ZM146.983 377.17C146.108 377.17 145.352 376.989 144.716 376.625C144.083 376.258 143.597 375.739 143.256 375.068C142.915 374.394 142.744 373.6 142.744 372.688C142.744 371.79 142.915 371.002 143.256 370.324C143.6 369.642 144.081 369.112 144.699 368.733C145.316 368.35 146.042 368.159 146.875 368.159C147.413 368.159 147.92 368.246 148.398 368.42C148.879 368.591 149.303 368.856 149.67 369.216C150.042 369.576 150.333 370.034 150.545 370.591C150.758 371.144 150.864 371.803 150.864 372.568V373.199H143.71V371.812H148.892C148.888 371.419 148.803 371.068 148.636 370.761C148.47 370.451 148.237 370.206 147.938 370.028C147.642 369.85 147.297 369.761 146.903 369.761C146.483 369.761 146.114 369.864 145.795 370.068C145.477 370.269 145.229 370.534 145.051 370.864C144.877 371.189 144.788 371.547 144.784 371.938V373.148C144.784 373.655 144.877 374.091 145.062 374.455C145.248 374.814 145.508 375.091 145.841 375.284C146.174 375.473 146.564 375.568 147.011 375.568C147.311 375.568 147.581 375.527 147.824 375.443C148.066 375.356 148.277 375.229 148.455 375.062C148.633 374.896 148.767 374.689 148.858 374.443L150.778 374.659C150.657 375.167 150.426 375.61 150.085 375.989C149.748 376.364 149.316 376.655 148.79 376.864C148.263 377.068 147.661 377.17 146.983 377.17ZM154.661 365.364V377H152.604V365.364H154.661Z" fill="#344054"/>
<rect x="24.5" y="349.5" width="209" height="43" rx="7.5" stroke="#D0D5DD"/>
</g>
<g filter="url(#filter4_d_186_3645)">
<rect x="246" y="349" width="210" height="44" rx="8" fill="url(#paint0_linear_186_3645)"/>
<path d="M330.608 369.29H328.483C328.422 368.941 328.311 368.633 328.148 368.364C327.985 368.091 327.782 367.86 327.54 367.67C327.297 367.481 327.021 367.339 326.71 367.244C326.403 367.146 326.072 367.097 325.716 367.097C325.083 367.097 324.523 367.256 324.034 367.574C323.545 367.888 323.163 368.35 322.886 368.96C322.61 369.566 322.472 370.307 322.472 371.182C322.472 372.072 322.61 372.822 322.886 373.432C323.167 374.038 323.549 374.496 324.034 374.807C324.523 375.114 325.081 375.267 325.71 375.267C326.059 375.267 326.384 375.222 326.688 375.131C326.994 375.036 327.269 374.898 327.511 374.716C327.758 374.534 327.964 374.311 328.131 374.045C328.301 373.78 328.419 373.477 328.483 373.136L330.608 373.148C330.528 373.701 330.356 374.22 330.091 374.705C329.83 375.189 329.487 375.617 329.062 375.989C328.638 376.356 328.142 376.644 327.574 376.852C327.006 377.057 326.375 377.159 325.682 377.159C324.659 377.159 323.746 376.922 322.943 376.449C322.14 375.975 321.508 375.292 321.045 374.398C320.583 373.504 320.352 372.432 320.352 371.182C320.352 369.928 320.585 368.856 321.051 367.966C321.517 367.072 322.152 366.388 322.955 365.915C323.758 365.441 324.667 365.205 325.682 365.205C326.33 365.205 326.932 365.295 327.489 365.477C328.045 365.659 328.542 365.926 328.977 366.278C329.413 366.627 329.771 367.055 330.051 367.562C330.335 368.066 330.521 368.642 330.608 369.29ZM336.254 377.17C335.402 377.17 334.663 376.983 334.038 376.608C333.413 376.233 332.929 375.708 332.584 375.034C332.243 374.36 332.072 373.572 332.072 372.67C332.072 371.769 332.243 370.979 332.584 370.301C332.929 369.623 333.413 369.097 334.038 368.722C334.663 368.347 335.402 368.159 336.254 368.159C337.107 368.159 337.845 368.347 338.47 368.722C339.095 369.097 339.578 369.623 339.919 370.301C340.264 370.979 340.436 371.769 340.436 372.67C340.436 373.572 340.264 374.36 339.919 375.034C339.578 375.708 339.095 376.233 338.47 376.608C337.845 376.983 337.107 377.17 336.254 377.17ZM336.266 375.523C336.728 375.523 337.114 375.396 337.425 375.142C337.735 374.884 337.966 374.54 338.118 374.108C338.273 373.676 338.351 373.195 338.351 372.665C338.351 372.131 338.273 371.648 338.118 371.216C337.966 370.78 337.735 370.434 337.425 370.176C337.114 369.919 336.728 369.79 336.266 369.79C335.792 369.79 335.398 369.919 335.084 370.176C334.773 370.434 334.54 370.78 334.385 371.216C334.233 371.648 334.158 372.131 334.158 372.665C334.158 373.195 334.233 373.676 334.385 374.108C334.54 374.54 334.773 374.884 335.084 375.142C335.398 375.396 335.792 375.523 336.266 375.523ZM344.239 371.886V377H342.182V368.273H344.148V369.756H344.25C344.451 369.267 344.771 368.879 345.21 368.591C345.653 368.303 346.201 368.159 346.852 368.159C347.455 368.159 347.979 368.288 348.426 368.545C348.877 368.803 349.225 369.176 349.472 369.665C349.722 370.153 349.845 370.746 349.841 371.443V377H347.784V371.761C347.784 371.178 347.633 370.722 347.33 370.392C347.03 370.062 346.616 369.898 346.085 369.898C345.725 369.898 345.405 369.977 345.125 370.136C344.848 370.292 344.631 370.517 344.472 370.812C344.316 371.108 344.239 371.466 344.239 371.886ZM356.352 368.273V369.864H351.193V368.273H356.352ZM352.483 377V367.449C352.483 366.862 352.604 366.373 352.847 365.983C353.093 365.593 353.422 365.301 353.835 365.108C354.248 364.915 354.706 364.818 355.21 364.818C355.566 364.818 355.883 364.847 356.159 364.903C356.436 364.96 356.64 365.011 356.773 365.057L356.364 366.648C356.277 366.621 356.167 366.595 356.034 366.568C355.902 366.538 355.754 366.523 355.591 366.523C355.208 366.523 354.938 366.616 354.778 366.801C354.623 366.983 354.545 367.244 354.545 367.585V377H352.483ZM357.963 377V368.273H360.02V377H357.963ZM358.997 367.034C358.671 367.034 358.391 366.926 358.156 366.71C357.921 366.491 357.804 366.227 357.804 365.92C357.804 365.61 357.921 365.347 358.156 365.131C358.391 364.911 358.671 364.801 358.997 364.801C359.327 364.801 359.607 364.911 359.838 365.131C360.073 365.347 360.19 365.61 360.19 365.92C360.19 366.227 360.073 366.491 359.838 366.71C359.607 366.926 359.327 367.034 358.997 367.034ZM362.135 377V368.273H364.129V369.727H364.22C364.379 369.223 364.652 368.835 365.038 368.562C365.429 368.286 365.874 368.148 366.374 368.148C366.487 368.148 366.614 368.153 366.754 368.165C366.898 368.172 367.018 368.186 367.112 368.205V370.097C367.025 370.066 366.887 370.04 366.697 370.017C366.512 369.991 366.332 369.977 366.158 369.977C365.783 369.977 365.446 370.059 365.146 370.222C364.851 370.381 364.618 370.602 364.447 370.886C364.277 371.17 364.192 371.498 364.192 371.869V377H362.135ZM368.479 377V368.273H370.445V369.756H370.547C370.729 369.256 371.03 368.866 371.45 368.585C371.871 368.301 372.373 368.159 372.956 368.159C373.547 368.159 374.045 368.303 374.45 368.591C374.859 368.875 375.147 369.263 375.314 369.756H375.405C375.598 369.271 375.924 368.884 376.382 368.597C376.844 368.305 377.392 368.159 378.024 368.159C378.827 368.159 379.482 368.413 379.99 368.92C380.498 369.428 380.751 370.169 380.751 371.142V377H378.689V371.46C378.689 370.919 378.545 370.523 378.257 370.273C377.969 370.019 377.617 369.892 377.2 369.892C376.704 369.892 376.316 370.047 376.036 370.358C375.759 370.665 375.621 371.064 375.621 371.557V377H373.604V371.375C373.604 370.924 373.467 370.564 373.195 370.295C372.926 370.027 372.573 369.892 372.138 369.892C371.842 369.892 371.573 369.968 371.331 370.119C371.089 370.267 370.895 370.477 370.751 370.75C370.607 371.019 370.536 371.333 370.536 371.693V377H368.479Z" fill="white"/>
<rect x="246.5" y="349.5" width="209" height="43" rx="7.5" stroke="url(#paint1_linear_186_3645)"/>
</g>
</g>
<defs>
<filter id="filter0_d_186_3645" x="22" y="23" width="52" height="52" filterUnits="userSpaceOnUse" color-interpolation-filters="sRGB">
<feFlood flood-opacity="0" result="BackgroundImageFix"/>
<feColorMatrix in="SourceAlpha" type="matrix" values="0 0 0 0 0 0 0 0 0 0 0 0 0 0 0 0 0 0 127 0" result="hardAlpha"/>
<feOffset dy="1"/>
<feGaussianBlur stdDeviation="1"/>
<feColorMatrix type="matrix" values="0 0 0 0 0.0627451 0 0 0 0 0.0941176 0 0 0 0 0.156863 0 0 0 0.05 0"/>
<feBlend mode="normal" in2="BackgroundImageFix" result="effect1_dropShadow_186_3645"/>
<feBlend mode="normal" in="SourceGraphic" in2="effect1_dropShadow_186_3645" result="shape"/>
</filter>
<filter id="filter1_d_186_3645" x="124.5" y="139" width="48" height="48" filterUnits="userSpaceOnUse" color-interpolation-filters="sRGB">
<feFlood flood-opacity="0" result="BackgroundImageFix"/>
<feColorMatrix in="SourceAlpha" type="matrix" values="0 0 0 0 0 0 0 0 0 0 0 0 0 0 0 0 0 0 127 0" result="hardAlpha"/>
<feOffset dy="1"/>
<feGaussianBlur stdDeviation="1"/>
<feColorMatrix type="matrix" values="0 0 0 0 0.0627451 0 0 0 0 0.0941176 0 0 0 0 0.156863 0 0 0 0.05 0"/>
<feBlend mode="normal" in2="BackgroundImageFix" result="effect1_dropShadow_186_3645"/>
<feBlend mode="normal" in="SourceGraphic" in2="effect1_dropShadow_186_3645" result="shape"/>
</filter>
<filter id="filter2_d_186_3645" x="307.5" y="139" width="48" height="48" filterUnits="userSpaceOnUse" color-interpolation-filters="sRGB">
<feFlood flood-opacity="0" result="BackgroundImageFix"/>
<feColorMatrix in="SourceAlpha" type="matrix" values="0 0 0 0 0 0 0 0 0 0 0 0 0 0 0 0 0 0 127 0" result="hardAlpha"/>
<feOffset dy="1"/>
<feGaussianBlur stdDeviation="1"/>
<feColorMatrix type="matrix" values="0 0 0 0 0.0627451 0 0 0 0 0.0941176 0 0 0 0 0.156863 0 0 0 0.05 0"/>
<feBlend mode="normal" in2="BackgroundImageFix" result="effect1_dropShadow_186_3645"/>
<feBlend mode="normal" in="SourceGraphic" in2="effect1_dropShadow_186_3645" result="shape"/>
</filter>
<filter id="filter3_d_186_3645" x="22" y="348" width="214" height="48" filterUnits="userSpaceOnUse" color-interpolation-filters="sRGB">
<feFlood flood-opacity="0" result="BackgroundImageFix"/>
<feColorMatrix in="SourceAlpha" type="matrix" values="0 0 0 0 0 0 0 0 0 0 0 0 0 0 0 0 0 0 127 0" result="hardAlpha"/>
<feOffset dy="1"/>
<feGaussianBlur stdDeviation="1"/>
<feColorMatrix type="matrix" values="0 0 0 0 0.0627451 0 0 0 0 0.0941176 0 0 0 0 0.156863 0 0 0 0.05 0"/>
<feBlend mode="normal" in2="BackgroundImageFix" result="effect1_dropShadow_186_3645"/>
<feBlend mode="normal" in="SourceGraphic" in2="effect1_dropShadow_186_3645" result="shape"/>
</filter>
<filter id="filter4_d_186_3645" x="244" y="348" width="214" height="48" filterUnits="userSpaceOnUse" color-interpolation-filters="sRGB">
<feFlood flood-opacity="0" result="BackgroundImageFix"/>
<feColorMatrix in="SourceAlpha" type="matrix" values="0 0 0 0 0 0 0 0 0 0 0 0 0 0 0 0 0 0 127 0" result="hardAlpha"/>
<feOffset dy="1"/>
<feGaussianBlur stdDeviation="1"/>
<feColorMatrix type="matrix" values="0 0 0 0 0.0627451 0 0 0 0 0.0941176 0 0 0 0 0.156863 0 0 0 0.05 0"/>
<feBlend mode="normal" in2="BackgroundImageFix" result="effect1_dropShadow_186_3645"/>
<feBlend mode="normal" in="SourceGraphic" in2="effect1_dropShadow_186_3645" result="shape"/>
</filter>
<linearGradient id="paint0_linear_186_3645" x1="415.167" y1="352.667" x2="405.589" y2="411.712" gradientUnits="userSpaceOnUse">
<stop stop-color="#35C3F3"/>
<stop offset="0.223958" stop-color="#33D7E2"/>
<stop offset="0.517469" stop-color="#31F2CC"/>
<stop offset="0.765625" stop-color="#89F97D"/>
<stop offset="1" stop-color="#DDFF33"/>
</linearGradient>
<linearGradient id="paint1_linear_186_3645" x1="415.167" y1="352.667" x2="405.589" y2="411.712" gradientUnits="userSpaceOnUse">
<stop stop-color="#35C3F3"/>
<stop offset="0.223958" stop-color="#33D7E2"/>
<stop offset="0.517469" stop-color="#31F2CC"/>
<stop offset="0.765625" stop-color="#89F97D"/>
<stop offset="1" stop-color="#DDFF33"/>
</linearGradient>
<clipPath id="clip0_186_3645">
<rect width="480" height="417" rx="12" fill="white"/>
</clipPath>
</defs>
</svg>
