<svg width="130" height="25" viewBox="0 0 130 25" fill="none" xmlns="http://www.w3.org/2000/svg">
<path d="M7.2222 0L0 4.593L7.2222 9.186L14.4457 4.593L21.668 9.186L28.8902 4.593L21.668 0L14.4457 4.593L7.2222 0Z" fill="#161742"/>
<path d="M7.2222 18.3717L0 13.7786L7.2222 9.18555L14.4457 13.7786L7.2222 18.3717Z" fill="#161742"/>
<path d="M14.4458 13.7786L21.6681 9.18555L28.8903 13.7786L21.6681 18.3717L14.4458 13.7786Z" fill="#161742"/>
<path d="M14.4456 24.4965L7.22217 19.9035L14.4456 15.3105L21.6679 19.9035L14.4456 24.4965Z" fill="#161742"/>
<path fill-rule="evenodd" clip-rule="evenodd" d="M115.717 18.9102L120.549 12.4097L116.092 6.26758H119.909L122.491 10.0998L125.094 6.26758H128.889L124.366 12.3877L129.132 18.9102H125.381L122.447 14.7855L119.6 18.9102H115.717Z" fill="#161742"/>
<path fill-rule="evenodd" clip-rule="evenodd" d="M103.568 12.8413C103.568 17.0139 105.847 19.2321 109.885 19.2321C113.662 19.2321 116.223 17.0139 116.223 12.8413V12.4899C116.223 8.27321 113.618 5.94531 109.885 5.94531C106.238 5.94531 103.568 8.22931 103.568 12.4899V12.8413ZM112.933 12.8422C112.933 15.157 111.779 16.4137 109.885 16.4137C108.012 16.4137 106.858 15.135 106.858 12.8422V12.5336C106.858 10.0644 108.078 8.76371 109.906 8.76371C111.757 8.76371 112.933 10.1526 112.933 12.5336V12.8422Z" fill="#161742"/>
<path fill-rule="evenodd" clip-rule="evenodd" d="M92.53 16.5982C93.214 18.2227 94.5841 19.2325 96.6821 19.2325C99.9291 19.2325 102.049 16.8616 102.049 12.6468V12.2736C102.049 8.0588 99.7961 5.9734 96.7701 5.9514C94.7601 5.9514 93.347 6.8514 92.64 8.4979V2H89.394V18.9032H92.265L92.53 16.5982ZM98.759 12.677C98.759 15.183 97.6001 16.4141 95.6991 16.4141C93.8861 16.4141 92.684 15.0511 92.684 12.677V12.4132C92.684 10.237 93.929 8.7642 95.743 8.7642C97.491 8.7642 98.759 10.0392 98.759 12.3693V12.677Z" fill="#161742"/>
<path fill-rule="evenodd" clip-rule="evenodd" d="M74.9661 6.28231V23.2584H78.2071V16.9009C78.8911 18.3779 80.2361 19.2816 82.2641 19.2816C85.2631 19.2816 87.6221 17.0993 87.6221 12.9111V12.5584C87.6221 8.28191 85.5051 5.94531 82.2641 5.94531C80.1701 5.94531 78.7591 7.02541 78.0751 8.65671L77.7441 6.28231H74.9661ZM84.3311 12.8305C84.3311 15.1607 83.1301 16.4137 81.2501 16.4137C79.4371 16.4137 78.2571 15.0068 78.2571 12.7646V12.5227C78.2571 10.1706 79.4801 8.76371 81.3161 8.76371C83.0421 8.76371 84.3311 10.0167 84.3311 12.5447V12.8305Z" fill="#161742"/>
<path fill-rule="evenodd" clip-rule="evenodd" d="M60.5391 12.8413C60.5391 17.0139 62.8401 19.2321 66.878 19.2321C70.655 19.2321 73.194 17.0139 73.194 12.8413V12.4899C73.194 8.27321 70.611 5.94531 66.878 5.94531C63.2308 5.94531 60.5391 8.22931 60.5391 12.4899V12.8413ZM69.904 12.8422C69.904 15.157 68.728 16.4137 66.856 16.4137C64.9835 16.4137 63.8295 15.135 63.8295 12.8422V12.5336C63.8295 10.0644 65.049 8.76371 66.878 8.76371C68.728 8.76371 69.904 10.1526 69.904 12.5336V12.8422Z" fill="#161742"/>
<path fill-rule="evenodd" clip-rule="evenodd" d="M51.6802 18.9101H54.9997V13.1022C54.9997 10.4183 55.6636 9.47235 58.4077 9.47235H59.7797V6.10645H58.9609C56.5931 6.10645 55.2874 7.14045 54.7784 9.16435L54.3579 6.26685H51.6802V18.9101Z" fill="#161742"/>
<path fill-rule="evenodd" clip-rule="evenodd" d="M37 3.28809V18.9101H43.027C46.953 18.9101 49.9086 16.6296 49.9086 11.5864V10.5119C49.9086 5.49059 46.7766 3.28809 42.9388 3.28809H37ZM40.2904 6.10649H42.8013C45.069 6.10649 46.6182 7.53919 46.6182 10.6913V11.5069C46.6182 14.6589 45.1139 16.0917 42.9135 16.0917H40.2904V6.10649Z" fill="#161742"/>
</svg>
