<?xml version="1.0" standalone="no"?>
<!DOCTYPE svg PUBLIC "-//W3C//DTD SVG 20010904//EN"
 "http://www.w3.org/TR/2001/REC-SVG-20010904/DTD/svg10.dtd">
<svg version="1.0" xmlns="http://www.w3.org/2000/svg"
 width="401.000000pt" height="401.000000pt" viewBox="0 0 401.000000 401.000000"
 preserveAspectRatio="xMidYMid meet">
<metadata>
Created by potrace 1.14, written by Peter Selinger 2001-2017
</metadata>
<g transform="translate(0.000000,401.000000) scale(0.100000,-0.100000)"
fill="#000000" stroke="none">
<path d="M1840 4004 c-14 -2 -65 -9 -115 -15 -201 -25 -476 -114 -665 -216
-487 -264 -850 -720 -989 -1244 -53 -198 -65 -294 -65 -519 -1 -225 12 -329
63 -526 179 -682 728 -1232 1412 -1413 198 -53 294 -65 519 -65 225 -1 329 12
526 63 680 179 1232 731 1413 1413 54 200 65 293 65 523 0 154 -5 237 -17 310
-151 872 -802 1525 -1667 1670 -90 15 -425 29 -480 19z m-30 -1534 l0 -110
-405 0 -405 0 0 110 0 110 405 0 405 0 0 -110z m1200 0 l0 -110 -279 0 -279 0
-383 -760 -384 -760 -342 0 -343 0 0 110 0 110 278 0 277 0 384 760 384 760
343 0 344 0 0 -110z"/>
</g>
</svg>
